M48
; DRILL file {KiCad 7.0.10} date Thu Nov 14 14:37:03 2024
; FORMAT={-:-/ absolute / inch / decimal}
; #@! TF.CreationDate,2024-11-14T14:37:03+00:00
; #@! TF.GenerationSoftware,Kicad,Pcbnew,7.0.10
; #@! TF.FileFunction,MixedPlating,1,2
FMAT,2
INCH
; #@! TA.AperFunction,Plated,PTH,ViaDrill
T1C0.0118
; #@! TA.AperFunction,Plated,PTH,ComponentDrill
T2C0.0276
; #@! TA.AperFunction,Plated,PTH,ComponentDrill
T3C0.0295
; #@! TA.AperFunction,Plated,PTH,ComponentDrill
T4C0.0315
; #@! TA.AperFunction,Plated,PTH,ComponentDrill
T5C0.0354
; #@! TA.AperFunction,Plated,PTH,ComponentDrill
T6C0.0394
; #@! TA.AperFunction,NonPlated,NPTH,ComponentDrill
T7C0.1260
%
G90
G05
T1
X4.905Y-4.84
X4.905Y-5.09
X5.03Y-5.24
X5.155Y-5.04
X5.17Y-5.24
X5.205Y-4.99
X5.215Y-3.24
X5.23Y-3.44
X5.23Y-3.54
X5.42Y-5.08
X5.455Y-5.24
X5.4625Y-2.8325
X5.47Y-3.18
X5.505Y-4.94
X5.52Y-5.0
X5.52Y-5.09
X5.535Y-3.125
X5.555Y-5.29
X5.555Y-5.39
X5.7Y-5.14
X5.74Y-3.24
X5.775Y-2.99
X5.775Y-3.33
X5.79Y-5.09
X6.0Y-5.14
X6.125Y-2.925
X6.225Y-2.825
X6.385Y-2.76
X6.43Y-3.045
X6.5175Y-3.1325
T2
X4.08Y-4.29
X4.08Y-4.39
X4.08Y-4.49
X4.08Y-4.59
X4.08Y-4.69
X4.08Y-4.79
X4.08Y-4.89
X4.08Y-4.99
X4.08Y-5.09
X4.08Y-5.19
X4.08Y-5.29
X4.08Y-5.39
X4.205Y-2.99
X4.205Y-3.09
X4.205Y-3.19
X4.205Y-3.39
X4.205Y-3.49
X4.205Y-3.59
X4.38Y-4.29
X4.38Y-4.39
X4.38Y-4.49
X4.38Y-4.59
X4.38Y-4.69
X4.38Y-4.79
X4.38Y-4.89
X4.38Y-4.99
X4.38Y-5.09
X4.38Y-5.19
X4.38Y-5.29
X4.38Y-5.39
X4.505Y-2.99
X4.505Y-3.09
X4.505Y-3.19
X4.505Y-3.39
X4.505Y-3.49
X4.505Y-3.59
X4.605Y-2.89
X4.605Y-2.99
X4.605Y-3.09
X4.605Y-3.19
X4.605Y-3.39
X4.605Y-3.49
X4.605Y-3.59
X4.68Y-2.07
X4.905Y-2.89
X4.905Y-2.99
X4.905Y-3.09
X4.905Y-3.19
X4.905Y-3.39
X4.905Y-3.49
X4.905Y-3.59
X4.98Y-2.07
X5.03Y-2.78
X5.03Y-2.875
X5.03Y-3.7
X5.13Y-4.04
X5.13Y-4.14
X5.13Y-4.24
X5.33Y-2.78
X5.33Y-2.875
X5.33Y-3.7
X5.43Y-4.04
X5.43Y-4.14
X5.43Y-4.24
X5.455Y-3.39
X5.455Y-3.69
X5.63Y-3.7
X5.655Y-2.765
X5.655Y-4.04
X5.655Y-4.14
X5.655Y-4.24
X5.855Y-4.69
X5.855Y-4.79
X5.855Y-4.89
X5.855Y-4.99
X5.855Y-5.09
X5.855Y-5.19
X5.93Y-2.07
X5.93Y-3.7
X5.955Y-2.765
X5.955Y-4.04
X5.955Y-4.14
X5.955Y-4.24
X6.055Y-3.29
X6.055Y-3.59
X6.155Y-3.29
X6.155Y-3.59
X6.155Y-4.69
X6.155Y-4.79
X6.155Y-4.89
X6.155Y-4.99
X6.155Y-5.09
X6.155Y-5.19
X6.175Y-3.7
X6.18Y-4.04
X6.18Y-4.14
X6.18Y-4.24
X6.23Y-2.07
X6.255Y-4.69
X6.255Y-4.79
X6.255Y-4.89
X6.255Y-4.99
X6.255Y-5.09
X6.255Y-5.19
X6.475Y-3.7
X6.48Y-4.04
X6.48Y-4.14
X6.48Y-4.24
X6.555Y-4.69
X6.555Y-4.79
X6.555Y-4.89
X6.555Y-4.99
X6.555Y-5.09
X6.555Y-5.19
X6.58Y-3.7
X6.58Y-4.0
X6.68Y-4.04
X6.68Y-4.14
X6.68Y-4.24
X6.805Y-3.19
X6.805Y-3.49
X6.98Y-4.04
X6.98Y-4.14
X6.98Y-4.24
X7.18Y-2.07
X7.48Y-2.07
T3
X4.375Y-4.025
X4.375Y-4.125
X4.425Y-4.075
X5.155Y-3.865
X5.205Y-3.815
X5.205Y-3.915
X5.68Y-3.865
X5.73Y-3.815
X5.73Y-3.915
X6.205Y-3.865
X6.255Y-3.815
X6.255Y-3.915
X6.705Y-3.865
X6.755Y-3.815
X6.755Y-3.915
X7.155Y-4.075
X7.205Y-4.025
X7.255Y-4.075
T4
X4.13Y-4.03
X4.13Y-4.1284
X4.305Y-2.89
X4.5019Y-2.89
X4.53Y-4.49
X4.53Y-4.59
X4.53Y-4.69
X4.53Y-4.79
X4.53Y-4.89
X4.53Y-4.99
X4.53Y-5.09
X4.53Y-5.19
X4.53Y-5.29
X4.6Y-4.075
X4.655Y-5.19
X4.655Y-5.3869
X4.7066Y-3.29
X4.78Y-4.69
X4.78Y-4.79
X4.78Y-4.89
X4.78Y-4.99
X4.78Y-5.09
X4.78Y-5.19
X4.78Y-5.29
X4.78Y-5.39
X4.7969Y-4.075
X4.9034Y-3.29
X5.03Y-2.99
X5.03Y-3.09
X5.03Y-3.19
X5.03Y-3.29
X5.03Y-3.39
X5.03Y-3.49
X5.03Y-3.59
X5.08Y-4.69
X5.08Y-4.79
X5.08Y-4.89
X5.08Y-4.99
X5.08Y-5.09
X5.08Y-5.19
X5.08Y-5.29
X5.08Y-5.39
X5.23Y-5.1916
X5.23Y-5.3884
X5.33Y-2.99
X5.33Y-3.09
X5.33Y-3.19
X5.33Y-3.29
X5.33Y-3.39
X5.33Y-3.49
X5.33Y-3.59
X5.355Y-4.69
X5.355Y-4.79
X5.355Y-4.89
X5.355Y-4.99
X5.355Y-5.09
X5.355Y-5.19
X5.355Y-5.29
X5.355Y-5.39
X5.455Y-3.09
X5.455Y-3.2869
X5.63Y-2.89
X5.63Y-2.99
X5.63Y-3.09
X5.63Y-3.19
X5.63Y-3.29
X5.63Y-3.39
X5.63Y-3.49
X5.63Y-3.59
X5.655Y-4.69
X5.655Y-4.79
X5.655Y-4.89
X5.655Y-4.99
X5.655Y-5.09
X5.655Y-5.19
X5.655Y-5.29
X5.655Y-5.39
X5.93Y-2.89
X5.93Y-2.99
X5.93Y-3.09
X5.93Y-3.19
X5.93Y-3.29
X5.93Y-3.39
X5.93Y-3.49
X5.93Y-3.59
X6.055Y-2.8916
X6.055Y-3.0884
X6.38Y-2.89
X6.38Y-2.99
X6.38Y-3.09
X6.38Y-3.19
X6.38Y-3.29
X6.38Y-3.39
X6.38Y-3.49
X6.38Y-3.59
X6.68Y-2.89
X6.68Y-2.99
X6.68Y-3.09
X6.68Y-3.19
X6.68Y-3.29
X6.68Y-3.39
X6.68Y-3.49
X6.68Y-3.59
X6.705Y-4.79
X6.705Y-4.99
X6.8034Y-4.79
X6.805Y-2.8916
X6.805Y-3.0884
X6.9766Y-3.825
X7.005Y-4.99
X7.075Y-3.825
X7.105Y-4.99
X7.275Y-4.225
X7.3066Y-4.79
X7.405Y-4.79
X7.405Y-4.99
X7.4719Y-4.225
T5
X4.8787Y-2.1888
X4.8787Y-2.2888
X6.1287Y-2.1888
X6.1287Y-2.2888
X7.3773Y-2.1918
X7.3773Y-2.2918
T6
X3.931Y-2.189
X3.931Y-2.289
X3.955Y-4.49
X3.955Y-4.59
X3.955Y-4.69
X3.955Y-4.79
X3.955Y-4.89
X3.955Y-4.99
X3.955Y-5.09
X4.031Y-2.189
X4.031Y-2.289
X4.055Y-2.99
X4.055Y-3.09
X4.055Y-3.19
X4.055Y-3.29
X4.055Y-3.39
X4.055Y-3.49
X4.055Y-3.59
X4.131Y-2.189
X4.131Y-2.289
X4.331Y-2.189
X4.331Y-2.289
X4.431Y-2.189
X4.431Y-2.289
X4.805Y-4.49
X4.905Y-4.49
X5.005Y-4.49
X5.1813Y-2.1888
X5.1813Y-2.2888
X5.2813Y-2.1888
X5.2813Y-2.2888
X5.3813Y-2.1888
X5.3813Y-2.2888
X5.5813Y-2.1888
X5.5813Y-2.2888
X5.63Y-4.415
X5.6813Y-2.1888
X5.6813Y-2.2888
X5.73Y-4.415
X5.83Y-4.415
X5.905Y-5.39
X5.93Y-4.415
X5.955Y-2.615
X6.005Y-5.39
X6.03Y-4.415
X6.055Y-2.615
X6.105Y-5.39
X6.13Y-4.415
X6.155Y-2.615
X6.205Y-5.39
X6.23Y-4.415
X6.255Y-2.615
X6.305Y-5.39
X6.33Y-4.415
X6.355Y-2.615
X6.405Y-5.39
X6.43Y-2.189
X6.43Y-2.289
X6.43Y-4.415
X6.455Y-2.615
X6.505Y-5.39
X6.53Y-2.189
X6.53Y-2.289
X6.555Y-2.615
X6.63Y-2.189
X6.63Y-2.289
X6.655Y-2.615
X6.83Y-2.189
X6.83Y-2.289
X6.855Y-5.24
X6.855Y-5.34
X6.93Y-2.189
X6.93Y-2.289
X6.955Y-5.24
X6.955Y-5.34
X7.055Y-5.24
X7.055Y-5.34
X7.155Y-5.24
X7.155Y-5.34
X7.255Y-5.24
X7.255Y-5.34
T7
X4.055Y-2.765
X7.28Y-2.765
M30
