%TF.GenerationSoftware,KiCad,Pcbnew,7.0.10*%
%TF.CreationDate,2024-11-14T14:37:11+00:00*%
%TF.ProjectId,DividerSwitch-R,44697669-6465-4725-9377-697463682d52,rev?*%
%TF.SameCoordinates,Original*%
%TF.FileFunction,Soldermask,Top*%
%TF.FilePolarity,Negative*%
%FSLAX46Y46*%
G04 Gerber Fmt 4.6, Leading zero omitted, Abs format (unit mm)*
G04 Created by KiCad (PCBNEW 7.0.10) date 2024-11-14 14:37:11*
%MOMM*%
%LPD*%
G01*
G04 APERTURE LIST*
G04 Aperture macros list*
%AMRoundRect*
0 Rectangle with rounded corners*
0 $1 Rounding radius*
0 $2 $3 $4 $5 $6 $7 $8 $9 X,Y pos of 4 corners*
0 Add a 4 corners polygon primitive as box body*
4,1,4,$2,$3,$4,$5,$6,$7,$8,$9,$2,$3,0*
0 Add four circle primitives for the rounded corners*
1,1,$1+$1,$2,$3*
1,1,$1+$1,$4,$5*
1,1,$1+$1,$6,$7*
1,1,$1+$1,$8,$9*
0 Add four rect primitives between the rounded corners*
20,1,$1+$1,$2,$3,$4,$5,0*
20,1,$1+$1,$4,$5,$6,$7,0*
20,1,$1+$1,$6,$7,$8,$9,0*
20,1,$1+$1,$8,$9,$2,$3,0*%
G04 Aperture macros list end*
%ADD10R,1.400000X1.400000*%
%ADD11C,1.400000*%
%ADD12R,2.000000X2.000000*%
%ADD13O,1.400000X1.400000*%
%ADD14R,1.700000X1.700000*%
%ADD15O,1.700000X1.700000*%
%ADD16C,1.600000*%
%ADD17R,1.600000X1.600000*%
%ADD18O,1.600000X1.600000*%
%ADD19R,1.800000X1.100000*%
%ADD20RoundRect,0.275000X-0.625000X0.275000X-0.625000X-0.275000X0.625000X-0.275000X0.625000X0.275000X0*%
%ADD21RoundRect,0.275000X0.625000X-0.275000X0.625000X0.275000X-0.625000X0.275000X-0.625000X-0.275000X0*%
%ADD22C,3.200000*%
%ADD23R,1.100000X1.800000*%
%ADD24RoundRect,0.275000X-0.275000X-0.625000X0.275000X-0.625000X0.275000X0.625000X-0.275000X0.625000X0*%
%ADD25R,1.800000X1.800000*%
%ADD26C,1.800000*%
G04 APERTURE END LIST*
D10*
%TO.C,D20*%
X158877000Y-119126000D03*
D11*
X166497000Y-119126000D03*
%TD*%
D12*
%TO.C,REF\u002A\u002A*%
X103632000Y-60452000D03*
%TD*%
%TO.C,REF\u002A\u002A*%
X167098000Y-60452000D03*
%TD*%
%TO.C,REF\u002A\u002A*%
X174718000Y-60452000D03*
%TD*%
D10*
%TO.C,D6*%
X111252000Y-111506000D03*
D11*
X103632000Y-111506000D03*
%TD*%
D12*
%TO.C,REF\u002A\u002A*%
X142968000Y-60452000D03*
%TD*%
D11*
%TO.C,R23*%
X103632000Y-119126000D03*
D13*
X111252000Y-119126000D03*
%TD*%
D12*
%TO.C,REF\u002A\u002A*%
X174718000Y-53340000D03*
%TD*%
%TO.C,REF\u002A\u002A*%
X98552000Y-53340000D03*
%TD*%
D10*
%TO.C,D4*%
X135382000Y-73025000D03*
D11*
X127762000Y-73025000D03*
%TD*%
D14*
%TO.C,SW2*%
X131606000Y-58136000D03*
D15*
X134146000Y-58136000D03*
X141766000Y-58136000D03*
X144306000Y-58136000D03*
X136686000Y-58136000D03*
X131606000Y-55596000D03*
X134146000Y-55596000D03*
X141766000Y-55596000D03*
X144306000Y-55596000D03*
X136686000Y-55596000D03*
%TD*%
D11*
%TO.C,R1*%
X116967000Y-75946000D03*
D13*
X124587000Y-75946000D03*
%TD*%
D16*
%TO.C,C7*%
X132842000Y-131866000D03*
X132842000Y-136866000D03*
%TD*%
D11*
%TO.C,R12*%
X106807000Y-88646000D03*
D13*
X114427000Y-88646000D03*
%TD*%
D10*
%TO.C,D23*%
X158877000Y-126746000D03*
D11*
X166497000Y-126746000D03*
%TD*%
%TO.C,R10*%
X150622000Y-52578000D03*
D13*
X158242000Y-52578000D03*
%TD*%
D14*
%TO.C,J5*%
X165227000Y-136906000D03*
D15*
X162687000Y-136906000D03*
X160147000Y-136906000D03*
X157607000Y-136906000D03*
X155067000Y-136906000D03*
X152527000Y-136906000D03*
X149987000Y-136906000D03*
%TD*%
D16*
%TO.C,C6*%
X172847000Y-78446000D03*
X172847000Y-73446000D03*
%TD*%
D11*
%TO.C,R34*%
X156337000Y-124206000D03*
D13*
X148717000Y-124206000D03*
%TD*%
D11*
%TO.C,R5*%
X124587000Y-81026000D03*
D13*
X116967000Y-81026000D03*
%TD*%
D11*
%TO.C,R9*%
X124587000Y-86106000D03*
D13*
X116967000Y-86106000D03*
%TD*%
D11*
%TO.C,R31*%
X164592000Y-105156000D03*
D13*
X156972000Y-105156000D03*
%TD*%
D11*
%TO.C,R43*%
X177292000Y-107696000D03*
D13*
X169672000Y-107696000D03*
%TD*%
D17*
%TO.C,U1*%
X135382000Y-91186000D03*
D18*
X135382000Y-88646000D03*
X135382000Y-86106000D03*
X135382000Y-83566000D03*
X135382000Y-81026000D03*
X135382000Y-78486000D03*
X135382000Y-75946000D03*
X127762000Y-75946000D03*
X127762000Y-78486000D03*
X127762000Y-81026000D03*
X127762000Y-83566000D03*
X127762000Y-86106000D03*
X127762000Y-88646000D03*
X127762000Y-91186000D03*
%TD*%
D17*
%TO.C,C2*%
X185587000Y-121666000D03*
D16*
X188087000Y-121666000D03*
%TD*%
%TO.C,C5*%
X153797000Y-78446000D03*
X153797000Y-73446000D03*
%TD*%
D11*
%TO.C,R22*%
X167132000Y-101600000D03*
D13*
X167132000Y-93980000D03*
%TD*%
D11*
%TO.C,R39*%
X156337000Y-131826000D03*
D13*
X148717000Y-131826000D03*
%TD*%
D11*
%TO.C,R30*%
X151257000Y-105156000D03*
D13*
X143637000Y-105156000D03*
%TD*%
D12*
%TO.C,REF\u002A\u002A*%
X108712000Y-53340000D03*
%TD*%
D10*
%TO.C,D14*%
X156972000Y-102616000D03*
D11*
X164592000Y-102616000D03*
%TD*%
D10*
%TO.C,D10*%
X111252000Y-126746000D03*
D11*
X103632000Y-126746000D03*
%TD*%
D12*
%TO.C,REF\u002A\u002A*%
X140428000Y-53340000D03*
%TD*%
D16*
%TO.C,FB2*%
X188087000Y-126746000D03*
D18*
X180467000Y-126746000D03*
%TD*%
D10*
%TO.C,D7*%
X111252000Y-116586000D03*
D11*
X103632000Y-116586000D03*
%TD*%
D12*
%TO.C,REF\u002A\u002A*%
X111252000Y-53340000D03*
%TD*%
D14*
%TO.C,J1*%
X102997000Y-75946000D03*
D15*
X102997000Y-78486000D03*
X102997000Y-81026000D03*
X102997000Y-83566000D03*
X102997000Y-86106000D03*
X102997000Y-88646000D03*
X102997000Y-91186000D03*
%TD*%
D14*
%TO.C,SW3*%
X99847400Y-58140600D03*
D15*
X102387400Y-58140600D03*
X110007400Y-58140600D03*
X112547400Y-58140600D03*
X104927400Y-58140600D03*
X99847400Y-55600600D03*
X102387400Y-55600600D03*
X110007400Y-55600600D03*
X112547400Y-55600600D03*
X104927400Y-55600600D03*
%TD*%
D12*
%TO.C,REF\u002A\u002A*%
X164558000Y-53340000D03*
%TD*%
D10*
%TO.C,D22*%
X158877000Y-121666000D03*
D11*
X166497000Y-121666000D03*
%TD*%
D16*
%TO.C,C4*%
X119547000Y-83566000D03*
X124547000Y-83566000D03*
%TD*%
D14*
%TO.C,J2*%
X151257000Y-66421000D03*
D15*
X153797000Y-66421000D03*
X156337000Y-66421000D03*
X158877000Y-66421000D03*
X161417000Y-66421000D03*
X163957000Y-66421000D03*
X166497000Y-66421000D03*
X169037000Y-66421000D03*
%TD*%
D17*
%TO.C,C11*%
X177205000Y-97155000D03*
D16*
X179705000Y-97155000D03*
%TD*%
D17*
%TO.C,U4*%
X143637000Y-136906000D03*
D18*
X143637000Y-134366000D03*
X143637000Y-131826000D03*
X143637000Y-129286000D03*
X143637000Y-126746000D03*
X143637000Y-124206000D03*
X143637000Y-121666000D03*
X143637000Y-119126000D03*
X136017000Y-119126000D03*
X136017000Y-121666000D03*
X136017000Y-124206000D03*
X136017000Y-126746000D03*
X136017000Y-129286000D03*
X136017000Y-131826000D03*
X136017000Y-134366000D03*
X136017000Y-136906000D03*
%TD*%
D12*
%TO.C,REF\u002A\u002A*%
X113792000Y-60452000D03*
%TD*%
D11*
%TO.C,R15*%
X156337000Y-91186000D03*
D13*
X156337000Y-83566000D03*
%TD*%
D10*
%TO.C,D3*%
X138557000Y-86106000D03*
D11*
X138557000Y-93726000D03*
%TD*%
D12*
%TO.C,REF\u002A\u002A*%
X142968000Y-53340000D03*
%TD*%
D11*
%TO.C,R19*%
X127762000Y-93980000D03*
D13*
X135382000Y-93980000D03*
%TD*%
D16*
%TO.C,C3*%
X138557000Y-78486000D03*
X138557000Y-83486000D03*
%TD*%
D17*
%TO.C,U2*%
X143002000Y-73406000D03*
D18*
X143002000Y-75946000D03*
X143002000Y-78486000D03*
X143002000Y-81026000D03*
X143002000Y-83566000D03*
X143002000Y-86106000D03*
X143002000Y-88646000D03*
X143002000Y-91186000D03*
X150622000Y-91186000D03*
X150622000Y-88646000D03*
X150622000Y-86106000D03*
X150622000Y-83566000D03*
X150622000Y-81026000D03*
X150622000Y-78486000D03*
X150622000Y-75946000D03*
X150622000Y-73406000D03*
%TD*%
D10*
%TO.C,D11*%
X111252000Y-131826000D03*
D11*
X103632000Y-131826000D03*
%TD*%
%TO.C,R18*%
X106807000Y-91186000D03*
D13*
X114427000Y-91186000D03*
%TD*%
D14*
%TO.C,J4*%
X100457000Y-114046000D03*
D15*
X100457000Y-116586000D03*
X100457000Y-119126000D03*
X100457000Y-121666000D03*
X100457000Y-124206000D03*
X100457000Y-126746000D03*
X100457000Y-129286000D03*
%TD*%
D14*
%TO.C,SW1*%
X163322000Y-58140600D03*
D15*
X165862000Y-58140600D03*
X173482000Y-58140600D03*
X176022000Y-58140600D03*
X168402000Y-58140600D03*
X163322000Y-55600600D03*
X165862000Y-55600600D03*
X173482000Y-55600600D03*
X176022000Y-55600600D03*
X168402000Y-55600600D03*
%TD*%
D19*
%TO.C,U8*%
X110725000Y-102235000D03*
D20*
X112795000Y-103505000D03*
X110725000Y-104775000D03*
%TD*%
D12*
%TO.C,REF\u002A\u002A*%
X169672000Y-60452000D03*
%TD*%
%TO.C,REF\u002A\u002A*%
X172178000Y-53340000D03*
%TD*%
D10*
%TO.C,D5*%
X153797000Y-83566000D03*
D11*
X153797000Y-91186000D03*
%TD*%
%TO.C,R27*%
X172847000Y-88646000D03*
D13*
X172847000Y-81026000D03*
%TD*%
D12*
%TO.C,REF\u002A\u002A*%
X111252000Y-60452000D03*
%TD*%
D17*
%TO.C,RN1*%
X115062000Y-114046000D03*
D18*
X115062000Y-116586000D03*
X115062000Y-119126000D03*
X115062000Y-121666000D03*
X115062000Y-124206000D03*
X115062000Y-126746000D03*
X115062000Y-129286000D03*
X115062000Y-131826000D03*
X115062000Y-134366000D03*
%TD*%
D16*
%TO.C,C9*%
X114347000Y-73406000D03*
X109347000Y-73406000D03*
%TD*%
D11*
%TO.C,R16*%
X103632000Y-108966000D03*
D13*
X111252000Y-108966000D03*
%TD*%
D11*
%TO.C,R2*%
X124587000Y-78486000D03*
D13*
X116967000Y-78486000D03*
%TD*%
D11*
%TO.C,R37*%
X156337000Y-126746000D03*
D13*
X148717000Y-126746000D03*
%TD*%
D11*
%TO.C,R42*%
X164592000Y-107696000D03*
D13*
X156972000Y-107696000D03*
%TD*%
D19*
%TO.C,Q2*%
X145942000Y-99441000D03*
D21*
X143872000Y-98171000D03*
X145942000Y-96901000D03*
%TD*%
D12*
%TO.C,REF\u002A\u002A*%
X101092000Y-53340000D03*
%TD*%
D10*
%TO.C,D8*%
X111252000Y-121666000D03*
D11*
X103632000Y-121666000D03*
%TD*%
%TO.C,R17*%
X103632000Y-114046000D03*
D13*
X111252000Y-114046000D03*
%TD*%
D11*
%TO.C,R21*%
X156845000Y-93980000D03*
D13*
X164465000Y-93980000D03*
%TD*%
D11*
%TO.C,R40*%
X137922000Y-105156000D03*
D13*
X130302000Y-105156000D03*
%TD*%
D10*
%TO.C,D13*%
X143637000Y-102616000D03*
D11*
X151257000Y-102616000D03*
%TD*%
%TO.C,R38*%
X156337000Y-129286000D03*
D13*
X148717000Y-129286000D03*
%TD*%
D11*
%TO.C,R14*%
X118872000Y-52578000D03*
D13*
X126492000Y-52578000D03*
%TD*%
D10*
%TO.C,D15*%
X169672000Y-102616000D03*
D11*
X177292000Y-102616000D03*
%TD*%
D12*
%TO.C,REF\u002A\u002A*%
X162018000Y-53340000D03*
%TD*%
D11*
%TO.C,R20*%
X143002000Y-93980000D03*
D13*
X150622000Y-93980000D03*
%TD*%
D11*
%TO.C,R35*%
X156337000Y-119126000D03*
D13*
X148717000Y-119126000D03*
%TD*%
D17*
%TO.C,C1*%
X172807000Y-121666000D03*
D16*
X170307000Y-121666000D03*
%TD*%
D10*
%TO.C,D9*%
X151257000Y-70231000D03*
D11*
X143637000Y-70231000D03*
%TD*%
%TO.C,R8*%
X106807000Y-86106000D03*
D13*
X114427000Y-86106000D03*
%TD*%
D12*
%TO.C,REF\u002A\u002A*%
X164558000Y-60452000D03*
%TD*%
D10*
%TO.C,D24*%
X158877000Y-129286000D03*
D11*
X166497000Y-129286000D03*
%TD*%
D19*
%TO.C,Q3*%
X159277000Y-99441000D03*
D21*
X157207000Y-98171000D03*
X159277000Y-96901000D03*
%TD*%
D11*
%TO.C,R33*%
X103632000Y-134366000D03*
D13*
X111252000Y-134366000D03*
%TD*%
D22*
%TO.C,REF\u002A\u002A*%
X102997000Y-70231000D03*
%TD*%
D17*
%TO.C,C13*%
X104902000Y-102362000D03*
D16*
X104902000Y-104862000D03*
%TD*%
D12*
%TO.C,REF\u002A\u002A*%
X137922000Y-60452000D03*
%TD*%
D11*
%TO.C,R41*%
X151257000Y-107696000D03*
D13*
X143637000Y-107696000D03*
%TD*%
D11*
%TO.C,R7*%
X124587000Y-73406000D03*
D13*
X116967000Y-73406000D03*
%TD*%
D16*
%TO.C,C8*%
X118237000Y-131826000D03*
X118237000Y-136826000D03*
%TD*%
D11*
%TO.C,R3*%
X106807000Y-78486000D03*
D13*
X114427000Y-78486000D03*
%TD*%
D12*
%TO.C,REF\u002A\u002A*%
X101092000Y-60452000D03*
%TD*%
D11*
%TO.C,R13*%
X124587000Y-88646000D03*
D13*
X116967000Y-88646000D03*
%TD*%
D14*
%TO.C,J3*%
X143002000Y-112141000D03*
D15*
X145542000Y-112141000D03*
X148082000Y-112141000D03*
X150622000Y-112141000D03*
X153162000Y-112141000D03*
X155702000Y-112141000D03*
X158242000Y-112141000D03*
X160782000Y-112141000D03*
X163322000Y-112141000D03*
%TD*%
D11*
%TO.C,R24*%
X124587000Y-91186000D03*
D13*
X116967000Y-91186000D03*
%TD*%
D10*
%TO.C,D25*%
X158877000Y-131826000D03*
D11*
X166497000Y-131826000D03*
%TD*%
D17*
%TO.C,U5*%
X129032000Y-136906000D03*
D18*
X129032000Y-134366000D03*
X129032000Y-131826000D03*
X129032000Y-129286000D03*
X129032000Y-126746000D03*
X129032000Y-124206000D03*
X129032000Y-121666000D03*
X129032000Y-119126000D03*
X121412000Y-119126000D03*
X121412000Y-121666000D03*
X121412000Y-124206000D03*
X121412000Y-126746000D03*
X121412000Y-129286000D03*
X121412000Y-131826000D03*
X121412000Y-134366000D03*
X121412000Y-136906000D03*
%TD*%
D11*
%TO.C,R28*%
X103632000Y-129286000D03*
D13*
X111252000Y-129286000D03*
%TD*%
D11*
%TO.C,R6*%
X182372000Y-52578000D03*
D13*
X189992000Y-52578000D03*
%TD*%
D16*
%TO.C,C12*%
X116840000Y-103505000D03*
X121840000Y-103505000D03*
%TD*%
D11*
%TO.C,R29*%
X137922000Y-107696000D03*
D13*
X130302000Y-107696000D03*
%TD*%
D22*
%TO.C,REF\u002A\u002A*%
X184912000Y-70231000D03*
%TD*%
D16*
%TO.C,C10*%
X184785000Y-107315000D03*
X189785000Y-107315000D03*
%TD*%
D11*
%TO.C,R4*%
X106807000Y-81026000D03*
D13*
X114427000Y-81026000D03*
%TD*%
D11*
%TO.C,R36*%
X156337000Y-121666000D03*
D13*
X148717000Y-121666000D03*
%TD*%
D12*
%TO.C,REF\u002A\u002A*%
X130268000Y-53340000D03*
%TD*%
D10*
%TO.C,D12*%
X130302000Y-102616000D03*
D11*
X137922000Y-102616000D03*
%TD*%
D23*
%TO.C,U7*%
X181737000Y-103905000D03*
D24*
X183007000Y-101835000D03*
X184277000Y-103905000D03*
%TD*%
D12*
%TO.C,REF\u002A\u002A*%
X106172000Y-60452000D03*
%TD*%
D14*
%TO.C,J6*%
X174117000Y-135636000D03*
D15*
X174117000Y-133096000D03*
X176657000Y-135636000D03*
X176657000Y-133096000D03*
X179197000Y-135636000D03*
X179197000Y-133096000D03*
X181737000Y-135636000D03*
X181737000Y-133096000D03*
X184277000Y-135636000D03*
X184277000Y-133096000D03*
%TD*%
D10*
%TO.C,D16*%
X111252000Y-136906000D03*
D11*
X103632000Y-136906000D03*
%TD*%
D14*
%TO.C,J16*%
X127127000Y-114046000D03*
D15*
X124587000Y-114046000D03*
X122047000Y-114046000D03*
%TD*%
D11*
%TO.C,R11*%
X127762000Y-70612000D03*
D13*
X135382000Y-70612000D03*
%TD*%
D12*
%TO.C,REF\u002A\u002A*%
X132808000Y-60452000D03*
%TD*%
D19*
%TO.C,Q4*%
X171977000Y-99441000D03*
D21*
X169907000Y-98171000D03*
X171977000Y-96901000D03*
%TD*%
D10*
%TO.C,D19*%
X158877000Y-124206000D03*
D11*
X166497000Y-124206000D03*
%TD*%
D12*
%TO.C,REF\u002A\u002A*%
X132808000Y-53340000D03*
%TD*%
%TO.C,REF\u002A\u002A*%
X177258000Y-60452000D03*
%TD*%
%TO.C,REF\u002A\u002A*%
X145508000Y-60452000D03*
%TD*%
D19*
%TO.C,Q1*%
X132607000Y-99441000D03*
D21*
X130537000Y-98171000D03*
X132607000Y-96901000D03*
%TD*%
D10*
%TO.C,D2*%
X114427000Y-75946000D03*
D11*
X106807000Y-75946000D03*
%TD*%
D16*
%TO.C,FB1*%
X170307000Y-126746000D03*
D18*
X177927000Y-126746000D03*
%TD*%
D11*
%TO.C,R32*%
X177292000Y-105156000D03*
D13*
X169672000Y-105156000D03*
%TD*%
D17*
%TO.C,U3*%
X162052000Y-73406000D03*
D18*
X162052000Y-75946000D03*
X162052000Y-78486000D03*
X162052000Y-81026000D03*
X162052000Y-83566000D03*
X162052000Y-86106000D03*
X162052000Y-88646000D03*
X162052000Y-91186000D03*
X169672000Y-91186000D03*
X169672000Y-88646000D03*
X169672000Y-86106000D03*
X169672000Y-83566000D03*
X169672000Y-81026000D03*
X169672000Y-78486000D03*
X169672000Y-75946000D03*
X169672000Y-73406000D03*
%TD*%
D11*
%TO.C,R26*%
X103632000Y-124206000D03*
D13*
X111252000Y-124206000D03*
%TD*%
D12*
%TO.C,REF\u002A\u002A*%
X135348000Y-60452000D03*
%TD*%
D25*
%TO.C,D21*%
X123918000Y-58136000D03*
D26*
X123918000Y-55596000D03*
%TD*%
D25*
%TO.C,D18*%
X155668000Y-58136000D03*
D26*
X155668000Y-55596000D03*
%TD*%
D25*
%TO.C,D17*%
X187384000Y-58212000D03*
D26*
X187384000Y-55672000D03*
%TD*%
M02*
