%TF.GenerationSoftware,KiCad,Pcbnew,7.0.10*%
%TF.CreationDate,2024-11-14T14:37:11+00:00*%
%TF.ProjectId,DividerSwitch-R,44697669-6465-4725-9377-697463682d52,rev?*%
%TF.SameCoordinates,Original*%
%TF.FileFunction,Legend,Bot*%
%TF.FilePolarity,Positive*%
%FSLAX46Y46*%
G04 Gerber Fmt 4.6, Leading zero omitted, Abs format (unit mm)*
G04 Created by KiCad (PCBNEW 7.0.10) date 2024-11-14 14:37:11*
%MOMM*%
%LPD*%
G01*
G04 APERTURE LIST*
%ADD10C,0.150000*%
%ADD11C,0.120000*%
G04 APERTURE END LIST*
D10*
X125037047Y-60779819D02*
X125513237Y-60779819D01*
X125513237Y-60779819D02*
X125513237Y-59779819D01*
X124703713Y-60256009D02*
X124370380Y-60256009D01*
X124227523Y-60779819D02*
X124703713Y-60779819D01*
X124703713Y-60779819D02*
X124703713Y-59779819D01*
X124703713Y-59779819D02*
X124227523Y-59779819D01*
X123798951Y-60779819D02*
X123798951Y-59779819D01*
X123798951Y-59779819D02*
X123560856Y-59779819D01*
X123560856Y-59779819D02*
X123417999Y-59827438D01*
X123417999Y-59827438D02*
X123322761Y-59922676D01*
X123322761Y-59922676D02*
X123275142Y-60017914D01*
X123275142Y-60017914D02*
X123227523Y-60208390D01*
X123227523Y-60208390D02*
X123227523Y-60351247D01*
X123227523Y-60351247D02*
X123275142Y-60541723D01*
X123275142Y-60541723D02*
X123322761Y-60636961D01*
X123322761Y-60636961D02*
X123417999Y-60732200D01*
X123417999Y-60732200D02*
X123560856Y-60779819D01*
X123560856Y-60779819D02*
X123798951Y-60779819D01*
X122894189Y-59779819D02*
X122275142Y-59779819D01*
X122275142Y-59779819D02*
X122608475Y-60160771D01*
X122608475Y-60160771D02*
X122465618Y-60160771D01*
X122465618Y-60160771D02*
X122370380Y-60208390D01*
X122370380Y-60208390D02*
X122322761Y-60256009D01*
X122322761Y-60256009D02*
X122275142Y-60351247D01*
X122275142Y-60351247D02*
X122275142Y-60589342D01*
X122275142Y-60589342D02*
X122322761Y-60684580D01*
X122322761Y-60684580D02*
X122370380Y-60732200D01*
X122370380Y-60732200D02*
X122465618Y-60779819D01*
X122465618Y-60779819D02*
X122751332Y-60779819D01*
X122751332Y-60779819D02*
X122846570Y-60732200D01*
X122846570Y-60732200D02*
X122894189Y-60684580D01*
X156787047Y-60779819D02*
X157263237Y-60779819D01*
X157263237Y-60779819D02*
X157263237Y-59779819D01*
X156453713Y-60256009D02*
X156120380Y-60256009D01*
X155977523Y-60779819D02*
X156453713Y-60779819D01*
X156453713Y-60779819D02*
X156453713Y-59779819D01*
X156453713Y-59779819D02*
X155977523Y-59779819D01*
X155548951Y-60779819D02*
X155548951Y-59779819D01*
X155548951Y-59779819D02*
X155310856Y-59779819D01*
X155310856Y-59779819D02*
X155167999Y-59827438D01*
X155167999Y-59827438D02*
X155072761Y-59922676D01*
X155072761Y-59922676D02*
X155025142Y-60017914D01*
X155025142Y-60017914D02*
X154977523Y-60208390D01*
X154977523Y-60208390D02*
X154977523Y-60351247D01*
X154977523Y-60351247D02*
X155025142Y-60541723D01*
X155025142Y-60541723D02*
X155072761Y-60636961D01*
X155072761Y-60636961D02*
X155167999Y-60732200D01*
X155167999Y-60732200D02*
X155310856Y-60779819D01*
X155310856Y-60779819D02*
X155548951Y-60779819D01*
X154596570Y-59875057D02*
X154548951Y-59827438D01*
X154548951Y-59827438D02*
X154453713Y-59779819D01*
X154453713Y-59779819D02*
X154215618Y-59779819D01*
X154215618Y-59779819D02*
X154120380Y-59827438D01*
X154120380Y-59827438D02*
X154072761Y-59875057D01*
X154072761Y-59875057D02*
X154025142Y-59970295D01*
X154025142Y-59970295D02*
X154025142Y-60065533D01*
X154025142Y-60065533D02*
X154072761Y-60208390D01*
X154072761Y-60208390D02*
X154644189Y-60779819D01*
X154644189Y-60779819D02*
X154025142Y-60779819D01*
X188503047Y-60779819D02*
X188979237Y-60779819D01*
X188979237Y-60779819D02*
X188979237Y-59779819D01*
X188169713Y-60256009D02*
X187836380Y-60256009D01*
X187693523Y-60779819D02*
X188169713Y-60779819D01*
X188169713Y-60779819D02*
X188169713Y-59779819D01*
X188169713Y-59779819D02*
X187693523Y-59779819D01*
X187264951Y-60779819D02*
X187264951Y-59779819D01*
X187264951Y-59779819D02*
X187026856Y-59779819D01*
X187026856Y-59779819D02*
X186883999Y-59827438D01*
X186883999Y-59827438D02*
X186788761Y-59922676D01*
X186788761Y-59922676D02*
X186741142Y-60017914D01*
X186741142Y-60017914D02*
X186693523Y-60208390D01*
X186693523Y-60208390D02*
X186693523Y-60351247D01*
X186693523Y-60351247D02*
X186741142Y-60541723D01*
X186741142Y-60541723D02*
X186788761Y-60636961D01*
X186788761Y-60636961D02*
X186883999Y-60732200D01*
X186883999Y-60732200D02*
X187026856Y-60779819D01*
X187026856Y-60779819D02*
X187264951Y-60779819D01*
X185741142Y-60779819D02*
X186312570Y-60779819D01*
X186026856Y-60779819D02*
X186026856Y-59779819D01*
X186026856Y-59779819D02*
X186122094Y-59922676D01*
X186122094Y-59922676D02*
X186217332Y-60017914D01*
X186217332Y-60017914D02*
X186312570Y-60065533D01*
D11*
%TO.C,D21*%
X125463000Y-59426000D02*
X122373000Y-59426000D01*
X123918462Y-53876001D02*
G75*
G03*
X122373170Y-59425999I-462J-2989999D01*
G01*
X125462830Y-59426000D02*
G75*
G03*
X123917538Y-53876000I-1544830J2560000D01*
G01*
X126418000Y-56866000D02*
G75*
G03*
X121418000Y-56866000I-2500000J0D01*
G01*
X121418000Y-56866000D02*
G75*
G03*
X126418000Y-56866000I2500000J0D01*
G01*
%TO.C,D18*%
X157213000Y-59426000D02*
X154123000Y-59426000D01*
X155668462Y-53876001D02*
G75*
G03*
X154123170Y-59425999I-462J-2989999D01*
G01*
X157212830Y-59426000D02*
G75*
G03*
X155667538Y-53876000I-1544830J2560000D01*
G01*
X158168000Y-56866000D02*
G75*
G03*
X153168000Y-56866000I-2500000J0D01*
G01*
X153168000Y-56866000D02*
G75*
G03*
X158168000Y-56866000I2500000J0D01*
G01*
%TO.C,D17*%
X188929000Y-59502000D02*
X185839000Y-59502000D01*
X187384462Y-53952001D02*
G75*
G03*
X185839170Y-59501999I-462J-2989999D01*
G01*
X188928830Y-59502000D02*
G75*
G03*
X187383538Y-53952000I-1544830J2560000D01*
G01*
X189884000Y-56942000D02*
G75*
G03*
X184884000Y-56942000I-2500000J0D01*
G01*
X184884000Y-56942000D02*
G75*
G03*
X189884000Y-56942000I2500000J0D01*
G01*
%TD*%
M02*
