%TF.GenerationSoftware,KiCad,Pcbnew,7.0.10*%
%TF.CreationDate,2024-07-10T16:24:41+01:00*%
%TF.ProjectId,DividerSwitch-R,44697669-6465-4725-9377-697463682d52,rev?*%
%TF.SameCoordinates,Original*%
%TF.FileFunction,Drillmap*%
%TF.FilePolarity,Positive*%
%FSLAX45Y45*%
G04 Gerber Fmt 4.5, Leading zero omitted, Abs format (unit mm)*
G04 Created by KiCad (PCBNEW 7.0.10) date 2024-07-10 16:24:41*
%MOMM*%
%LPD*%
G01*
G04 APERTURE LIST*
%ADD10C,0.050000*%
%ADD11C,0.200000*%
%ADD12C,0.100000*%
%ADD13C,0.320000*%
G04 APERTURE END LIST*
D10*
X9664700Y-5118100D02*
X19189700Y-5118100D01*
X19189700Y-14071600D01*
X9664700Y-14071600D01*
X9664700Y-5118100D01*
D11*
D12*
X12443700Y-12278600D02*
X12473700Y-12308600D01*
X12473700Y-12278600D02*
X12443700Y-12308600D01*
X12443700Y-12913600D02*
X12473700Y-12943600D01*
X12473700Y-12913600D02*
X12443700Y-12943600D01*
X12761200Y-13294600D02*
X12791200Y-13324600D01*
X12791200Y-13294600D02*
X12761200Y-13324600D01*
X13078700Y-12786600D02*
X13108700Y-12816600D01*
X13108700Y-12786600D02*
X13078700Y-12816600D01*
X13078700Y-13294600D02*
X13108700Y-13324600D01*
X13108700Y-13294600D02*
X13078700Y-13324600D01*
X13205700Y-12659600D02*
X13235700Y-12689600D01*
X13235700Y-12659600D02*
X13205700Y-12689600D01*
X13231100Y-8214600D02*
X13261100Y-8244600D01*
X13261100Y-8214600D02*
X13231100Y-8244600D01*
X13269200Y-8722600D02*
X13299200Y-8752600D01*
X13299200Y-8722600D02*
X13269200Y-8752600D01*
X13269200Y-8976600D02*
X13299200Y-9006600D01*
X13299200Y-8976600D02*
X13269200Y-9006600D01*
X13777200Y-12786600D02*
X13807200Y-12816600D01*
X13807200Y-12786600D02*
X13777200Y-12816600D01*
X13840700Y-13294600D02*
X13870700Y-13324600D01*
X13870700Y-13294600D02*
X13840700Y-13324600D01*
X13859750Y-7179550D02*
X13889750Y-7209550D01*
X13889750Y-7179550D02*
X13859750Y-7209550D01*
X13878800Y-8062200D02*
X13908800Y-8092200D01*
X13908800Y-8062200D02*
X13878800Y-8092200D01*
X13967700Y-12532600D02*
X13997700Y-12562600D01*
X13997700Y-12532600D02*
X13967700Y-12562600D01*
X13967700Y-13167600D02*
X13997700Y-13197600D01*
X13997700Y-13167600D02*
X13967700Y-13197600D01*
X14005800Y-12685000D02*
X14035800Y-12715000D01*
X14035800Y-12685000D02*
X14005800Y-12715000D01*
X14043900Y-7922500D02*
X14073900Y-7952500D01*
X14073900Y-7922500D02*
X14043900Y-7952500D01*
X14094700Y-13421600D02*
X14124700Y-13451600D01*
X14124700Y-13421600D02*
X14094700Y-13451600D01*
X14094700Y-13675600D02*
X14124700Y-13705600D01*
X14124700Y-13675600D02*
X14094700Y-13705600D01*
X14450300Y-12786600D02*
X14480300Y-12816600D01*
X14480300Y-12786600D02*
X14450300Y-12816600D01*
X14564600Y-8214600D02*
X14594600Y-8244600D01*
X14594600Y-8214600D02*
X14564600Y-8244600D01*
X14628100Y-12786600D02*
X14658100Y-12816600D01*
X14658100Y-12786600D02*
X14628100Y-12816600D01*
X14653500Y-7579600D02*
X14683500Y-7609600D01*
X14683500Y-7579600D02*
X14653500Y-7609600D01*
X14653500Y-8443200D02*
X14683500Y-8473200D01*
X14683500Y-8443200D02*
X14653500Y-8473200D01*
X14767800Y-13548600D02*
X14797800Y-13578600D01*
X14797800Y-13548600D02*
X14767800Y-13578600D01*
X16317200Y-7719300D02*
X16347200Y-7749300D01*
X16347200Y-7719300D02*
X16317200Y-7749300D01*
X16539450Y-7941550D02*
X16569450Y-7971550D01*
X16569450Y-7941550D02*
X16539450Y-7971550D01*
X10398200Y-10896600D02*
G75*
G03*
X10328200Y-10896600I-35000J0D01*
G01*
X10328200Y-10896600D02*
G75*
G03*
X10398200Y-10896600I35000J0D01*
G01*
X10398200Y-11150600D02*
G75*
G03*
X10328200Y-11150600I-35000J0D01*
G01*
X10328200Y-11150600D02*
G75*
G03*
X10398200Y-11150600I35000J0D01*
G01*
X10398200Y-11404600D02*
G75*
G03*
X10328200Y-11404600I-35000J0D01*
G01*
X10328200Y-11404600D02*
G75*
G03*
X10398200Y-11404600I35000J0D01*
G01*
X10398200Y-11658600D02*
G75*
G03*
X10328200Y-11658600I-35000J0D01*
G01*
X10328200Y-11658600D02*
G75*
G03*
X10398200Y-11658600I35000J0D01*
G01*
X10398200Y-11912600D02*
G75*
G03*
X10328200Y-11912600I-35000J0D01*
G01*
X10328200Y-11912600D02*
G75*
G03*
X10398200Y-11912600I35000J0D01*
G01*
X10398200Y-12166600D02*
G75*
G03*
X10328200Y-12166600I-35000J0D01*
G01*
X10328200Y-12166600D02*
G75*
G03*
X10398200Y-12166600I35000J0D01*
G01*
X10398200Y-12420600D02*
G75*
G03*
X10328200Y-12420600I-35000J0D01*
G01*
X10328200Y-12420600D02*
G75*
G03*
X10398200Y-12420600I35000J0D01*
G01*
X10398200Y-12674600D02*
G75*
G03*
X10328200Y-12674600I-35000J0D01*
G01*
X10328200Y-12674600D02*
G75*
G03*
X10398200Y-12674600I35000J0D01*
G01*
X10398200Y-12928600D02*
G75*
G03*
X10328200Y-12928600I-35000J0D01*
G01*
X10328200Y-12928600D02*
G75*
G03*
X10398200Y-12928600I35000J0D01*
G01*
X10398200Y-13182600D02*
G75*
G03*
X10328200Y-13182600I-35000J0D01*
G01*
X10328200Y-13182600D02*
G75*
G03*
X10398200Y-13182600I35000J0D01*
G01*
X10398200Y-13436600D02*
G75*
G03*
X10328200Y-13436600I-35000J0D01*
G01*
X10328200Y-13436600D02*
G75*
G03*
X10398200Y-13436600I35000J0D01*
G01*
X10398200Y-13690600D02*
G75*
G03*
X10328200Y-13690600I-35000J0D01*
G01*
X10328200Y-13690600D02*
G75*
G03*
X10398200Y-13690600I35000J0D01*
G01*
X10715700Y-7594600D02*
G75*
G03*
X10645700Y-7594600I-35000J0D01*
G01*
X10645700Y-7594600D02*
G75*
G03*
X10715700Y-7594600I35000J0D01*
G01*
X10715700Y-7848600D02*
G75*
G03*
X10645700Y-7848600I-35000J0D01*
G01*
X10645700Y-7848600D02*
G75*
G03*
X10715700Y-7848600I35000J0D01*
G01*
X10715700Y-8102600D02*
G75*
G03*
X10645700Y-8102600I-35000J0D01*
G01*
X10645700Y-8102600D02*
G75*
G03*
X10715700Y-8102600I35000J0D01*
G01*
X10715700Y-8610600D02*
G75*
G03*
X10645700Y-8610600I-35000J0D01*
G01*
X10645700Y-8610600D02*
G75*
G03*
X10715700Y-8610600I35000J0D01*
G01*
X10715700Y-8864600D02*
G75*
G03*
X10645700Y-8864600I-35000J0D01*
G01*
X10645700Y-8864600D02*
G75*
G03*
X10715700Y-8864600I35000J0D01*
G01*
X10715700Y-9118600D02*
G75*
G03*
X10645700Y-9118600I-35000J0D01*
G01*
X10645700Y-9118600D02*
G75*
G03*
X10715700Y-9118600I35000J0D01*
G01*
X11160200Y-10896600D02*
G75*
G03*
X11090200Y-10896600I-35000J0D01*
G01*
X11090200Y-10896600D02*
G75*
G03*
X11160200Y-10896600I35000J0D01*
G01*
X11160200Y-11150600D02*
G75*
G03*
X11090200Y-11150600I-35000J0D01*
G01*
X11090200Y-11150600D02*
G75*
G03*
X11160200Y-11150600I35000J0D01*
G01*
X11160200Y-11404600D02*
G75*
G03*
X11090200Y-11404600I-35000J0D01*
G01*
X11090200Y-11404600D02*
G75*
G03*
X11160200Y-11404600I35000J0D01*
G01*
X11160200Y-11658600D02*
G75*
G03*
X11090200Y-11658600I-35000J0D01*
G01*
X11090200Y-11658600D02*
G75*
G03*
X11160200Y-11658600I35000J0D01*
G01*
X11160200Y-11912600D02*
G75*
G03*
X11090200Y-11912600I-35000J0D01*
G01*
X11090200Y-11912600D02*
G75*
G03*
X11160200Y-11912600I35000J0D01*
G01*
X11160200Y-12166600D02*
G75*
G03*
X11090200Y-12166600I-35000J0D01*
G01*
X11090200Y-12166600D02*
G75*
G03*
X11160200Y-12166600I35000J0D01*
G01*
X11160200Y-12420600D02*
G75*
G03*
X11090200Y-12420600I-35000J0D01*
G01*
X11090200Y-12420600D02*
G75*
G03*
X11160200Y-12420600I35000J0D01*
G01*
X11160200Y-12674600D02*
G75*
G03*
X11090200Y-12674600I-35000J0D01*
G01*
X11090200Y-12674600D02*
G75*
G03*
X11160200Y-12674600I35000J0D01*
G01*
X11160200Y-12928600D02*
G75*
G03*
X11090200Y-12928600I-35000J0D01*
G01*
X11090200Y-12928600D02*
G75*
G03*
X11160200Y-12928600I35000J0D01*
G01*
X11160200Y-13182600D02*
G75*
G03*
X11090200Y-13182600I-35000J0D01*
G01*
X11090200Y-13182600D02*
G75*
G03*
X11160200Y-13182600I35000J0D01*
G01*
X11160200Y-13436600D02*
G75*
G03*
X11090200Y-13436600I-35000J0D01*
G01*
X11090200Y-13436600D02*
G75*
G03*
X11160200Y-13436600I35000J0D01*
G01*
X11160200Y-13690600D02*
G75*
G03*
X11090200Y-13690600I-35000J0D01*
G01*
X11090200Y-13690600D02*
G75*
G03*
X11160200Y-13690600I35000J0D01*
G01*
X11477700Y-7594600D02*
G75*
G03*
X11407700Y-7594600I-35000J0D01*
G01*
X11407700Y-7594600D02*
G75*
G03*
X11477700Y-7594600I35000J0D01*
G01*
X11477700Y-7848600D02*
G75*
G03*
X11407700Y-7848600I-35000J0D01*
G01*
X11407700Y-7848600D02*
G75*
G03*
X11477700Y-7848600I35000J0D01*
G01*
X11477700Y-8102600D02*
G75*
G03*
X11407700Y-8102600I-35000J0D01*
G01*
X11407700Y-8102600D02*
G75*
G03*
X11477700Y-8102600I35000J0D01*
G01*
X11477700Y-8610600D02*
G75*
G03*
X11407700Y-8610600I-35000J0D01*
G01*
X11407700Y-8610600D02*
G75*
G03*
X11477700Y-8610600I35000J0D01*
G01*
X11477700Y-8864600D02*
G75*
G03*
X11407700Y-8864600I-35000J0D01*
G01*
X11407700Y-8864600D02*
G75*
G03*
X11477700Y-8864600I35000J0D01*
G01*
X11477700Y-9118600D02*
G75*
G03*
X11407700Y-9118600I-35000J0D01*
G01*
X11407700Y-9118600D02*
G75*
G03*
X11477700Y-9118600I35000J0D01*
G01*
X11731700Y-7340600D02*
G75*
G03*
X11661700Y-7340600I-35000J0D01*
G01*
X11661700Y-7340600D02*
G75*
G03*
X11731700Y-7340600I35000J0D01*
G01*
X11731700Y-7594600D02*
G75*
G03*
X11661700Y-7594600I-35000J0D01*
G01*
X11661700Y-7594600D02*
G75*
G03*
X11731700Y-7594600I35000J0D01*
G01*
X11731700Y-7848600D02*
G75*
G03*
X11661700Y-7848600I-35000J0D01*
G01*
X11661700Y-7848600D02*
G75*
G03*
X11731700Y-7848600I35000J0D01*
G01*
X11731700Y-8102600D02*
G75*
G03*
X11661700Y-8102600I-35000J0D01*
G01*
X11661700Y-8102600D02*
G75*
G03*
X11731700Y-8102600I35000J0D01*
G01*
X11731700Y-8610600D02*
G75*
G03*
X11661700Y-8610600I-35000J0D01*
G01*
X11661700Y-8610600D02*
G75*
G03*
X11731700Y-8610600I35000J0D01*
G01*
X11731700Y-8864600D02*
G75*
G03*
X11661700Y-8864600I-35000J0D01*
G01*
X11661700Y-8864600D02*
G75*
G03*
X11731700Y-8864600I35000J0D01*
G01*
X11731700Y-9118600D02*
G75*
G03*
X11661700Y-9118600I-35000J0D01*
G01*
X11661700Y-9118600D02*
G75*
G03*
X11731700Y-9118600I35000J0D01*
G01*
X12493700Y-7340600D02*
G75*
G03*
X12423700Y-7340600I-35000J0D01*
G01*
X12423700Y-7340600D02*
G75*
G03*
X12493700Y-7340600I35000J0D01*
G01*
X12493700Y-7594600D02*
G75*
G03*
X12423700Y-7594600I-35000J0D01*
G01*
X12423700Y-7594600D02*
G75*
G03*
X12493700Y-7594600I35000J0D01*
G01*
X12493700Y-7848600D02*
G75*
G03*
X12423700Y-7848600I-35000J0D01*
G01*
X12423700Y-7848600D02*
G75*
G03*
X12493700Y-7848600I35000J0D01*
G01*
X12493700Y-8102600D02*
G75*
G03*
X12423700Y-8102600I-35000J0D01*
G01*
X12423700Y-8102600D02*
G75*
G03*
X12493700Y-8102600I35000J0D01*
G01*
X12493700Y-8610600D02*
G75*
G03*
X12423700Y-8610600I-35000J0D01*
G01*
X12423700Y-8610600D02*
G75*
G03*
X12493700Y-8610600I35000J0D01*
G01*
X12493700Y-8864600D02*
G75*
G03*
X12423700Y-8864600I-35000J0D01*
G01*
X12423700Y-8864600D02*
G75*
G03*
X12493700Y-8864600I35000J0D01*
G01*
X12493700Y-9118600D02*
G75*
G03*
X12423700Y-9118600I-35000J0D01*
G01*
X12423700Y-9118600D02*
G75*
G03*
X12493700Y-9118600I35000J0D01*
G01*
X12811200Y-7061200D02*
G75*
G03*
X12741200Y-7061200I-35000J0D01*
G01*
X12741200Y-7061200D02*
G75*
G03*
X12811200Y-7061200I35000J0D01*
G01*
X12811200Y-7302500D02*
G75*
G03*
X12741200Y-7302500I-35000J0D01*
G01*
X12741200Y-7302500D02*
G75*
G03*
X12811200Y-7302500I35000J0D01*
G01*
X12811200Y-9398000D02*
G75*
G03*
X12741200Y-9398000I-35000J0D01*
G01*
X12741200Y-9398000D02*
G75*
G03*
X12811200Y-9398000I35000J0D01*
G01*
X13065200Y-10261600D02*
G75*
G03*
X12995200Y-10261600I-35000J0D01*
G01*
X12995200Y-10261600D02*
G75*
G03*
X13065200Y-10261600I35000J0D01*
G01*
X13065200Y-10515600D02*
G75*
G03*
X12995200Y-10515600I-35000J0D01*
G01*
X12995200Y-10515600D02*
G75*
G03*
X13065200Y-10515600I35000J0D01*
G01*
X13065200Y-10769600D02*
G75*
G03*
X12995200Y-10769600I-35000J0D01*
G01*
X12995200Y-10769600D02*
G75*
G03*
X13065200Y-10769600I35000J0D01*
G01*
X13573200Y-7061200D02*
G75*
G03*
X13503200Y-7061200I-35000J0D01*
G01*
X13503200Y-7061200D02*
G75*
G03*
X13573200Y-7061200I35000J0D01*
G01*
X13573200Y-7302500D02*
G75*
G03*
X13503200Y-7302500I-35000J0D01*
G01*
X13503200Y-7302500D02*
G75*
G03*
X13573200Y-7302500I35000J0D01*
G01*
X13573200Y-9398000D02*
G75*
G03*
X13503200Y-9398000I-35000J0D01*
G01*
X13503200Y-9398000D02*
G75*
G03*
X13573200Y-9398000I35000J0D01*
G01*
X13827200Y-10261600D02*
G75*
G03*
X13757200Y-10261600I-35000J0D01*
G01*
X13757200Y-10261600D02*
G75*
G03*
X13827200Y-10261600I35000J0D01*
G01*
X13827200Y-10515600D02*
G75*
G03*
X13757200Y-10515600I-35000J0D01*
G01*
X13757200Y-10515600D02*
G75*
G03*
X13827200Y-10515600I35000J0D01*
G01*
X13827200Y-10769600D02*
G75*
G03*
X13757200Y-10769600I-35000J0D01*
G01*
X13757200Y-10769600D02*
G75*
G03*
X13827200Y-10769600I35000J0D01*
G01*
X13890700Y-8610600D02*
G75*
G03*
X13820700Y-8610600I-35000J0D01*
G01*
X13820700Y-8610600D02*
G75*
G03*
X13890700Y-8610600I35000J0D01*
G01*
X13890700Y-9372600D02*
G75*
G03*
X13820700Y-9372600I-35000J0D01*
G01*
X13820700Y-9372600D02*
G75*
G03*
X13890700Y-9372600I35000J0D01*
G01*
X14335200Y-9398000D02*
G75*
G03*
X14265200Y-9398000I-35000J0D01*
G01*
X14265200Y-9398000D02*
G75*
G03*
X14335200Y-9398000I35000J0D01*
G01*
X14398700Y-7023100D02*
G75*
G03*
X14328700Y-7023100I-35000J0D01*
G01*
X14328700Y-7023100D02*
G75*
G03*
X14398700Y-7023100I35000J0D01*
G01*
X14398700Y-10261600D02*
G75*
G03*
X14328700Y-10261600I-35000J0D01*
G01*
X14328700Y-10261600D02*
G75*
G03*
X14398700Y-10261600I35000J0D01*
G01*
X14398700Y-10515600D02*
G75*
G03*
X14328700Y-10515600I-35000J0D01*
G01*
X14328700Y-10515600D02*
G75*
G03*
X14398700Y-10515600I35000J0D01*
G01*
X14398700Y-10769600D02*
G75*
G03*
X14328700Y-10769600I-35000J0D01*
G01*
X14328700Y-10769600D02*
G75*
G03*
X14398700Y-10769600I35000J0D01*
G01*
X14906700Y-11912600D02*
G75*
G03*
X14836700Y-11912600I-35000J0D01*
G01*
X14836700Y-11912600D02*
G75*
G03*
X14906700Y-11912600I35000J0D01*
G01*
X14906700Y-12166600D02*
G75*
G03*
X14836700Y-12166600I-35000J0D01*
G01*
X14836700Y-12166600D02*
G75*
G03*
X14906700Y-12166600I35000J0D01*
G01*
X14906700Y-12420600D02*
G75*
G03*
X14836700Y-12420600I-35000J0D01*
G01*
X14836700Y-12420600D02*
G75*
G03*
X14906700Y-12420600I35000J0D01*
G01*
X14906700Y-12674600D02*
G75*
G03*
X14836700Y-12674600I-35000J0D01*
G01*
X14836700Y-12674600D02*
G75*
G03*
X14906700Y-12674600I35000J0D01*
G01*
X14906700Y-12928600D02*
G75*
G03*
X14836700Y-12928600I-35000J0D01*
G01*
X14836700Y-12928600D02*
G75*
G03*
X14906700Y-12928600I35000J0D01*
G01*
X14906700Y-13182600D02*
G75*
G03*
X14836700Y-13182600I-35000J0D01*
G01*
X14836700Y-13182600D02*
G75*
G03*
X14906700Y-13182600I35000J0D01*
G01*
X15097200Y-9398000D02*
G75*
G03*
X15027200Y-9398000I-35000J0D01*
G01*
X15027200Y-9398000D02*
G75*
G03*
X15097200Y-9398000I35000J0D01*
G01*
X15160700Y-7023100D02*
G75*
G03*
X15090700Y-7023100I-35000J0D01*
G01*
X15090700Y-7023100D02*
G75*
G03*
X15160700Y-7023100I35000J0D01*
G01*
X15160700Y-10261600D02*
G75*
G03*
X15090700Y-10261600I-35000J0D01*
G01*
X15090700Y-10261600D02*
G75*
G03*
X15160700Y-10261600I35000J0D01*
G01*
X15160700Y-10515600D02*
G75*
G03*
X15090700Y-10515600I-35000J0D01*
G01*
X15090700Y-10515600D02*
G75*
G03*
X15160700Y-10515600I35000J0D01*
G01*
X15160700Y-10769600D02*
G75*
G03*
X15090700Y-10769600I-35000J0D01*
G01*
X15090700Y-10769600D02*
G75*
G03*
X15160700Y-10769600I35000J0D01*
G01*
X15414700Y-8356600D02*
G75*
G03*
X15344700Y-8356600I-35000J0D01*
G01*
X15344700Y-8356600D02*
G75*
G03*
X15414700Y-8356600I35000J0D01*
G01*
X15414700Y-9118600D02*
G75*
G03*
X15344700Y-9118600I-35000J0D01*
G01*
X15344700Y-9118600D02*
G75*
G03*
X15414700Y-9118600I35000J0D01*
G01*
X15668700Y-7086600D02*
G75*
G03*
X15598700Y-7086600I-35000J0D01*
G01*
X15598700Y-7086600D02*
G75*
G03*
X15668700Y-7086600I35000J0D01*
G01*
X15668700Y-7848600D02*
G75*
G03*
X15598700Y-7848600I-35000J0D01*
G01*
X15598700Y-7848600D02*
G75*
G03*
X15668700Y-7848600I35000J0D01*
G01*
X15668700Y-8356600D02*
G75*
G03*
X15598700Y-8356600I-35000J0D01*
G01*
X15598700Y-8356600D02*
G75*
G03*
X15668700Y-8356600I35000J0D01*
G01*
X15668700Y-9118600D02*
G75*
G03*
X15598700Y-9118600I-35000J0D01*
G01*
X15598700Y-9118600D02*
G75*
G03*
X15668700Y-9118600I35000J0D01*
G01*
X15668700Y-11912600D02*
G75*
G03*
X15598700Y-11912600I-35000J0D01*
G01*
X15598700Y-11912600D02*
G75*
G03*
X15668700Y-11912600I35000J0D01*
G01*
X15668700Y-12166600D02*
G75*
G03*
X15598700Y-12166600I-35000J0D01*
G01*
X15598700Y-12166600D02*
G75*
G03*
X15668700Y-12166600I35000J0D01*
G01*
X15668700Y-12420600D02*
G75*
G03*
X15598700Y-12420600I-35000J0D01*
G01*
X15598700Y-12420600D02*
G75*
G03*
X15668700Y-12420600I35000J0D01*
G01*
X15668700Y-12674600D02*
G75*
G03*
X15598700Y-12674600I-35000J0D01*
G01*
X15598700Y-12674600D02*
G75*
G03*
X15668700Y-12674600I35000J0D01*
G01*
X15668700Y-12928600D02*
G75*
G03*
X15598700Y-12928600I-35000J0D01*
G01*
X15598700Y-12928600D02*
G75*
G03*
X15668700Y-12928600I35000J0D01*
G01*
X15668700Y-13182600D02*
G75*
G03*
X15598700Y-13182600I-35000J0D01*
G01*
X15598700Y-13182600D02*
G75*
G03*
X15668700Y-13182600I35000J0D01*
G01*
X15719500Y-9398000D02*
G75*
G03*
X15649500Y-9398000I-35000J0D01*
G01*
X15649500Y-9398000D02*
G75*
G03*
X15719500Y-9398000I35000J0D01*
G01*
X15732200Y-10261600D02*
G75*
G03*
X15662200Y-10261600I-35000J0D01*
G01*
X15662200Y-10261600D02*
G75*
G03*
X15732200Y-10261600I35000J0D01*
G01*
X15732200Y-10515600D02*
G75*
G03*
X15662200Y-10515600I-35000J0D01*
G01*
X15662200Y-10515600D02*
G75*
G03*
X15732200Y-10515600I35000J0D01*
G01*
X15732200Y-10769600D02*
G75*
G03*
X15662200Y-10769600I-35000J0D01*
G01*
X15662200Y-10769600D02*
G75*
G03*
X15732200Y-10769600I35000J0D01*
G01*
X15922700Y-7086600D02*
G75*
G03*
X15852700Y-7086600I-35000J0D01*
G01*
X15852700Y-7086600D02*
G75*
G03*
X15922700Y-7086600I35000J0D01*
G01*
X15922700Y-7848600D02*
G75*
G03*
X15852700Y-7848600I-35000J0D01*
G01*
X15852700Y-7848600D02*
G75*
G03*
X15922700Y-7848600I35000J0D01*
G01*
X15922700Y-11912600D02*
G75*
G03*
X15852700Y-11912600I-35000J0D01*
G01*
X15852700Y-11912600D02*
G75*
G03*
X15922700Y-11912600I35000J0D01*
G01*
X15922700Y-12166600D02*
G75*
G03*
X15852700Y-12166600I-35000J0D01*
G01*
X15852700Y-12166600D02*
G75*
G03*
X15922700Y-12166600I35000J0D01*
G01*
X15922700Y-12420600D02*
G75*
G03*
X15852700Y-12420600I-35000J0D01*
G01*
X15852700Y-12420600D02*
G75*
G03*
X15922700Y-12420600I35000J0D01*
G01*
X15922700Y-12674600D02*
G75*
G03*
X15852700Y-12674600I-35000J0D01*
G01*
X15852700Y-12674600D02*
G75*
G03*
X15922700Y-12674600I35000J0D01*
G01*
X15922700Y-12928600D02*
G75*
G03*
X15852700Y-12928600I-35000J0D01*
G01*
X15852700Y-12928600D02*
G75*
G03*
X15922700Y-12928600I35000J0D01*
G01*
X15922700Y-13182600D02*
G75*
G03*
X15852700Y-13182600I-35000J0D01*
G01*
X15852700Y-13182600D02*
G75*
G03*
X15922700Y-13182600I35000J0D01*
G01*
X16240200Y-7023100D02*
G75*
G03*
X16170200Y-7023100I-35000J0D01*
G01*
X16170200Y-7023100D02*
G75*
G03*
X16240200Y-7023100I35000J0D01*
G01*
X16481500Y-9398000D02*
G75*
G03*
X16411500Y-9398000I-35000J0D01*
G01*
X16411500Y-9398000D02*
G75*
G03*
X16481500Y-9398000I35000J0D01*
G01*
X16494200Y-10261600D02*
G75*
G03*
X16424200Y-10261600I-35000J0D01*
G01*
X16424200Y-10261600D02*
G75*
G03*
X16494200Y-10261600I35000J0D01*
G01*
X16494200Y-10515600D02*
G75*
G03*
X16424200Y-10515600I-35000J0D01*
G01*
X16424200Y-10515600D02*
G75*
G03*
X16494200Y-10515600I35000J0D01*
G01*
X16494200Y-10769600D02*
G75*
G03*
X16424200Y-10769600I-35000J0D01*
G01*
X16424200Y-10769600D02*
G75*
G03*
X16494200Y-10769600I35000J0D01*
G01*
X16684700Y-11912600D02*
G75*
G03*
X16614700Y-11912600I-35000J0D01*
G01*
X16614700Y-11912600D02*
G75*
G03*
X16684700Y-11912600I35000J0D01*
G01*
X16684700Y-12166600D02*
G75*
G03*
X16614700Y-12166600I-35000J0D01*
G01*
X16614700Y-12166600D02*
G75*
G03*
X16684700Y-12166600I35000J0D01*
G01*
X16684700Y-12420600D02*
G75*
G03*
X16614700Y-12420600I-35000J0D01*
G01*
X16614700Y-12420600D02*
G75*
G03*
X16684700Y-12420600I35000J0D01*
G01*
X16684700Y-12674600D02*
G75*
G03*
X16614700Y-12674600I-35000J0D01*
G01*
X16614700Y-12674600D02*
G75*
G03*
X16684700Y-12674600I35000J0D01*
G01*
X16684700Y-12928600D02*
G75*
G03*
X16614700Y-12928600I-35000J0D01*
G01*
X16614700Y-12928600D02*
G75*
G03*
X16684700Y-12928600I35000J0D01*
G01*
X16684700Y-13182600D02*
G75*
G03*
X16614700Y-13182600I-35000J0D01*
G01*
X16614700Y-13182600D02*
G75*
G03*
X16684700Y-13182600I35000J0D01*
G01*
X16748200Y-9398000D02*
G75*
G03*
X16678200Y-9398000I-35000J0D01*
G01*
X16678200Y-9398000D02*
G75*
G03*
X16748200Y-9398000I35000J0D01*
G01*
X16748200Y-10160000D02*
G75*
G03*
X16678200Y-10160000I-35000J0D01*
G01*
X16678200Y-10160000D02*
G75*
G03*
X16748200Y-10160000I35000J0D01*
G01*
X17002200Y-7023100D02*
G75*
G03*
X16932200Y-7023100I-35000J0D01*
G01*
X16932200Y-7023100D02*
G75*
G03*
X17002200Y-7023100I35000J0D01*
G01*
X17002200Y-10261600D02*
G75*
G03*
X16932200Y-10261600I-35000J0D01*
G01*
X16932200Y-10261600D02*
G75*
G03*
X17002200Y-10261600I35000J0D01*
G01*
X17002200Y-10515600D02*
G75*
G03*
X16932200Y-10515600I-35000J0D01*
G01*
X16932200Y-10515600D02*
G75*
G03*
X17002200Y-10515600I35000J0D01*
G01*
X17002200Y-10769600D02*
G75*
G03*
X16932200Y-10769600I-35000J0D01*
G01*
X16932200Y-10769600D02*
G75*
G03*
X17002200Y-10769600I35000J0D01*
G01*
X17319700Y-8102600D02*
G75*
G03*
X17249700Y-8102600I-35000J0D01*
G01*
X17249700Y-8102600D02*
G75*
G03*
X17319700Y-8102600I35000J0D01*
G01*
X17319700Y-8864600D02*
G75*
G03*
X17249700Y-8864600I-35000J0D01*
G01*
X17249700Y-8864600D02*
G75*
G03*
X17319700Y-8864600I35000J0D01*
G01*
X17573700Y-7086600D02*
G75*
G03*
X17503700Y-7086600I-35000J0D01*
G01*
X17503700Y-7086600D02*
G75*
G03*
X17573700Y-7086600I35000J0D01*
G01*
X17573700Y-7848600D02*
G75*
G03*
X17503700Y-7848600I-35000J0D01*
G01*
X17503700Y-7848600D02*
G75*
G03*
X17573700Y-7848600I35000J0D01*
G01*
X17764200Y-10261600D02*
G75*
G03*
X17694200Y-10261600I-35000J0D01*
G01*
X17694200Y-10261600D02*
G75*
G03*
X17764200Y-10261600I35000J0D01*
G01*
X17764200Y-10515600D02*
G75*
G03*
X17694200Y-10515600I-35000J0D01*
G01*
X17694200Y-10515600D02*
G75*
G03*
X17764200Y-10515600I35000J0D01*
G01*
X17764200Y-10769600D02*
G75*
G03*
X17694200Y-10769600I-35000J0D01*
G01*
X17694200Y-10769600D02*
G75*
G03*
X17764200Y-10769600I35000J0D01*
G01*
X11112500Y-10186000D02*
X11112500Y-10261000D01*
X11075000Y-10223500D02*
X11150000Y-10223500D01*
X11112500Y-10440000D02*
X11112500Y-10515000D01*
X11075000Y-10477500D02*
X11150000Y-10477500D01*
X11239500Y-10313000D02*
X11239500Y-10388000D01*
X11202000Y-10350500D02*
X11277000Y-10350500D01*
X13093700Y-9779600D02*
X13093700Y-9854600D01*
X13056200Y-9817100D02*
X13131200Y-9817100D01*
X13220700Y-9652600D02*
X13220700Y-9727600D01*
X13183200Y-9690100D02*
X13258200Y-9690100D01*
X13220700Y-9906600D02*
X13220700Y-9981600D01*
X13183200Y-9944100D02*
X13258200Y-9944100D01*
X14427200Y-9779600D02*
X14427200Y-9854600D01*
X14389700Y-9817100D02*
X14464700Y-9817100D01*
X14554200Y-9652600D02*
X14554200Y-9727600D01*
X14516700Y-9690100D02*
X14591700Y-9690100D01*
X14554200Y-9906600D02*
X14554200Y-9981600D01*
X14516700Y-9944100D02*
X14591700Y-9944100D01*
X15760700Y-9779600D02*
X15760700Y-9854600D01*
X15723200Y-9817100D02*
X15798200Y-9817100D01*
X15887700Y-9652600D02*
X15887700Y-9727600D01*
X15850200Y-9690100D02*
X15925200Y-9690100D01*
X15887700Y-9906600D02*
X15887700Y-9981600D01*
X15850200Y-9944100D02*
X15925200Y-9944100D01*
X17030700Y-9779600D02*
X17030700Y-9854600D01*
X16993200Y-9817100D02*
X17068200Y-9817100D01*
X17157700Y-9652600D02*
X17157700Y-9727600D01*
X17120200Y-9690100D02*
X17195200Y-9690100D01*
X17157700Y-9906600D02*
X17157700Y-9981600D01*
X17120200Y-9944100D02*
X17195200Y-9944100D01*
X18173700Y-10313000D02*
X18173700Y-10388000D01*
X18136200Y-10350500D02*
X18211200Y-10350500D01*
X18300700Y-10186000D02*
X18300700Y-10261000D01*
X18263200Y-10223500D02*
X18338200Y-10223500D01*
X18427700Y-10313000D02*
X18427700Y-10388000D01*
X18390200Y-10350500D02*
X18465200Y-10350500D01*
X10518485Y-10264485D02*
X10518485Y-10207916D01*
X10461916Y-10207916D01*
X10461916Y-10264485D01*
X10518485Y-10264485D01*
X10518485Y-10514485D02*
X10518485Y-10457916D01*
X10461916Y-10457916D01*
X10461916Y-10514485D01*
X10518485Y-10514485D01*
X11534484Y-11432884D02*
X11534484Y-11376315D01*
X11477915Y-11376315D01*
X11477915Y-11432884D01*
X11534484Y-11432884D01*
X11534484Y-11686884D02*
X11534484Y-11630315D01*
X11477915Y-11630315D01*
X11477915Y-11686884D01*
X11534484Y-11686884D01*
X11534484Y-11940884D02*
X11534484Y-11884315D01*
X11477915Y-11884315D01*
X11477915Y-11940884D01*
X11534484Y-11940884D01*
X11534484Y-12194884D02*
X11534484Y-12138315D01*
X11477915Y-12138315D01*
X11477915Y-12194884D01*
X11534484Y-12194884D01*
X11534484Y-12448884D02*
X11534484Y-12392315D01*
X11477915Y-12392315D01*
X11477915Y-12448884D01*
X11534484Y-12448884D01*
X11534484Y-12702884D02*
X11534484Y-12646315D01*
X11477915Y-12646315D01*
X11477915Y-12702884D01*
X11534484Y-12702884D01*
X11534484Y-12956884D02*
X11534484Y-12900315D01*
X11477915Y-12900315D01*
X11477915Y-12956884D01*
X11534484Y-12956884D01*
X11534484Y-13210884D02*
X11534484Y-13154315D01*
X11477915Y-13154315D01*
X11477915Y-13210884D01*
X11534484Y-13210884D01*
X11534484Y-13464884D02*
X11534484Y-13408315D01*
X11477915Y-13408315D01*
X11477915Y-13464884D01*
X11534484Y-13464884D01*
X11712284Y-10378785D02*
X11712284Y-10322216D01*
X11655715Y-10322216D01*
X11655715Y-10378785D01*
X11712284Y-10378785D01*
X11851984Y-13210884D02*
X11851984Y-13154315D01*
X11795415Y-13154315D01*
X11795415Y-13210884D01*
X11851984Y-13210884D01*
X11851984Y-13710884D02*
X11851984Y-13654315D01*
X11795415Y-13654315D01*
X11795415Y-13710884D01*
X11851984Y-13710884D01*
X11982984Y-8384884D02*
X11982984Y-8328315D01*
X11926415Y-8328315D01*
X11926415Y-8384884D01*
X11982984Y-8384884D01*
X12169484Y-11940884D02*
X12169484Y-11884315D01*
X12112915Y-11884315D01*
X12112915Y-11940884D01*
X12169484Y-11940884D01*
X12169484Y-12194884D02*
X12169484Y-12138315D01*
X12112915Y-12138315D01*
X12112915Y-12194884D01*
X12169484Y-12194884D01*
X12169484Y-12448884D02*
X12169484Y-12392315D01*
X12112915Y-12392315D01*
X12112915Y-12448884D01*
X12169484Y-12448884D01*
X12169484Y-12702884D02*
X12169484Y-12646315D01*
X12112915Y-12646315D01*
X12112915Y-12702884D01*
X12169484Y-12702884D01*
X12169484Y-12956884D02*
X12169484Y-12900315D01*
X12112915Y-12900315D01*
X12112915Y-12956884D01*
X12169484Y-12956884D01*
X12169484Y-13210884D02*
X12169484Y-13154315D01*
X12112915Y-13154315D01*
X12112915Y-13210884D01*
X12169484Y-13210884D01*
X12169484Y-13464884D02*
X12169484Y-13408315D01*
X12112915Y-13408315D01*
X12112915Y-13464884D01*
X12169484Y-13464884D01*
X12169484Y-13718884D02*
X12169484Y-13662315D01*
X12112915Y-13662315D01*
X12112915Y-13718884D01*
X12169484Y-13718884D01*
X12212284Y-10378785D02*
X12212284Y-10322216D01*
X12155715Y-10322216D01*
X12155715Y-10378785D01*
X12212284Y-10378785D01*
X12482984Y-8384884D02*
X12482984Y-8328315D01*
X12426415Y-8328315D01*
X12426415Y-8384884D01*
X12482984Y-8384884D01*
X12804484Y-7622884D02*
X12804484Y-7566315D01*
X12747915Y-7566315D01*
X12747915Y-7622884D01*
X12804484Y-7622884D01*
X12804484Y-7876884D02*
X12804484Y-7820315D01*
X12747915Y-7820315D01*
X12747915Y-7876884D01*
X12804484Y-7876884D01*
X12804484Y-8130884D02*
X12804484Y-8074315D01*
X12747915Y-8074315D01*
X12747915Y-8130884D01*
X12804484Y-8130884D01*
X12804484Y-8384884D02*
X12804484Y-8328315D01*
X12747915Y-8328315D01*
X12747915Y-8384884D01*
X12804484Y-8384884D01*
X12804484Y-8638885D02*
X12804484Y-8582316D01*
X12747915Y-8582316D01*
X12747915Y-8638885D01*
X12804484Y-8638885D01*
X12804484Y-8892885D02*
X12804484Y-8836316D01*
X12747915Y-8836316D01*
X12747915Y-8892885D01*
X12804484Y-8892885D01*
X12804484Y-9146885D02*
X12804484Y-9090316D01*
X12747915Y-9090316D01*
X12747915Y-9146885D01*
X12804484Y-9146885D01*
X12931484Y-11940884D02*
X12931484Y-11884315D01*
X12874915Y-11884315D01*
X12874915Y-11940884D01*
X12931484Y-11940884D01*
X12931484Y-12194884D02*
X12931484Y-12138315D01*
X12874915Y-12138315D01*
X12874915Y-12194884D01*
X12931484Y-12194884D01*
X12931484Y-12448884D02*
X12931484Y-12392315D01*
X12874915Y-12392315D01*
X12874915Y-12448884D01*
X12931484Y-12448884D01*
X12931484Y-12702884D02*
X12931484Y-12646315D01*
X12874915Y-12646315D01*
X12874915Y-12702884D01*
X12931484Y-12702884D01*
X12931484Y-12956884D02*
X12931484Y-12900315D01*
X12874915Y-12900315D01*
X12874915Y-12956884D01*
X12931484Y-12956884D01*
X12931484Y-13210884D02*
X12931484Y-13154315D01*
X12874915Y-13154315D01*
X12874915Y-13210884D01*
X12931484Y-13210884D01*
X12931484Y-13464884D02*
X12931484Y-13408315D01*
X12874915Y-13408315D01*
X12874915Y-13464884D01*
X12931484Y-13464884D01*
X12931484Y-13718884D02*
X12931484Y-13662315D01*
X12874915Y-13662315D01*
X12874915Y-13718884D01*
X12931484Y-13718884D01*
X13312484Y-13214884D02*
X13312484Y-13158315D01*
X13255915Y-13158315D01*
X13255915Y-13214884D01*
X13312484Y-13214884D01*
X13312484Y-13714884D02*
X13312484Y-13658315D01*
X13255915Y-13658315D01*
X13255915Y-13714884D01*
X13312484Y-13714884D01*
X13566484Y-7622884D02*
X13566484Y-7566315D01*
X13509915Y-7566315D01*
X13509915Y-7622884D01*
X13566484Y-7622884D01*
X13566484Y-7876884D02*
X13566484Y-7820315D01*
X13509915Y-7820315D01*
X13509915Y-7876884D01*
X13566484Y-7876884D01*
X13566484Y-8130884D02*
X13566484Y-8074315D01*
X13509915Y-8074315D01*
X13509915Y-8130884D01*
X13566484Y-8130884D01*
X13566484Y-8384884D02*
X13566484Y-8328315D01*
X13509915Y-8328315D01*
X13509915Y-8384884D01*
X13566484Y-8384884D01*
X13566484Y-8638885D02*
X13566484Y-8582316D01*
X13509915Y-8582316D01*
X13509915Y-8638885D01*
X13566484Y-8638885D01*
X13566484Y-8892885D02*
X13566484Y-8836316D01*
X13509915Y-8836316D01*
X13509915Y-8892885D01*
X13566484Y-8892885D01*
X13566484Y-9146885D02*
X13566484Y-9090316D01*
X13509915Y-9090316D01*
X13509915Y-9146885D01*
X13566484Y-9146885D01*
X13629984Y-11940884D02*
X13629984Y-11884315D01*
X13573415Y-11884315D01*
X13573415Y-11940884D01*
X13629984Y-11940884D01*
X13629984Y-12194884D02*
X13629984Y-12138315D01*
X13573415Y-12138315D01*
X13573415Y-12194884D01*
X13629984Y-12194884D01*
X13629984Y-12448884D02*
X13629984Y-12392315D01*
X13573415Y-12392315D01*
X13573415Y-12448884D01*
X13629984Y-12448884D01*
X13629984Y-12702884D02*
X13629984Y-12646315D01*
X13573415Y-12646315D01*
X13573415Y-12702884D01*
X13629984Y-12702884D01*
X13629984Y-12956884D02*
X13629984Y-12900315D01*
X13573415Y-12900315D01*
X13573415Y-12956884D01*
X13629984Y-12956884D01*
X13629984Y-13210884D02*
X13629984Y-13154315D01*
X13573415Y-13154315D01*
X13573415Y-13210884D01*
X13629984Y-13210884D01*
X13629984Y-13464884D02*
X13629984Y-13408315D01*
X13573415Y-13408315D01*
X13573415Y-13464884D01*
X13629984Y-13464884D01*
X13629984Y-13718884D02*
X13629984Y-13662315D01*
X13573415Y-13662315D01*
X13573415Y-13718884D01*
X13629984Y-13718884D01*
X13883984Y-7876884D02*
X13883984Y-7820315D01*
X13827415Y-7820315D01*
X13827415Y-7876884D01*
X13883984Y-7876884D01*
X13883984Y-8376884D02*
X13883984Y-8320315D01*
X13827415Y-8320315D01*
X13827415Y-8376884D01*
X13883984Y-8376884D01*
X14328484Y-7368884D02*
X14328484Y-7312315D01*
X14271915Y-7312315D01*
X14271915Y-7368884D01*
X14328484Y-7368884D01*
X14328484Y-7622884D02*
X14328484Y-7566315D01*
X14271915Y-7566315D01*
X14271915Y-7622884D01*
X14328484Y-7622884D01*
X14328484Y-7876884D02*
X14328484Y-7820315D01*
X14271915Y-7820315D01*
X14271915Y-7876884D01*
X14328484Y-7876884D01*
X14328484Y-8130884D02*
X14328484Y-8074315D01*
X14271915Y-8074315D01*
X14271915Y-8130884D01*
X14328484Y-8130884D01*
X14328484Y-8384884D02*
X14328484Y-8328315D01*
X14271915Y-8328315D01*
X14271915Y-8384884D01*
X14328484Y-8384884D01*
X14328484Y-8638885D02*
X14328484Y-8582316D01*
X14271915Y-8582316D01*
X14271915Y-8638885D01*
X14328484Y-8638885D01*
X14328484Y-8892885D02*
X14328484Y-8836316D01*
X14271915Y-8836316D01*
X14271915Y-8892885D01*
X14328484Y-8892885D01*
X14328484Y-9146885D02*
X14328484Y-9090316D01*
X14271915Y-9090316D01*
X14271915Y-9146885D01*
X14328484Y-9146885D01*
X14391984Y-11940884D02*
X14391984Y-11884315D01*
X14335415Y-11884315D01*
X14335415Y-11940884D01*
X14391984Y-11940884D01*
X14391984Y-12194884D02*
X14391984Y-12138315D01*
X14335415Y-12138315D01*
X14335415Y-12194884D01*
X14391984Y-12194884D01*
X14391984Y-12448884D02*
X14391984Y-12392315D01*
X14335415Y-12392315D01*
X14335415Y-12448884D01*
X14391984Y-12448884D01*
X14391984Y-12702884D02*
X14391984Y-12646315D01*
X14335415Y-12646315D01*
X14335415Y-12702884D01*
X14391984Y-12702884D01*
X14391984Y-12956884D02*
X14391984Y-12900315D01*
X14335415Y-12900315D01*
X14335415Y-12956884D01*
X14391984Y-12956884D01*
X14391984Y-13210884D02*
X14391984Y-13154315D01*
X14335415Y-13154315D01*
X14335415Y-13210884D01*
X14391984Y-13210884D01*
X14391984Y-13464884D02*
X14391984Y-13408315D01*
X14335415Y-13408315D01*
X14335415Y-13464884D01*
X14391984Y-13464884D01*
X14391984Y-13718884D02*
X14391984Y-13662315D01*
X14335415Y-13662315D01*
X14335415Y-13718884D01*
X14391984Y-13718884D01*
X15090484Y-7368884D02*
X15090484Y-7312315D01*
X15033915Y-7312315D01*
X15033915Y-7368884D01*
X15090484Y-7368884D01*
X15090484Y-7622884D02*
X15090484Y-7566315D01*
X15033915Y-7566315D01*
X15033915Y-7622884D01*
X15090484Y-7622884D01*
X15090484Y-7876884D02*
X15090484Y-7820315D01*
X15033915Y-7820315D01*
X15033915Y-7876884D01*
X15090484Y-7876884D01*
X15090484Y-8130884D02*
X15090484Y-8074315D01*
X15033915Y-8074315D01*
X15033915Y-8130884D01*
X15090484Y-8130884D01*
X15090484Y-8384884D02*
X15090484Y-8328315D01*
X15033915Y-8328315D01*
X15033915Y-8384884D01*
X15090484Y-8384884D01*
X15090484Y-8638885D02*
X15090484Y-8582316D01*
X15033915Y-8582316D01*
X15033915Y-8638885D01*
X15090484Y-8638885D01*
X15090484Y-8892885D02*
X15090484Y-8836316D01*
X15033915Y-8836316D01*
X15033915Y-8892885D01*
X15090484Y-8892885D01*
X15090484Y-9146885D02*
X15090484Y-9090316D01*
X15033915Y-9090316D01*
X15033915Y-9146885D01*
X15090484Y-9146885D01*
X15407984Y-7372884D02*
X15407984Y-7316315D01*
X15351415Y-7316315D01*
X15351415Y-7372884D01*
X15407984Y-7372884D01*
X15407984Y-7872884D02*
X15407984Y-7816315D01*
X15351415Y-7816315D01*
X15351415Y-7872884D01*
X15407984Y-7872884D01*
X16233484Y-7368884D02*
X16233484Y-7312315D01*
X16176915Y-7312315D01*
X16176915Y-7368884D01*
X16233484Y-7368884D01*
X16233484Y-7622884D02*
X16233484Y-7566315D01*
X16176915Y-7566315D01*
X16176915Y-7622884D01*
X16233484Y-7622884D01*
X16233484Y-7876884D02*
X16233484Y-7820315D01*
X16176915Y-7820315D01*
X16176915Y-7876884D01*
X16233484Y-7876884D01*
X16233484Y-8130884D02*
X16233484Y-8074315D01*
X16176915Y-8074315D01*
X16176915Y-8130884D01*
X16233484Y-8130884D01*
X16233484Y-8384884D02*
X16233484Y-8328315D01*
X16176915Y-8328315D01*
X16176915Y-8384884D01*
X16233484Y-8384884D01*
X16233484Y-8638885D02*
X16233484Y-8582316D01*
X16176915Y-8582316D01*
X16176915Y-8638885D01*
X16233484Y-8638885D01*
X16233484Y-8892885D02*
X16233484Y-8836316D01*
X16176915Y-8836316D01*
X16176915Y-8892885D01*
X16233484Y-8892885D01*
X16233484Y-9146885D02*
X16233484Y-9090316D01*
X16176915Y-9090316D01*
X16176915Y-9146885D01*
X16233484Y-9146885D01*
X16995485Y-7368884D02*
X16995485Y-7312315D01*
X16938916Y-7312315D01*
X16938916Y-7368884D01*
X16995485Y-7368884D01*
X16995485Y-7622884D02*
X16995485Y-7566315D01*
X16938916Y-7566315D01*
X16938916Y-7622884D01*
X16995485Y-7622884D01*
X16995485Y-7876884D02*
X16995485Y-7820315D01*
X16938916Y-7820315D01*
X16938916Y-7876884D01*
X16995485Y-7876884D01*
X16995485Y-8130884D02*
X16995485Y-8074315D01*
X16938916Y-8074315D01*
X16938916Y-8130884D01*
X16995485Y-8130884D01*
X16995485Y-8384884D02*
X16995485Y-8328315D01*
X16938916Y-8328315D01*
X16938916Y-8384884D01*
X16995485Y-8384884D01*
X16995485Y-8638885D02*
X16995485Y-8582316D01*
X16938916Y-8582316D01*
X16938916Y-8638885D01*
X16995485Y-8638885D01*
X16995485Y-8892885D02*
X16995485Y-8836316D01*
X16938916Y-8836316D01*
X16938916Y-8892885D01*
X16995485Y-8892885D01*
X16995485Y-9146885D02*
X16995485Y-9090316D01*
X16938916Y-9090316D01*
X16938916Y-9146885D01*
X16995485Y-9146885D01*
X17058985Y-12194884D02*
X17058985Y-12138315D01*
X17002416Y-12138315D01*
X17002416Y-12194884D01*
X17058985Y-12194884D01*
X17058985Y-12702884D02*
X17058985Y-12646315D01*
X17002416Y-12646315D01*
X17002416Y-12702884D01*
X17058985Y-12702884D01*
X17308985Y-12194884D02*
X17308985Y-12138315D01*
X17252416Y-12138315D01*
X17252416Y-12194884D01*
X17308985Y-12194884D01*
X17312985Y-7372884D02*
X17312985Y-7316315D01*
X17256416Y-7316315D01*
X17256416Y-7372884D01*
X17312985Y-7372884D01*
X17312985Y-7872884D02*
X17312985Y-7816315D01*
X17256416Y-7816315D01*
X17256416Y-7872884D01*
X17312985Y-7872884D01*
X17748785Y-9743785D02*
X17748785Y-9687216D01*
X17692216Y-9687216D01*
X17692216Y-9743785D01*
X17748785Y-9743785D01*
X17820985Y-12702884D02*
X17820985Y-12646315D01*
X17764416Y-12646315D01*
X17764416Y-12702884D01*
X17820985Y-12702884D01*
X17998785Y-9743785D02*
X17998785Y-9687216D01*
X17942216Y-9687216D01*
X17942216Y-9743785D01*
X17998785Y-9743785D01*
X18074985Y-12702884D02*
X18074985Y-12646315D01*
X18018416Y-12646315D01*
X18018416Y-12702884D01*
X18074985Y-12702884D01*
X18506785Y-10759785D02*
X18506785Y-10703216D01*
X18450216Y-10703216D01*
X18450216Y-10759785D01*
X18506785Y-10759785D01*
X18586985Y-12194884D02*
X18586985Y-12138315D01*
X18530416Y-12138315D01*
X18530416Y-12194884D01*
X18586985Y-12194884D01*
X18836985Y-12194884D02*
X18836985Y-12138315D01*
X18780416Y-12138315D01*
X18780416Y-12194884D01*
X18836985Y-12194884D01*
X18836985Y-12702884D02*
X18836985Y-12646315D01*
X18780416Y-12646315D01*
X18780416Y-12702884D01*
X18836985Y-12702884D01*
X19006785Y-10759785D02*
X19006785Y-10703216D01*
X18950216Y-10703216D01*
X18950216Y-10759785D01*
X19006785Y-10759785D01*
X12391800Y-5604600D02*
X12436800Y-5559600D01*
X12391800Y-5514600D01*
X12346800Y-5559600D01*
X12391800Y-5604600D01*
X12391800Y-5858600D02*
X12436800Y-5813600D01*
X12391800Y-5768600D01*
X12346800Y-5813600D01*
X12391800Y-5858600D01*
X15566800Y-5604600D02*
X15611800Y-5559600D01*
X15566800Y-5514600D01*
X15521800Y-5559600D01*
X15566800Y-5604600D01*
X15566800Y-5858600D02*
X15611800Y-5813600D01*
X15566800Y-5768600D01*
X15521800Y-5813600D01*
X15566800Y-5858600D01*
X18738400Y-5612200D02*
X18783400Y-5567200D01*
X18738400Y-5522200D01*
X18693400Y-5567200D01*
X18738400Y-5612200D01*
X18738400Y-5866200D02*
X18783400Y-5821200D01*
X18738400Y-5776200D01*
X18693400Y-5821200D01*
X18738400Y-5866200D01*
X9935600Y-5512600D02*
X10035600Y-5612600D01*
X10035600Y-5512600D02*
X9935600Y-5612600D01*
X10035600Y-5562600D02*
G75*
G03*
X9935600Y-5562600I-50000J0D01*
G01*
X9935600Y-5562600D02*
G75*
G03*
X10035600Y-5562600I50000J0D01*
G01*
X9935600Y-5766600D02*
X10035600Y-5866600D01*
X10035600Y-5766600D02*
X9935600Y-5866600D01*
X10035600Y-5816600D02*
G75*
G03*
X9935600Y-5816600I-50000J0D01*
G01*
X9935600Y-5816600D02*
G75*
G03*
X10035600Y-5816600I50000J0D01*
G01*
X9995700Y-11354600D02*
X10095700Y-11454600D01*
X10095700Y-11354600D02*
X9995700Y-11454600D01*
X10095700Y-11404600D02*
G75*
G03*
X9995700Y-11404600I-50000J0D01*
G01*
X9995700Y-11404600D02*
G75*
G03*
X10095700Y-11404600I50000J0D01*
G01*
X9995700Y-11608600D02*
X10095700Y-11708600D01*
X10095700Y-11608600D02*
X9995700Y-11708600D01*
X10095700Y-11658600D02*
G75*
G03*
X9995700Y-11658600I-50000J0D01*
G01*
X9995700Y-11658600D02*
G75*
G03*
X10095700Y-11658600I50000J0D01*
G01*
X9995700Y-11862600D02*
X10095700Y-11962600D01*
X10095700Y-11862600D02*
X9995700Y-11962600D01*
X10095700Y-11912600D02*
G75*
G03*
X9995700Y-11912600I-50000J0D01*
G01*
X9995700Y-11912600D02*
G75*
G03*
X10095700Y-11912600I50000J0D01*
G01*
X9995700Y-12116600D02*
X10095700Y-12216600D01*
X10095700Y-12116600D02*
X9995700Y-12216600D01*
X10095700Y-12166600D02*
G75*
G03*
X9995700Y-12166600I-50000J0D01*
G01*
X9995700Y-12166600D02*
G75*
G03*
X10095700Y-12166600I50000J0D01*
G01*
X9995700Y-12370600D02*
X10095700Y-12470600D01*
X10095700Y-12370600D02*
X9995700Y-12470600D01*
X10095700Y-12420600D02*
G75*
G03*
X9995700Y-12420600I-50000J0D01*
G01*
X9995700Y-12420600D02*
G75*
G03*
X10095700Y-12420600I50000J0D01*
G01*
X9995700Y-12624600D02*
X10095700Y-12724600D01*
X10095700Y-12624600D02*
X9995700Y-12724600D01*
X10095700Y-12674600D02*
G75*
G03*
X9995700Y-12674600I-50000J0D01*
G01*
X9995700Y-12674600D02*
G75*
G03*
X10095700Y-12674600I50000J0D01*
G01*
X9995700Y-12878600D02*
X10095700Y-12978600D01*
X10095700Y-12878600D02*
X9995700Y-12978600D01*
X10095700Y-12928600D02*
G75*
G03*
X9995700Y-12928600I-50000J0D01*
G01*
X9995700Y-12928600D02*
G75*
G03*
X10095700Y-12928600I50000J0D01*
G01*
X10189600Y-5512600D02*
X10289600Y-5612600D01*
X10289600Y-5512600D02*
X10189600Y-5612600D01*
X10289600Y-5562600D02*
G75*
G03*
X10189600Y-5562600I-50000J0D01*
G01*
X10189600Y-5562600D02*
G75*
G03*
X10289600Y-5562600I50000J0D01*
G01*
X10189600Y-5766600D02*
X10289600Y-5866600D01*
X10289600Y-5766600D02*
X10189600Y-5866600D01*
X10289600Y-5816600D02*
G75*
G03*
X10189600Y-5816600I-50000J0D01*
G01*
X10189600Y-5816600D02*
G75*
G03*
X10289600Y-5816600I50000J0D01*
G01*
X10249700Y-7544600D02*
X10349700Y-7644600D01*
X10349700Y-7544600D02*
X10249700Y-7644600D01*
X10349700Y-7594600D02*
G75*
G03*
X10249700Y-7594600I-50000J0D01*
G01*
X10249700Y-7594600D02*
G75*
G03*
X10349700Y-7594600I50000J0D01*
G01*
X10249700Y-7798600D02*
X10349700Y-7898600D01*
X10349700Y-7798600D02*
X10249700Y-7898600D01*
X10349700Y-7848600D02*
G75*
G03*
X10249700Y-7848600I-50000J0D01*
G01*
X10249700Y-7848600D02*
G75*
G03*
X10349700Y-7848600I50000J0D01*
G01*
X10249700Y-8052600D02*
X10349700Y-8152600D01*
X10349700Y-8052600D02*
X10249700Y-8152600D01*
X10349700Y-8102600D02*
G75*
G03*
X10249700Y-8102600I-50000J0D01*
G01*
X10249700Y-8102600D02*
G75*
G03*
X10349700Y-8102600I50000J0D01*
G01*
X10249700Y-8306600D02*
X10349700Y-8406600D01*
X10349700Y-8306600D02*
X10249700Y-8406600D01*
X10349700Y-8356600D02*
G75*
G03*
X10249700Y-8356600I-50000J0D01*
G01*
X10249700Y-8356600D02*
G75*
G03*
X10349700Y-8356600I50000J0D01*
G01*
X10249700Y-8560600D02*
X10349700Y-8660600D01*
X10349700Y-8560600D02*
X10249700Y-8660600D01*
X10349700Y-8610600D02*
G75*
G03*
X10249700Y-8610600I-50000J0D01*
G01*
X10249700Y-8610600D02*
G75*
G03*
X10349700Y-8610600I50000J0D01*
G01*
X10249700Y-8814600D02*
X10349700Y-8914600D01*
X10349700Y-8814600D02*
X10249700Y-8914600D01*
X10349700Y-8864600D02*
G75*
G03*
X10249700Y-8864600I-50000J0D01*
G01*
X10249700Y-8864600D02*
G75*
G03*
X10349700Y-8864600I50000J0D01*
G01*
X10249700Y-9068600D02*
X10349700Y-9168600D01*
X10349700Y-9068600D02*
X10249700Y-9168600D01*
X10349700Y-9118600D02*
G75*
G03*
X10249700Y-9118600I-50000J0D01*
G01*
X10249700Y-9118600D02*
G75*
G03*
X10349700Y-9118600I50000J0D01*
G01*
X10443600Y-5512600D02*
X10543600Y-5612600D01*
X10543600Y-5512600D02*
X10443600Y-5612600D01*
X10543600Y-5562600D02*
G75*
G03*
X10443600Y-5562600I-50000J0D01*
G01*
X10443600Y-5562600D02*
G75*
G03*
X10543600Y-5562600I50000J0D01*
G01*
X10443600Y-5766600D02*
X10543600Y-5866600D01*
X10543600Y-5766600D02*
X10443600Y-5866600D01*
X10543600Y-5816600D02*
G75*
G03*
X10443600Y-5816600I-50000J0D01*
G01*
X10443600Y-5816600D02*
G75*
G03*
X10543600Y-5816600I50000J0D01*
G01*
X10951600Y-5512600D02*
X11051600Y-5612600D01*
X11051600Y-5512600D02*
X10951600Y-5612600D01*
X11051600Y-5562600D02*
G75*
G03*
X10951600Y-5562600I-50000J0D01*
G01*
X10951600Y-5562600D02*
G75*
G03*
X11051600Y-5562600I50000J0D01*
G01*
X10951600Y-5766600D02*
X11051600Y-5866600D01*
X11051600Y-5766600D02*
X10951600Y-5866600D01*
X11051600Y-5816600D02*
G75*
G03*
X10951600Y-5816600I-50000J0D01*
G01*
X10951600Y-5816600D02*
G75*
G03*
X11051600Y-5816600I50000J0D01*
G01*
X11205600Y-5512600D02*
X11305600Y-5612600D01*
X11305600Y-5512600D02*
X11205600Y-5612600D01*
X11305600Y-5562600D02*
G75*
G03*
X11205600Y-5562600I-50000J0D01*
G01*
X11205600Y-5562600D02*
G75*
G03*
X11305600Y-5562600I50000J0D01*
G01*
X11205600Y-5766600D02*
X11305600Y-5866600D01*
X11305600Y-5766600D02*
X11205600Y-5866600D01*
X11305600Y-5816600D02*
G75*
G03*
X11205600Y-5816600I-50000J0D01*
G01*
X11205600Y-5816600D02*
G75*
G03*
X11305600Y-5816600I50000J0D01*
G01*
X12154700Y-11354600D02*
X12254700Y-11454600D01*
X12254700Y-11354600D02*
X12154700Y-11454600D01*
X12254700Y-11404600D02*
G75*
G03*
X12154700Y-11404600I-50000J0D01*
G01*
X12154700Y-11404600D02*
G75*
G03*
X12254700Y-11404600I50000J0D01*
G01*
X12408700Y-11354600D02*
X12508700Y-11454600D01*
X12508700Y-11354600D02*
X12408700Y-11454600D01*
X12508700Y-11404600D02*
G75*
G03*
X12408700Y-11404600I-50000J0D01*
G01*
X12408700Y-11404600D02*
G75*
G03*
X12508700Y-11404600I50000J0D01*
G01*
X12662700Y-11354600D02*
X12762700Y-11454600D01*
X12762700Y-11354600D02*
X12662700Y-11454600D01*
X12762700Y-11404600D02*
G75*
G03*
X12662700Y-11404600I-50000J0D01*
G01*
X12662700Y-11404600D02*
G75*
G03*
X12762700Y-11404600I50000J0D01*
G01*
X13110600Y-5509600D02*
X13210600Y-5609600D01*
X13210600Y-5509600D02*
X13110600Y-5609600D01*
X13210600Y-5559600D02*
G75*
G03*
X13110600Y-5559600I-50000J0D01*
G01*
X13110600Y-5559600D02*
G75*
G03*
X13210600Y-5559600I50000J0D01*
G01*
X13110600Y-5763600D02*
X13210600Y-5863600D01*
X13210600Y-5763600D02*
X13110600Y-5863600D01*
X13210600Y-5813600D02*
G75*
G03*
X13110600Y-5813600I-50000J0D01*
G01*
X13110600Y-5813600D02*
G75*
G03*
X13210600Y-5813600I50000J0D01*
G01*
X13364600Y-5509600D02*
X13464600Y-5609600D01*
X13464600Y-5509600D02*
X13364600Y-5609600D01*
X13464600Y-5559600D02*
G75*
G03*
X13364600Y-5559600I-50000J0D01*
G01*
X13364600Y-5559600D02*
G75*
G03*
X13464600Y-5559600I50000J0D01*
G01*
X13364600Y-5763600D02*
X13464600Y-5863600D01*
X13464600Y-5763600D02*
X13364600Y-5863600D01*
X13464600Y-5813600D02*
G75*
G03*
X13364600Y-5813600I-50000J0D01*
G01*
X13364600Y-5813600D02*
G75*
G03*
X13464600Y-5813600I50000J0D01*
G01*
X13618600Y-5509600D02*
X13718600Y-5609600D01*
X13718600Y-5509600D02*
X13618600Y-5609600D01*
X13718600Y-5559600D02*
G75*
G03*
X13618600Y-5559600I-50000J0D01*
G01*
X13618600Y-5559600D02*
G75*
G03*
X13718600Y-5559600I50000J0D01*
G01*
X13618600Y-5763600D02*
X13718600Y-5863600D01*
X13718600Y-5763600D02*
X13618600Y-5863600D01*
X13718600Y-5813600D02*
G75*
G03*
X13618600Y-5813600I-50000J0D01*
G01*
X13618600Y-5813600D02*
G75*
G03*
X13718600Y-5813600I50000J0D01*
G01*
X14126600Y-5509600D02*
X14226600Y-5609600D01*
X14226600Y-5509600D02*
X14126600Y-5609600D01*
X14226600Y-5559600D02*
G75*
G03*
X14126600Y-5559600I-50000J0D01*
G01*
X14126600Y-5559600D02*
G75*
G03*
X14226600Y-5559600I50000J0D01*
G01*
X14126600Y-5763600D02*
X14226600Y-5863600D01*
X14226600Y-5763600D02*
X14126600Y-5863600D01*
X14226600Y-5813600D02*
G75*
G03*
X14126600Y-5813600I-50000J0D01*
G01*
X14126600Y-5813600D02*
G75*
G03*
X14226600Y-5813600I50000J0D01*
G01*
X14250200Y-11164100D02*
X14350200Y-11264100D01*
X14350200Y-11164100D02*
X14250200Y-11264100D01*
X14350200Y-11214100D02*
G75*
G03*
X14250200Y-11214100I-50000J0D01*
G01*
X14250200Y-11214100D02*
G75*
G03*
X14350200Y-11214100I50000J0D01*
G01*
X14380600Y-5509600D02*
X14480600Y-5609600D01*
X14480600Y-5509600D02*
X14380600Y-5609600D01*
X14480600Y-5559600D02*
G75*
G03*
X14380600Y-5559600I-50000J0D01*
G01*
X14380600Y-5559600D02*
G75*
G03*
X14480600Y-5559600I50000J0D01*
G01*
X14380600Y-5763600D02*
X14480600Y-5863600D01*
X14480600Y-5763600D02*
X14380600Y-5863600D01*
X14480600Y-5813600D02*
G75*
G03*
X14380600Y-5813600I-50000J0D01*
G01*
X14380600Y-5813600D02*
G75*
G03*
X14480600Y-5813600I50000J0D01*
G01*
X14504200Y-11164100D02*
X14604200Y-11264100D01*
X14604200Y-11164100D02*
X14504200Y-11264100D01*
X14604200Y-11214100D02*
G75*
G03*
X14504200Y-11214100I-50000J0D01*
G01*
X14504200Y-11214100D02*
G75*
G03*
X14604200Y-11214100I50000J0D01*
G01*
X14758200Y-11164100D02*
X14858200Y-11264100D01*
X14858200Y-11164100D02*
X14758200Y-11264100D01*
X14858200Y-11214100D02*
G75*
G03*
X14758200Y-11214100I-50000J0D01*
G01*
X14758200Y-11214100D02*
G75*
G03*
X14858200Y-11214100I50000J0D01*
G01*
X14948700Y-13640600D02*
X15048700Y-13740600D01*
X15048700Y-13640600D02*
X14948700Y-13740600D01*
X15048700Y-13690600D02*
G75*
G03*
X14948700Y-13690600I-50000J0D01*
G01*
X14948700Y-13690600D02*
G75*
G03*
X15048700Y-13690600I50000J0D01*
G01*
X15012200Y-11164100D02*
X15112200Y-11264100D01*
X15112200Y-11164100D02*
X15012200Y-11264100D01*
X15112200Y-11214100D02*
G75*
G03*
X15012200Y-11214100I-50000J0D01*
G01*
X15012200Y-11214100D02*
G75*
G03*
X15112200Y-11214100I50000J0D01*
G01*
X15075700Y-6592100D02*
X15175700Y-6692100D01*
X15175700Y-6592100D02*
X15075700Y-6692100D01*
X15175700Y-6642100D02*
G75*
G03*
X15075700Y-6642100I-50000J0D01*
G01*
X15075700Y-6642100D02*
G75*
G03*
X15175700Y-6642100I50000J0D01*
G01*
X15202700Y-13640600D02*
X15302700Y-13740600D01*
X15302700Y-13640600D02*
X15202700Y-13740600D01*
X15302700Y-13690600D02*
G75*
G03*
X15202700Y-13690600I-50000J0D01*
G01*
X15202700Y-13690600D02*
G75*
G03*
X15302700Y-13690600I50000J0D01*
G01*
X15266200Y-11164100D02*
X15366200Y-11264100D01*
X15366200Y-11164100D02*
X15266200Y-11264100D01*
X15366200Y-11214100D02*
G75*
G03*
X15266200Y-11214100I-50000J0D01*
G01*
X15266200Y-11214100D02*
G75*
G03*
X15366200Y-11214100I50000J0D01*
G01*
X15329700Y-6592100D02*
X15429700Y-6692100D01*
X15429700Y-6592100D02*
X15329700Y-6692100D01*
X15429700Y-6642100D02*
G75*
G03*
X15329700Y-6642100I-50000J0D01*
G01*
X15329700Y-6642100D02*
G75*
G03*
X15429700Y-6642100I50000J0D01*
G01*
X15456700Y-13640600D02*
X15556700Y-13740600D01*
X15556700Y-13640600D02*
X15456700Y-13740600D01*
X15556700Y-13690600D02*
G75*
G03*
X15456700Y-13690600I-50000J0D01*
G01*
X15456700Y-13690600D02*
G75*
G03*
X15556700Y-13690600I50000J0D01*
G01*
X15520200Y-11164100D02*
X15620200Y-11264100D01*
X15620200Y-11164100D02*
X15520200Y-11264100D01*
X15620200Y-11214100D02*
G75*
G03*
X15520200Y-11214100I-50000J0D01*
G01*
X15520200Y-11214100D02*
G75*
G03*
X15620200Y-11214100I50000J0D01*
G01*
X15583700Y-6592100D02*
X15683700Y-6692100D01*
X15683700Y-6592100D02*
X15583700Y-6692100D01*
X15683700Y-6642100D02*
G75*
G03*
X15583700Y-6642100I-50000J0D01*
G01*
X15583700Y-6642100D02*
G75*
G03*
X15683700Y-6642100I50000J0D01*
G01*
X15710700Y-13640600D02*
X15810700Y-13740600D01*
X15810700Y-13640600D02*
X15710700Y-13740600D01*
X15810700Y-13690600D02*
G75*
G03*
X15710700Y-13690600I-50000J0D01*
G01*
X15710700Y-13690600D02*
G75*
G03*
X15810700Y-13690600I50000J0D01*
G01*
X15774200Y-11164100D02*
X15874200Y-11264100D01*
X15874200Y-11164100D02*
X15774200Y-11264100D01*
X15874200Y-11214100D02*
G75*
G03*
X15774200Y-11214100I-50000J0D01*
G01*
X15774200Y-11214100D02*
G75*
G03*
X15874200Y-11214100I50000J0D01*
G01*
X15837700Y-6592100D02*
X15937700Y-6692100D01*
X15937700Y-6592100D02*
X15837700Y-6692100D01*
X15937700Y-6642100D02*
G75*
G03*
X15837700Y-6642100I-50000J0D01*
G01*
X15837700Y-6642100D02*
G75*
G03*
X15937700Y-6642100I50000J0D01*
G01*
X15964700Y-13640600D02*
X16064700Y-13740600D01*
X16064700Y-13640600D02*
X15964700Y-13740600D01*
X16064700Y-13690600D02*
G75*
G03*
X15964700Y-13690600I-50000J0D01*
G01*
X15964700Y-13690600D02*
G75*
G03*
X16064700Y-13690600I50000J0D01*
G01*
X16028200Y-11164100D02*
X16128200Y-11264100D01*
X16128200Y-11164100D02*
X16028200Y-11264100D01*
X16128200Y-11214100D02*
G75*
G03*
X16028200Y-11214100I-50000J0D01*
G01*
X16028200Y-11214100D02*
G75*
G03*
X16128200Y-11214100I50000J0D01*
G01*
X16091700Y-6592100D02*
X16191700Y-6692100D01*
X16191700Y-6592100D02*
X16091700Y-6692100D01*
X16191700Y-6642100D02*
G75*
G03*
X16091700Y-6642100I-50000J0D01*
G01*
X16091700Y-6642100D02*
G75*
G03*
X16191700Y-6642100I50000J0D01*
G01*
X16218700Y-13640600D02*
X16318700Y-13740600D01*
X16318700Y-13640600D02*
X16218700Y-13740600D01*
X16318700Y-13690600D02*
G75*
G03*
X16218700Y-13690600I-50000J0D01*
G01*
X16218700Y-13690600D02*
G75*
G03*
X16318700Y-13690600I50000J0D01*
G01*
X16282200Y-5512600D02*
X16382200Y-5612600D01*
X16382200Y-5512600D02*
X16282200Y-5612600D01*
X16382200Y-5562600D02*
G75*
G03*
X16282200Y-5562600I-50000J0D01*
G01*
X16282200Y-5562600D02*
G75*
G03*
X16382200Y-5562600I50000J0D01*
G01*
X16282200Y-5766600D02*
X16382200Y-5866600D01*
X16382200Y-5766600D02*
X16282200Y-5866600D01*
X16382200Y-5816600D02*
G75*
G03*
X16282200Y-5816600I-50000J0D01*
G01*
X16282200Y-5816600D02*
G75*
G03*
X16382200Y-5816600I50000J0D01*
G01*
X16282200Y-11164100D02*
X16382200Y-11264100D01*
X16382200Y-11164100D02*
X16282200Y-11264100D01*
X16382200Y-11214100D02*
G75*
G03*
X16282200Y-11214100I-50000J0D01*
G01*
X16282200Y-11214100D02*
G75*
G03*
X16382200Y-11214100I50000J0D01*
G01*
X16345700Y-6592100D02*
X16445700Y-6692100D01*
X16445700Y-6592100D02*
X16345700Y-6692100D01*
X16445700Y-6642100D02*
G75*
G03*
X16345700Y-6642100I-50000J0D01*
G01*
X16345700Y-6642100D02*
G75*
G03*
X16445700Y-6642100I50000J0D01*
G01*
X16472700Y-13640600D02*
X16572700Y-13740600D01*
X16572700Y-13640600D02*
X16472700Y-13740600D01*
X16572700Y-13690600D02*
G75*
G03*
X16472700Y-13690600I-50000J0D01*
G01*
X16472700Y-13690600D02*
G75*
G03*
X16572700Y-13690600I50000J0D01*
G01*
X16536200Y-5512600D02*
X16636200Y-5612600D01*
X16636200Y-5512600D02*
X16536200Y-5612600D01*
X16636200Y-5562600D02*
G75*
G03*
X16536200Y-5562600I-50000J0D01*
G01*
X16536200Y-5562600D02*
G75*
G03*
X16636200Y-5562600I50000J0D01*
G01*
X16536200Y-5766600D02*
X16636200Y-5866600D01*
X16636200Y-5766600D02*
X16536200Y-5866600D01*
X16636200Y-5816600D02*
G75*
G03*
X16536200Y-5816600I-50000J0D01*
G01*
X16536200Y-5816600D02*
G75*
G03*
X16636200Y-5816600I50000J0D01*
G01*
X16599700Y-6592100D02*
X16699700Y-6692100D01*
X16699700Y-6592100D02*
X16599700Y-6692100D01*
X16699700Y-6642100D02*
G75*
G03*
X16599700Y-6642100I-50000J0D01*
G01*
X16599700Y-6642100D02*
G75*
G03*
X16699700Y-6642100I50000J0D01*
G01*
X16790200Y-5512600D02*
X16890200Y-5612600D01*
X16890200Y-5512600D02*
X16790200Y-5612600D01*
X16890200Y-5562600D02*
G75*
G03*
X16790200Y-5562600I-50000J0D01*
G01*
X16790200Y-5562600D02*
G75*
G03*
X16890200Y-5562600I50000J0D01*
G01*
X16790200Y-5766600D02*
X16890200Y-5866600D01*
X16890200Y-5766600D02*
X16790200Y-5866600D01*
X16890200Y-5816600D02*
G75*
G03*
X16790200Y-5816600I-50000J0D01*
G01*
X16790200Y-5816600D02*
G75*
G03*
X16890200Y-5816600I50000J0D01*
G01*
X16853700Y-6592100D02*
X16953700Y-6692100D01*
X16953700Y-6592100D02*
X16853700Y-6692100D01*
X16953700Y-6642100D02*
G75*
G03*
X16853700Y-6642100I-50000J0D01*
G01*
X16853700Y-6642100D02*
G75*
G03*
X16953700Y-6642100I50000J0D01*
G01*
X17298200Y-5512600D02*
X17398200Y-5612600D01*
X17398200Y-5512600D02*
X17298200Y-5612600D01*
X17398200Y-5562600D02*
G75*
G03*
X17298200Y-5562600I-50000J0D01*
G01*
X17298200Y-5562600D02*
G75*
G03*
X17398200Y-5562600I50000J0D01*
G01*
X17298200Y-5766600D02*
X17398200Y-5866600D01*
X17398200Y-5766600D02*
X17298200Y-5866600D01*
X17398200Y-5816600D02*
G75*
G03*
X17298200Y-5816600I-50000J0D01*
G01*
X17298200Y-5816600D02*
G75*
G03*
X17398200Y-5816600I50000J0D01*
G01*
X17361700Y-13259600D02*
X17461700Y-13359600D01*
X17461700Y-13259600D02*
X17361700Y-13359600D01*
X17461700Y-13309600D02*
G75*
G03*
X17361700Y-13309600I-50000J0D01*
G01*
X17361700Y-13309600D02*
G75*
G03*
X17461700Y-13309600I50000J0D01*
G01*
X17361700Y-13513600D02*
X17461700Y-13613600D01*
X17461700Y-13513600D02*
X17361700Y-13613600D01*
X17461700Y-13563600D02*
G75*
G03*
X17361700Y-13563600I-50000J0D01*
G01*
X17361700Y-13563600D02*
G75*
G03*
X17461700Y-13563600I50000J0D01*
G01*
X17552200Y-5512600D02*
X17652200Y-5612600D01*
X17652200Y-5512600D02*
X17552200Y-5612600D01*
X17652200Y-5562600D02*
G75*
G03*
X17552200Y-5562600I-50000J0D01*
G01*
X17552200Y-5562600D02*
G75*
G03*
X17652200Y-5562600I50000J0D01*
G01*
X17552200Y-5766600D02*
X17652200Y-5866600D01*
X17652200Y-5766600D02*
X17552200Y-5866600D01*
X17652200Y-5816600D02*
G75*
G03*
X17552200Y-5816600I-50000J0D01*
G01*
X17552200Y-5816600D02*
G75*
G03*
X17652200Y-5816600I50000J0D01*
G01*
X17615700Y-13259600D02*
X17715700Y-13359600D01*
X17715700Y-13259600D02*
X17615700Y-13359600D01*
X17715700Y-13309600D02*
G75*
G03*
X17615700Y-13309600I-50000J0D01*
G01*
X17615700Y-13309600D02*
G75*
G03*
X17715700Y-13309600I50000J0D01*
G01*
X17615700Y-13513600D02*
X17715700Y-13613600D01*
X17715700Y-13513600D02*
X17615700Y-13613600D01*
X17715700Y-13563600D02*
G75*
G03*
X17615700Y-13563600I-50000J0D01*
G01*
X17615700Y-13563600D02*
G75*
G03*
X17715700Y-13563600I50000J0D01*
G01*
X17869700Y-13259600D02*
X17969700Y-13359600D01*
X17969700Y-13259600D02*
X17869700Y-13359600D01*
X17969700Y-13309600D02*
G75*
G03*
X17869700Y-13309600I-50000J0D01*
G01*
X17869700Y-13309600D02*
G75*
G03*
X17969700Y-13309600I50000J0D01*
G01*
X17869700Y-13513600D02*
X17969700Y-13613600D01*
X17969700Y-13513600D02*
X17869700Y-13613600D01*
X17969700Y-13563600D02*
G75*
G03*
X17869700Y-13563600I-50000J0D01*
G01*
X17869700Y-13563600D02*
G75*
G03*
X17969700Y-13563600I50000J0D01*
G01*
X18123700Y-13259600D02*
X18223700Y-13359600D01*
X18223700Y-13259600D02*
X18123700Y-13359600D01*
X18223700Y-13309600D02*
G75*
G03*
X18123700Y-13309600I-50000J0D01*
G01*
X18123700Y-13309600D02*
G75*
G03*
X18223700Y-13309600I50000J0D01*
G01*
X18123700Y-13513600D02*
X18223700Y-13613600D01*
X18223700Y-13513600D02*
X18123700Y-13613600D01*
X18223700Y-13563600D02*
G75*
G03*
X18123700Y-13563600I-50000J0D01*
G01*
X18123700Y-13563600D02*
G75*
G03*
X18223700Y-13563600I50000J0D01*
G01*
X18377700Y-13259600D02*
X18477700Y-13359600D01*
X18477700Y-13259600D02*
X18377700Y-13359600D01*
X18477700Y-13309600D02*
G75*
G03*
X18377700Y-13309600I-50000J0D01*
G01*
X18377700Y-13309600D02*
G75*
G03*
X18477700Y-13309600I50000J0D01*
G01*
X18377700Y-13513600D02*
X18477700Y-13613600D01*
X18477700Y-13513600D02*
X18377700Y-13613600D01*
X18477700Y-13563600D02*
G75*
G03*
X18377700Y-13563600I-50000J0D01*
G01*
X18377700Y-13563600D02*
G75*
G03*
X18477700Y-13563600I50000J0D01*
G01*
D13*
X10139700Y-6863100D02*
X10459700Y-7183100D01*
X10459700Y-6863100D02*
X10139700Y-7183100D01*
X10299700Y-6863100D02*
X10299700Y-7183100D01*
X10139700Y-7023100D02*
X10459700Y-7023100D01*
X18331200Y-6863100D02*
X18651200Y-7183100D01*
X18651200Y-6863100D02*
X18331200Y-7183100D01*
X18491200Y-6863100D02*
X18491200Y-7183100D01*
X18331200Y-7023100D02*
X18651200Y-7023100D01*
D11*
X9922977Y-14385584D02*
X9922977Y-14185584D01*
X9922977Y-14185584D02*
X9970596Y-14185584D01*
X9970596Y-14185584D02*
X9999167Y-14195108D01*
X9999167Y-14195108D02*
X10018215Y-14214155D01*
X10018215Y-14214155D02*
X10027739Y-14233203D01*
X10027739Y-14233203D02*
X10037263Y-14271298D01*
X10037263Y-14271298D02*
X10037263Y-14299869D01*
X10037263Y-14299869D02*
X10027739Y-14337965D01*
X10027739Y-14337965D02*
X10018215Y-14357012D01*
X10018215Y-14357012D02*
X9999167Y-14376060D01*
X9999167Y-14376060D02*
X9970596Y-14385584D01*
X9970596Y-14385584D02*
X9922977Y-14385584D01*
X10122977Y-14385584D02*
X10122977Y-14252250D01*
X10122977Y-14290346D02*
X10132501Y-14271298D01*
X10132501Y-14271298D02*
X10142024Y-14261774D01*
X10142024Y-14261774D02*
X10161072Y-14252250D01*
X10161072Y-14252250D02*
X10180120Y-14252250D01*
X10246786Y-14385584D02*
X10246786Y-14252250D01*
X10246786Y-14185584D02*
X10237263Y-14195108D01*
X10237263Y-14195108D02*
X10246786Y-14204631D01*
X10246786Y-14204631D02*
X10256310Y-14195108D01*
X10256310Y-14195108D02*
X10246786Y-14185584D01*
X10246786Y-14185584D02*
X10246786Y-14204631D01*
X10370596Y-14385584D02*
X10351548Y-14376060D01*
X10351548Y-14376060D02*
X10342024Y-14357012D01*
X10342024Y-14357012D02*
X10342024Y-14185584D01*
X10475358Y-14385584D02*
X10456310Y-14376060D01*
X10456310Y-14376060D02*
X10446786Y-14357012D01*
X10446786Y-14357012D02*
X10446786Y-14185584D01*
X10703929Y-14385584D02*
X10703929Y-14185584D01*
X10703929Y-14185584D02*
X10770596Y-14328441D01*
X10770596Y-14328441D02*
X10837263Y-14185584D01*
X10837263Y-14185584D02*
X10837263Y-14385584D01*
X11018215Y-14385584D02*
X11018215Y-14280822D01*
X11018215Y-14280822D02*
X11008691Y-14261774D01*
X11008691Y-14261774D02*
X10989644Y-14252250D01*
X10989644Y-14252250D02*
X10951548Y-14252250D01*
X10951548Y-14252250D02*
X10932501Y-14261774D01*
X11018215Y-14376060D02*
X10999167Y-14385584D01*
X10999167Y-14385584D02*
X10951548Y-14385584D01*
X10951548Y-14385584D02*
X10932501Y-14376060D01*
X10932501Y-14376060D02*
X10922977Y-14357012D01*
X10922977Y-14357012D02*
X10922977Y-14337965D01*
X10922977Y-14337965D02*
X10932501Y-14318917D01*
X10932501Y-14318917D02*
X10951548Y-14309393D01*
X10951548Y-14309393D02*
X10999167Y-14309393D01*
X10999167Y-14309393D02*
X11018215Y-14299869D01*
X11113453Y-14252250D02*
X11113453Y-14452250D01*
X11113453Y-14261774D02*
X11132501Y-14252250D01*
X11132501Y-14252250D02*
X11170596Y-14252250D01*
X11170596Y-14252250D02*
X11189643Y-14261774D01*
X11189643Y-14261774D02*
X11199167Y-14271298D01*
X11199167Y-14271298D02*
X11208691Y-14290346D01*
X11208691Y-14290346D02*
X11208691Y-14347488D01*
X11208691Y-14347488D02*
X11199167Y-14366536D01*
X11199167Y-14366536D02*
X11189643Y-14376060D01*
X11189643Y-14376060D02*
X11170596Y-14385584D01*
X11170596Y-14385584D02*
X11132501Y-14385584D01*
X11132501Y-14385584D02*
X11113453Y-14376060D01*
X11294405Y-14366536D02*
X11303929Y-14376060D01*
X11303929Y-14376060D02*
X11294405Y-14385584D01*
X11294405Y-14385584D02*
X11284882Y-14376060D01*
X11284882Y-14376060D02*
X11294405Y-14366536D01*
X11294405Y-14366536D02*
X11294405Y-14385584D01*
X11294405Y-14261774D02*
X11303929Y-14271298D01*
X11303929Y-14271298D02*
X11294405Y-14280822D01*
X11294405Y-14280822D02*
X11284882Y-14271298D01*
X11284882Y-14271298D02*
X11294405Y-14261774D01*
X11294405Y-14261774D02*
X11294405Y-14280822D01*
D12*
X9632200Y-14699100D02*
X9662200Y-14729100D01*
X9662200Y-14699100D02*
X9632200Y-14729100D01*
D11*
X9961072Y-14605584D02*
X9980120Y-14605584D01*
X9980120Y-14605584D02*
X9999167Y-14615108D01*
X9999167Y-14615108D02*
X10008691Y-14624631D01*
X10008691Y-14624631D02*
X10018215Y-14643679D01*
X10018215Y-14643679D02*
X10027739Y-14681774D01*
X10027739Y-14681774D02*
X10027739Y-14729393D01*
X10027739Y-14729393D02*
X10018215Y-14767488D01*
X10018215Y-14767488D02*
X10008691Y-14786536D01*
X10008691Y-14786536D02*
X9999167Y-14796060D01*
X9999167Y-14796060D02*
X9980120Y-14805584D01*
X9980120Y-14805584D02*
X9961072Y-14805584D01*
X9961072Y-14805584D02*
X9942024Y-14796060D01*
X9942024Y-14796060D02*
X9932501Y-14786536D01*
X9932501Y-14786536D02*
X9922977Y-14767488D01*
X9922977Y-14767488D02*
X9913453Y-14729393D01*
X9913453Y-14729393D02*
X9913453Y-14681774D01*
X9913453Y-14681774D02*
X9922977Y-14643679D01*
X9922977Y-14643679D02*
X9932501Y-14624631D01*
X9932501Y-14624631D02*
X9942024Y-14615108D01*
X9942024Y-14615108D02*
X9961072Y-14605584D01*
X10113453Y-14786536D02*
X10122977Y-14796060D01*
X10122977Y-14796060D02*
X10113453Y-14805584D01*
X10113453Y-14805584D02*
X10103929Y-14796060D01*
X10103929Y-14796060D02*
X10113453Y-14786536D01*
X10113453Y-14786536D02*
X10113453Y-14805584D01*
X10189644Y-14605584D02*
X10313453Y-14605584D01*
X10313453Y-14605584D02*
X10246786Y-14681774D01*
X10246786Y-14681774D02*
X10275358Y-14681774D01*
X10275358Y-14681774D02*
X10294405Y-14691298D01*
X10294405Y-14691298D02*
X10303929Y-14700822D01*
X10303929Y-14700822D02*
X10313453Y-14719869D01*
X10313453Y-14719869D02*
X10313453Y-14767488D01*
X10313453Y-14767488D02*
X10303929Y-14786536D01*
X10303929Y-14786536D02*
X10294405Y-14796060D01*
X10294405Y-14796060D02*
X10275358Y-14805584D01*
X10275358Y-14805584D02*
X10218215Y-14805584D01*
X10218215Y-14805584D02*
X10199167Y-14796060D01*
X10199167Y-14796060D02*
X10189644Y-14786536D01*
X10437263Y-14605584D02*
X10456310Y-14605584D01*
X10456310Y-14605584D02*
X10475358Y-14615108D01*
X10475358Y-14615108D02*
X10484882Y-14624631D01*
X10484882Y-14624631D02*
X10494405Y-14643679D01*
X10494405Y-14643679D02*
X10503929Y-14681774D01*
X10503929Y-14681774D02*
X10503929Y-14729393D01*
X10503929Y-14729393D02*
X10494405Y-14767488D01*
X10494405Y-14767488D02*
X10484882Y-14786536D01*
X10484882Y-14786536D02*
X10475358Y-14796060D01*
X10475358Y-14796060D02*
X10456310Y-14805584D01*
X10456310Y-14805584D02*
X10437263Y-14805584D01*
X10437263Y-14805584D02*
X10418215Y-14796060D01*
X10418215Y-14796060D02*
X10408691Y-14786536D01*
X10408691Y-14786536D02*
X10399167Y-14767488D01*
X10399167Y-14767488D02*
X10389644Y-14729393D01*
X10389644Y-14729393D02*
X10389644Y-14681774D01*
X10389644Y-14681774D02*
X10399167Y-14643679D01*
X10399167Y-14643679D02*
X10408691Y-14624631D01*
X10408691Y-14624631D02*
X10418215Y-14615108D01*
X10418215Y-14615108D02*
X10437263Y-14605584D01*
X10627739Y-14605584D02*
X10646786Y-14605584D01*
X10646786Y-14605584D02*
X10665834Y-14615108D01*
X10665834Y-14615108D02*
X10675358Y-14624631D01*
X10675358Y-14624631D02*
X10684882Y-14643679D01*
X10684882Y-14643679D02*
X10694405Y-14681774D01*
X10694405Y-14681774D02*
X10694405Y-14729393D01*
X10694405Y-14729393D02*
X10684882Y-14767488D01*
X10684882Y-14767488D02*
X10675358Y-14786536D01*
X10675358Y-14786536D02*
X10665834Y-14796060D01*
X10665834Y-14796060D02*
X10646786Y-14805584D01*
X10646786Y-14805584D02*
X10627739Y-14805584D01*
X10627739Y-14805584D02*
X10608691Y-14796060D01*
X10608691Y-14796060D02*
X10599167Y-14786536D01*
X10599167Y-14786536D02*
X10589644Y-14767488D01*
X10589644Y-14767488D02*
X10580120Y-14729393D01*
X10580120Y-14729393D02*
X10580120Y-14681774D01*
X10580120Y-14681774D02*
X10589644Y-14643679D01*
X10589644Y-14643679D02*
X10599167Y-14624631D01*
X10599167Y-14624631D02*
X10608691Y-14615108D01*
X10608691Y-14615108D02*
X10627739Y-14605584D01*
X10780120Y-14805584D02*
X10780120Y-14672250D01*
X10780120Y-14691298D02*
X10789644Y-14681774D01*
X10789644Y-14681774D02*
X10808691Y-14672250D01*
X10808691Y-14672250D02*
X10837263Y-14672250D01*
X10837263Y-14672250D02*
X10856310Y-14681774D01*
X10856310Y-14681774D02*
X10865834Y-14700822D01*
X10865834Y-14700822D02*
X10865834Y-14805584D01*
X10865834Y-14700822D02*
X10875358Y-14681774D01*
X10875358Y-14681774D02*
X10894405Y-14672250D01*
X10894405Y-14672250D02*
X10922977Y-14672250D01*
X10922977Y-14672250D02*
X10942025Y-14681774D01*
X10942025Y-14681774D02*
X10951548Y-14700822D01*
X10951548Y-14700822D02*
X10951548Y-14805584D01*
X11046786Y-14805584D02*
X11046786Y-14672250D01*
X11046786Y-14691298D02*
X11056310Y-14681774D01*
X11056310Y-14681774D02*
X11075358Y-14672250D01*
X11075358Y-14672250D02*
X11103929Y-14672250D01*
X11103929Y-14672250D02*
X11122977Y-14681774D01*
X11122977Y-14681774D02*
X11132501Y-14700822D01*
X11132501Y-14700822D02*
X11132501Y-14805584D01*
X11132501Y-14700822D02*
X11142025Y-14681774D01*
X11142025Y-14681774D02*
X11161072Y-14672250D01*
X11161072Y-14672250D02*
X11189643Y-14672250D01*
X11189643Y-14672250D02*
X11208691Y-14681774D01*
X11208691Y-14681774D02*
X11218215Y-14700822D01*
X11218215Y-14700822D02*
X11218215Y-14805584D01*
X11608691Y-14596060D02*
X11437263Y-14853203D01*
X11865834Y-14605584D02*
X11884882Y-14605584D01*
X11884882Y-14605584D02*
X11903929Y-14615108D01*
X11903929Y-14615108D02*
X11913453Y-14624631D01*
X11913453Y-14624631D02*
X11922977Y-14643679D01*
X11922977Y-14643679D02*
X11932501Y-14681774D01*
X11932501Y-14681774D02*
X11932501Y-14729393D01*
X11932501Y-14729393D02*
X11922977Y-14767488D01*
X11922977Y-14767488D02*
X11913453Y-14786536D01*
X11913453Y-14786536D02*
X11903929Y-14796060D01*
X11903929Y-14796060D02*
X11884882Y-14805584D01*
X11884882Y-14805584D02*
X11865834Y-14805584D01*
X11865834Y-14805584D02*
X11846786Y-14796060D01*
X11846786Y-14796060D02*
X11837263Y-14786536D01*
X11837263Y-14786536D02*
X11827739Y-14767488D01*
X11827739Y-14767488D02*
X11818215Y-14729393D01*
X11818215Y-14729393D02*
X11818215Y-14681774D01*
X11818215Y-14681774D02*
X11827739Y-14643679D01*
X11827739Y-14643679D02*
X11837263Y-14624631D01*
X11837263Y-14624631D02*
X11846786Y-14615108D01*
X11846786Y-14615108D02*
X11865834Y-14605584D01*
X12018215Y-14786536D02*
X12027739Y-14796060D01*
X12027739Y-14796060D02*
X12018215Y-14805584D01*
X12018215Y-14805584D02*
X12008691Y-14796060D01*
X12008691Y-14796060D02*
X12018215Y-14786536D01*
X12018215Y-14786536D02*
X12018215Y-14805584D01*
X12151548Y-14605584D02*
X12170596Y-14605584D01*
X12170596Y-14605584D02*
X12189644Y-14615108D01*
X12189644Y-14615108D02*
X12199167Y-14624631D01*
X12199167Y-14624631D02*
X12208691Y-14643679D01*
X12208691Y-14643679D02*
X12218215Y-14681774D01*
X12218215Y-14681774D02*
X12218215Y-14729393D01*
X12218215Y-14729393D02*
X12208691Y-14767488D01*
X12208691Y-14767488D02*
X12199167Y-14786536D01*
X12199167Y-14786536D02*
X12189644Y-14796060D01*
X12189644Y-14796060D02*
X12170596Y-14805584D01*
X12170596Y-14805584D02*
X12151548Y-14805584D01*
X12151548Y-14805584D02*
X12132501Y-14796060D01*
X12132501Y-14796060D02*
X12122977Y-14786536D01*
X12122977Y-14786536D02*
X12113453Y-14767488D01*
X12113453Y-14767488D02*
X12103929Y-14729393D01*
X12103929Y-14729393D02*
X12103929Y-14681774D01*
X12103929Y-14681774D02*
X12113453Y-14643679D01*
X12113453Y-14643679D02*
X12122977Y-14624631D01*
X12122977Y-14624631D02*
X12132501Y-14615108D01*
X12132501Y-14615108D02*
X12151548Y-14605584D01*
X12408691Y-14805584D02*
X12294406Y-14805584D01*
X12351548Y-14805584D02*
X12351548Y-14605584D01*
X12351548Y-14605584D02*
X12332501Y-14634155D01*
X12332501Y-14634155D02*
X12313453Y-14653203D01*
X12313453Y-14653203D02*
X12294406Y-14662727D01*
X12599167Y-14805584D02*
X12484882Y-14805584D01*
X12542025Y-14805584D02*
X12542025Y-14605584D01*
X12542025Y-14605584D02*
X12522977Y-14634155D01*
X12522977Y-14634155D02*
X12503929Y-14653203D01*
X12503929Y-14653203D02*
X12484882Y-14662727D01*
X12713453Y-14691298D02*
X12694406Y-14681774D01*
X12694406Y-14681774D02*
X12684882Y-14672250D01*
X12684882Y-14672250D02*
X12675358Y-14653203D01*
X12675358Y-14653203D02*
X12675358Y-14643679D01*
X12675358Y-14643679D02*
X12684882Y-14624631D01*
X12684882Y-14624631D02*
X12694406Y-14615108D01*
X12694406Y-14615108D02*
X12713453Y-14605584D01*
X12713453Y-14605584D02*
X12751548Y-14605584D01*
X12751548Y-14605584D02*
X12770596Y-14615108D01*
X12770596Y-14615108D02*
X12780120Y-14624631D01*
X12780120Y-14624631D02*
X12789644Y-14643679D01*
X12789644Y-14643679D02*
X12789644Y-14653203D01*
X12789644Y-14653203D02*
X12780120Y-14672250D01*
X12780120Y-14672250D02*
X12770596Y-14681774D01*
X12770596Y-14681774D02*
X12751548Y-14691298D01*
X12751548Y-14691298D02*
X12713453Y-14691298D01*
X12713453Y-14691298D02*
X12694406Y-14700822D01*
X12694406Y-14700822D02*
X12684882Y-14710346D01*
X12684882Y-14710346D02*
X12675358Y-14729393D01*
X12675358Y-14729393D02*
X12675358Y-14767488D01*
X12675358Y-14767488D02*
X12684882Y-14786536D01*
X12684882Y-14786536D02*
X12694406Y-14796060D01*
X12694406Y-14796060D02*
X12713453Y-14805584D01*
X12713453Y-14805584D02*
X12751548Y-14805584D01*
X12751548Y-14805584D02*
X12770596Y-14796060D01*
X12770596Y-14796060D02*
X12780120Y-14786536D01*
X12780120Y-14786536D02*
X12789644Y-14767488D01*
X12789644Y-14767488D02*
X12789644Y-14729393D01*
X12789644Y-14729393D02*
X12780120Y-14710346D01*
X12780120Y-14710346D02*
X12770596Y-14700822D01*
X12770596Y-14700822D02*
X12751548Y-14691298D01*
X12865834Y-14605584D02*
X12865834Y-14643679D01*
X12942025Y-14605584D02*
X12942025Y-14643679D01*
X13237263Y-14881774D02*
X13227739Y-14872250D01*
X13227739Y-14872250D02*
X13208691Y-14843679D01*
X13208691Y-14843679D02*
X13199168Y-14824631D01*
X13199168Y-14824631D02*
X13189644Y-14796060D01*
X13189644Y-14796060D02*
X13180120Y-14748441D01*
X13180120Y-14748441D02*
X13180120Y-14710346D01*
X13180120Y-14710346D02*
X13189644Y-14662727D01*
X13189644Y-14662727D02*
X13199168Y-14634155D01*
X13199168Y-14634155D02*
X13208691Y-14615108D01*
X13208691Y-14615108D02*
X13227739Y-14586536D01*
X13227739Y-14586536D02*
X13237263Y-14577012D01*
X13303929Y-14624631D02*
X13313453Y-14615108D01*
X13313453Y-14615108D02*
X13332501Y-14605584D01*
X13332501Y-14605584D02*
X13380120Y-14605584D01*
X13380120Y-14605584D02*
X13399168Y-14615108D01*
X13399168Y-14615108D02*
X13408691Y-14624631D01*
X13408691Y-14624631D02*
X13418215Y-14643679D01*
X13418215Y-14643679D02*
X13418215Y-14662727D01*
X13418215Y-14662727D02*
X13408691Y-14691298D01*
X13408691Y-14691298D02*
X13294406Y-14805584D01*
X13294406Y-14805584D02*
X13418215Y-14805584D01*
X13484882Y-14605584D02*
X13618215Y-14605584D01*
X13618215Y-14605584D02*
X13532501Y-14805584D01*
X13846787Y-14805584D02*
X13846787Y-14605584D01*
X13932501Y-14805584D02*
X13932501Y-14700822D01*
X13932501Y-14700822D02*
X13922977Y-14681774D01*
X13922977Y-14681774D02*
X13903930Y-14672250D01*
X13903930Y-14672250D02*
X13875358Y-14672250D01*
X13875358Y-14672250D02*
X13856310Y-14681774D01*
X13856310Y-14681774D02*
X13846787Y-14691298D01*
X14056310Y-14805584D02*
X14037263Y-14796060D01*
X14037263Y-14796060D02*
X14027739Y-14786536D01*
X14027739Y-14786536D02*
X14018215Y-14767488D01*
X14018215Y-14767488D02*
X14018215Y-14710346D01*
X14018215Y-14710346D02*
X14027739Y-14691298D01*
X14027739Y-14691298D02*
X14037263Y-14681774D01*
X14037263Y-14681774D02*
X14056310Y-14672250D01*
X14056310Y-14672250D02*
X14084882Y-14672250D01*
X14084882Y-14672250D02*
X14103930Y-14681774D01*
X14103930Y-14681774D02*
X14113453Y-14691298D01*
X14113453Y-14691298D02*
X14122977Y-14710346D01*
X14122977Y-14710346D02*
X14122977Y-14767488D01*
X14122977Y-14767488D02*
X14113453Y-14786536D01*
X14113453Y-14786536D02*
X14103930Y-14796060D01*
X14103930Y-14796060D02*
X14084882Y-14805584D01*
X14084882Y-14805584D02*
X14056310Y-14805584D01*
X14237263Y-14805584D02*
X14218215Y-14796060D01*
X14218215Y-14796060D02*
X14208691Y-14777012D01*
X14208691Y-14777012D02*
X14208691Y-14605584D01*
X14389644Y-14796060D02*
X14370596Y-14805584D01*
X14370596Y-14805584D02*
X14332501Y-14805584D01*
X14332501Y-14805584D02*
X14313453Y-14796060D01*
X14313453Y-14796060D02*
X14303930Y-14777012D01*
X14303930Y-14777012D02*
X14303930Y-14700822D01*
X14303930Y-14700822D02*
X14313453Y-14681774D01*
X14313453Y-14681774D02*
X14332501Y-14672250D01*
X14332501Y-14672250D02*
X14370596Y-14672250D01*
X14370596Y-14672250D02*
X14389644Y-14681774D01*
X14389644Y-14681774D02*
X14399168Y-14700822D01*
X14399168Y-14700822D02*
X14399168Y-14719869D01*
X14399168Y-14719869D02*
X14303930Y-14738917D01*
X14475358Y-14796060D02*
X14494406Y-14805584D01*
X14494406Y-14805584D02*
X14532501Y-14805584D01*
X14532501Y-14805584D02*
X14551549Y-14796060D01*
X14551549Y-14796060D02*
X14561072Y-14777012D01*
X14561072Y-14777012D02*
X14561072Y-14767488D01*
X14561072Y-14767488D02*
X14551549Y-14748441D01*
X14551549Y-14748441D02*
X14532501Y-14738917D01*
X14532501Y-14738917D02*
X14503930Y-14738917D01*
X14503930Y-14738917D02*
X14484882Y-14729393D01*
X14484882Y-14729393D02*
X14475358Y-14710346D01*
X14475358Y-14710346D02*
X14475358Y-14700822D01*
X14475358Y-14700822D02*
X14484882Y-14681774D01*
X14484882Y-14681774D02*
X14503930Y-14672250D01*
X14503930Y-14672250D02*
X14532501Y-14672250D01*
X14532501Y-14672250D02*
X14551549Y-14681774D01*
X14627739Y-14881774D02*
X14637263Y-14872250D01*
X14637263Y-14872250D02*
X14656311Y-14843679D01*
X14656311Y-14843679D02*
X14665834Y-14824631D01*
X14665834Y-14824631D02*
X14675358Y-14796060D01*
X14675358Y-14796060D02*
X14684882Y-14748441D01*
X14684882Y-14748441D02*
X14684882Y-14710346D01*
X14684882Y-14710346D02*
X14675358Y-14662727D01*
X14675358Y-14662727D02*
X14665834Y-14634155D01*
X14665834Y-14634155D02*
X14656311Y-14615108D01*
X14656311Y-14615108D02*
X14637263Y-14586536D01*
X14637263Y-14586536D02*
X14627739Y-14577012D01*
D12*
X9662200Y-14978100D02*
G75*
G03*
X9592200Y-14978100I-35000J0D01*
G01*
X9592200Y-14978100D02*
G75*
G03*
X9662200Y-14978100I35000J0D01*
G01*
D11*
X9961072Y-14869584D02*
X9980120Y-14869584D01*
X9980120Y-14869584D02*
X9999167Y-14879108D01*
X9999167Y-14879108D02*
X10008691Y-14888631D01*
X10008691Y-14888631D02*
X10018215Y-14907679D01*
X10018215Y-14907679D02*
X10027739Y-14945774D01*
X10027739Y-14945774D02*
X10027739Y-14993393D01*
X10027739Y-14993393D02*
X10018215Y-15031488D01*
X10018215Y-15031488D02*
X10008691Y-15050536D01*
X10008691Y-15050536D02*
X9999167Y-15060060D01*
X9999167Y-15060060D02*
X9980120Y-15069584D01*
X9980120Y-15069584D02*
X9961072Y-15069584D01*
X9961072Y-15069584D02*
X9942024Y-15060060D01*
X9942024Y-15060060D02*
X9932501Y-15050536D01*
X9932501Y-15050536D02*
X9922977Y-15031488D01*
X9922977Y-15031488D02*
X9913453Y-14993393D01*
X9913453Y-14993393D02*
X9913453Y-14945774D01*
X9913453Y-14945774D02*
X9922977Y-14907679D01*
X9922977Y-14907679D02*
X9932501Y-14888631D01*
X9932501Y-14888631D02*
X9942024Y-14879108D01*
X9942024Y-14879108D02*
X9961072Y-14869584D01*
X10113453Y-15050536D02*
X10122977Y-15060060D01*
X10122977Y-15060060D02*
X10113453Y-15069584D01*
X10113453Y-15069584D02*
X10103929Y-15060060D01*
X10103929Y-15060060D02*
X10113453Y-15050536D01*
X10113453Y-15050536D02*
X10113453Y-15069584D01*
X10189644Y-14869584D02*
X10322977Y-14869584D01*
X10322977Y-14869584D02*
X10237263Y-15069584D01*
X10437263Y-14869584D02*
X10456310Y-14869584D01*
X10456310Y-14869584D02*
X10475358Y-14879108D01*
X10475358Y-14879108D02*
X10484882Y-14888631D01*
X10484882Y-14888631D02*
X10494405Y-14907679D01*
X10494405Y-14907679D02*
X10503929Y-14945774D01*
X10503929Y-14945774D02*
X10503929Y-14993393D01*
X10503929Y-14993393D02*
X10494405Y-15031488D01*
X10494405Y-15031488D02*
X10484882Y-15050536D01*
X10484882Y-15050536D02*
X10475358Y-15060060D01*
X10475358Y-15060060D02*
X10456310Y-15069584D01*
X10456310Y-15069584D02*
X10437263Y-15069584D01*
X10437263Y-15069584D02*
X10418215Y-15060060D01*
X10418215Y-15060060D02*
X10408691Y-15050536D01*
X10408691Y-15050536D02*
X10399167Y-15031488D01*
X10399167Y-15031488D02*
X10389644Y-14993393D01*
X10389644Y-14993393D02*
X10389644Y-14945774D01*
X10389644Y-14945774D02*
X10399167Y-14907679D01*
X10399167Y-14907679D02*
X10408691Y-14888631D01*
X10408691Y-14888631D02*
X10418215Y-14879108D01*
X10418215Y-14879108D02*
X10437263Y-14869584D01*
X10627739Y-14869584D02*
X10646786Y-14869584D01*
X10646786Y-14869584D02*
X10665834Y-14879108D01*
X10665834Y-14879108D02*
X10675358Y-14888631D01*
X10675358Y-14888631D02*
X10684882Y-14907679D01*
X10684882Y-14907679D02*
X10694405Y-14945774D01*
X10694405Y-14945774D02*
X10694405Y-14993393D01*
X10694405Y-14993393D02*
X10684882Y-15031488D01*
X10684882Y-15031488D02*
X10675358Y-15050536D01*
X10675358Y-15050536D02*
X10665834Y-15060060D01*
X10665834Y-15060060D02*
X10646786Y-15069584D01*
X10646786Y-15069584D02*
X10627739Y-15069584D01*
X10627739Y-15069584D02*
X10608691Y-15060060D01*
X10608691Y-15060060D02*
X10599167Y-15050536D01*
X10599167Y-15050536D02*
X10589644Y-15031488D01*
X10589644Y-15031488D02*
X10580120Y-14993393D01*
X10580120Y-14993393D02*
X10580120Y-14945774D01*
X10580120Y-14945774D02*
X10589644Y-14907679D01*
X10589644Y-14907679D02*
X10599167Y-14888631D01*
X10599167Y-14888631D02*
X10608691Y-14879108D01*
X10608691Y-14879108D02*
X10627739Y-14869584D01*
X10780120Y-15069584D02*
X10780120Y-14936250D01*
X10780120Y-14955298D02*
X10789644Y-14945774D01*
X10789644Y-14945774D02*
X10808691Y-14936250D01*
X10808691Y-14936250D02*
X10837263Y-14936250D01*
X10837263Y-14936250D02*
X10856310Y-14945774D01*
X10856310Y-14945774D02*
X10865834Y-14964822D01*
X10865834Y-14964822D02*
X10865834Y-15069584D01*
X10865834Y-14964822D02*
X10875358Y-14945774D01*
X10875358Y-14945774D02*
X10894405Y-14936250D01*
X10894405Y-14936250D02*
X10922977Y-14936250D01*
X10922977Y-14936250D02*
X10942025Y-14945774D01*
X10942025Y-14945774D02*
X10951548Y-14964822D01*
X10951548Y-14964822D02*
X10951548Y-15069584D01*
X11046786Y-15069584D02*
X11046786Y-14936250D01*
X11046786Y-14955298D02*
X11056310Y-14945774D01*
X11056310Y-14945774D02*
X11075358Y-14936250D01*
X11075358Y-14936250D02*
X11103929Y-14936250D01*
X11103929Y-14936250D02*
X11122977Y-14945774D01*
X11122977Y-14945774D02*
X11132501Y-14964822D01*
X11132501Y-14964822D02*
X11132501Y-15069584D01*
X11132501Y-14964822D02*
X11142025Y-14945774D01*
X11142025Y-14945774D02*
X11161072Y-14936250D01*
X11161072Y-14936250D02*
X11189643Y-14936250D01*
X11189643Y-14936250D02*
X11208691Y-14945774D01*
X11208691Y-14945774D02*
X11218215Y-14964822D01*
X11218215Y-14964822D02*
X11218215Y-15069584D01*
X11608691Y-14860060D02*
X11437263Y-15117203D01*
X11865834Y-14869584D02*
X11884882Y-14869584D01*
X11884882Y-14869584D02*
X11903929Y-14879108D01*
X11903929Y-14879108D02*
X11913453Y-14888631D01*
X11913453Y-14888631D02*
X11922977Y-14907679D01*
X11922977Y-14907679D02*
X11932501Y-14945774D01*
X11932501Y-14945774D02*
X11932501Y-14993393D01*
X11932501Y-14993393D02*
X11922977Y-15031488D01*
X11922977Y-15031488D02*
X11913453Y-15050536D01*
X11913453Y-15050536D02*
X11903929Y-15060060D01*
X11903929Y-15060060D02*
X11884882Y-15069584D01*
X11884882Y-15069584D02*
X11865834Y-15069584D01*
X11865834Y-15069584D02*
X11846786Y-15060060D01*
X11846786Y-15060060D02*
X11837263Y-15050536D01*
X11837263Y-15050536D02*
X11827739Y-15031488D01*
X11827739Y-15031488D02*
X11818215Y-14993393D01*
X11818215Y-14993393D02*
X11818215Y-14945774D01*
X11818215Y-14945774D02*
X11827739Y-14907679D01*
X11827739Y-14907679D02*
X11837263Y-14888631D01*
X11837263Y-14888631D02*
X11846786Y-14879108D01*
X11846786Y-14879108D02*
X11865834Y-14869584D01*
X12018215Y-15050536D02*
X12027739Y-15060060D01*
X12027739Y-15060060D02*
X12018215Y-15069584D01*
X12018215Y-15069584D02*
X12008691Y-15060060D01*
X12008691Y-15060060D02*
X12018215Y-15050536D01*
X12018215Y-15050536D02*
X12018215Y-15069584D01*
X12151548Y-14869584D02*
X12170596Y-14869584D01*
X12170596Y-14869584D02*
X12189644Y-14879108D01*
X12189644Y-14879108D02*
X12199167Y-14888631D01*
X12199167Y-14888631D02*
X12208691Y-14907679D01*
X12208691Y-14907679D02*
X12218215Y-14945774D01*
X12218215Y-14945774D02*
X12218215Y-14993393D01*
X12218215Y-14993393D02*
X12208691Y-15031488D01*
X12208691Y-15031488D02*
X12199167Y-15050536D01*
X12199167Y-15050536D02*
X12189644Y-15060060D01*
X12189644Y-15060060D02*
X12170596Y-15069584D01*
X12170596Y-15069584D02*
X12151548Y-15069584D01*
X12151548Y-15069584D02*
X12132501Y-15060060D01*
X12132501Y-15060060D02*
X12122977Y-15050536D01*
X12122977Y-15050536D02*
X12113453Y-15031488D01*
X12113453Y-15031488D02*
X12103929Y-14993393D01*
X12103929Y-14993393D02*
X12103929Y-14945774D01*
X12103929Y-14945774D02*
X12113453Y-14907679D01*
X12113453Y-14907679D02*
X12122977Y-14888631D01*
X12122977Y-14888631D02*
X12132501Y-14879108D01*
X12132501Y-14879108D02*
X12151548Y-14869584D01*
X12294406Y-14888631D02*
X12303929Y-14879108D01*
X12303929Y-14879108D02*
X12322977Y-14869584D01*
X12322977Y-14869584D02*
X12370596Y-14869584D01*
X12370596Y-14869584D02*
X12389644Y-14879108D01*
X12389644Y-14879108D02*
X12399167Y-14888631D01*
X12399167Y-14888631D02*
X12408691Y-14907679D01*
X12408691Y-14907679D02*
X12408691Y-14926727D01*
X12408691Y-14926727D02*
X12399167Y-14955298D01*
X12399167Y-14955298D02*
X12284882Y-15069584D01*
X12284882Y-15069584D02*
X12408691Y-15069584D01*
X12475358Y-14869584D02*
X12608691Y-14869584D01*
X12608691Y-14869584D02*
X12522977Y-15069584D01*
X12770596Y-14869584D02*
X12732501Y-14869584D01*
X12732501Y-14869584D02*
X12713453Y-14879108D01*
X12713453Y-14879108D02*
X12703929Y-14888631D01*
X12703929Y-14888631D02*
X12684882Y-14917203D01*
X12684882Y-14917203D02*
X12675358Y-14955298D01*
X12675358Y-14955298D02*
X12675358Y-15031488D01*
X12675358Y-15031488D02*
X12684882Y-15050536D01*
X12684882Y-15050536D02*
X12694406Y-15060060D01*
X12694406Y-15060060D02*
X12713453Y-15069584D01*
X12713453Y-15069584D02*
X12751548Y-15069584D01*
X12751548Y-15069584D02*
X12770596Y-15060060D01*
X12770596Y-15060060D02*
X12780120Y-15050536D01*
X12780120Y-15050536D02*
X12789644Y-15031488D01*
X12789644Y-15031488D02*
X12789644Y-14983869D01*
X12789644Y-14983869D02*
X12780120Y-14964822D01*
X12780120Y-14964822D02*
X12770596Y-14955298D01*
X12770596Y-14955298D02*
X12751548Y-14945774D01*
X12751548Y-14945774D02*
X12713453Y-14945774D01*
X12713453Y-14945774D02*
X12694406Y-14955298D01*
X12694406Y-14955298D02*
X12684882Y-14964822D01*
X12684882Y-14964822D02*
X12675358Y-14983869D01*
X12865834Y-14869584D02*
X12865834Y-14907679D01*
X12942025Y-14869584D02*
X12942025Y-14907679D01*
X13237263Y-15145774D02*
X13227739Y-15136250D01*
X13227739Y-15136250D02*
X13208691Y-15107679D01*
X13208691Y-15107679D02*
X13199168Y-15088631D01*
X13199168Y-15088631D02*
X13189644Y-15060060D01*
X13189644Y-15060060D02*
X13180120Y-15012441D01*
X13180120Y-15012441D02*
X13180120Y-14974346D01*
X13180120Y-14974346D02*
X13189644Y-14926727D01*
X13189644Y-14926727D02*
X13199168Y-14898155D01*
X13199168Y-14898155D02*
X13208691Y-14879108D01*
X13208691Y-14879108D02*
X13227739Y-14850536D01*
X13227739Y-14850536D02*
X13237263Y-14841012D01*
X13418215Y-15069584D02*
X13303929Y-15069584D01*
X13361072Y-15069584D02*
X13361072Y-14869584D01*
X13361072Y-14869584D02*
X13342025Y-14898155D01*
X13342025Y-14898155D02*
X13322977Y-14917203D01*
X13322977Y-14917203D02*
X13303929Y-14926727D01*
X13494406Y-14888631D02*
X13503929Y-14879108D01*
X13503929Y-14879108D02*
X13522977Y-14869584D01*
X13522977Y-14869584D02*
X13570596Y-14869584D01*
X13570596Y-14869584D02*
X13589644Y-14879108D01*
X13589644Y-14879108D02*
X13599168Y-14888631D01*
X13599168Y-14888631D02*
X13608691Y-14907679D01*
X13608691Y-14907679D02*
X13608691Y-14926727D01*
X13608691Y-14926727D02*
X13599168Y-14955298D01*
X13599168Y-14955298D02*
X13484882Y-15069584D01*
X13484882Y-15069584D02*
X13608691Y-15069584D01*
X13722977Y-14955298D02*
X13703929Y-14945774D01*
X13703929Y-14945774D02*
X13694406Y-14936250D01*
X13694406Y-14936250D02*
X13684882Y-14917203D01*
X13684882Y-14917203D02*
X13684882Y-14907679D01*
X13684882Y-14907679D02*
X13694406Y-14888631D01*
X13694406Y-14888631D02*
X13703929Y-14879108D01*
X13703929Y-14879108D02*
X13722977Y-14869584D01*
X13722977Y-14869584D02*
X13761072Y-14869584D01*
X13761072Y-14869584D02*
X13780120Y-14879108D01*
X13780120Y-14879108D02*
X13789644Y-14888631D01*
X13789644Y-14888631D02*
X13799168Y-14907679D01*
X13799168Y-14907679D02*
X13799168Y-14917203D01*
X13799168Y-14917203D02*
X13789644Y-14936250D01*
X13789644Y-14936250D02*
X13780120Y-14945774D01*
X13780120Y-14945774D02*
X13761072Y-14955298D01*
X13761072Y-14955298D02*
X13722977Y-14955298D01*
X13722977Y-14955298D02*
X13703929Y-14964822D01*
X13703929Y-14964822D02*
X13694406Y-14974346D01*
X13694406Y-14974346D02*
X13684882Y-14993393D01*
X13684882Y-14993393D02*
X13684882Y-15031488D01*
X13684882Y-15031488D02*
X13694406Y-15050536D01*
X13694406Y-15050536D02*
X13703929Y-15060060D01*
X13703929Y-15060060D02*
X13722977Y-15069584D01*
X13722977Y-15069584D02*
X13761072Y-15069584D01*
X13761072Y-15069584D02*
X13780120Y-15060060D01*
X13780120Y-15060060D02*
X13789644Y-15050536D01*
X13789644Y-15050536D02*
X13799168Y-15031488D01*
X13799168Y-15031488D02*
X13799168Y-14993393D01*
X13799168Y-14993393D02*
X13789644Y-14974346D01*
X13789644Y-14974346D02*
X13780120Y-14964822D01*
X13780120Y-14964822D02*
X13761072Y-14955298D01*
X14037263Y-15069584D02*
X14037263Y-14869584D01*
X14122977Y-15069584D02*
X14122977Y-14964822D01*
X14122977Y-14964822D02*
X14113453Y-14945774D01*
X14113453Y-14945774D02*
X14094406Y-14936250D01*
X14094406Y-14936250D02*
X14065834Y-14936250D01*
X14065834Y-14936250D02*
X14046787Y-14945774D01*
X14046787Y-14945774D02*
X14037263Y-14955298D01*
X14246787Y-15069584D02*
X14227739Y-15060060D01*
X14227739Y-15060060D02*
X14218215Y-15050536D01*
X14218215Y-15050536D02*
X14208691Y-15031488D01*
X14208691Y-15031488D02*
X14208691Y-14974346D01*
X14208691Y-14974346D02*
X14218215Y-14955298D01*
X14218215Y-14955298D02*
X14227739Y-14945774D01*
X14227739Y-14945774D02*
X14246787Y-14936250D01*
X14246787Y-14936250D02*
X14275358Y-14936250D01*
X14275358Y-14936250D02*
X14294406Y-14945774D01*
X14294406Y-14945774D02*
X14303930Y-14955298D01*
X14303930Y-14955298D02*
X14313453Y-14974346D01*
X14313453Y-14974346D02*
X14313453Y-15031488D01*
X14313453Y-15031488D02*
X14303930Y-15050536D01*
X14303930Y-15050536D02*
X14294406Y-15060060D01*
X14294406Y-15060060D02*
X14275358Y-15069584D01*
X14275358Y-15069584D02*
X14246787Y-15069584D01*
X14427739Y-15069584D02*
X14408691Y-15060060D01*
X14408691Y-15060060D02*
X14399168Y-15041012D01*
X14399168Y-15041012D02*
X14399168Y-14869584D01*
X14580120Y-15060060D02*
X14561072Y-15069584D01*
X14561072Y-15069584D02*
X14522977Y-15069584D01*
X14522977Y-15069584D02*
X14503930Y-15060060D01*
X14503930Y-15060060D02*
X14494406Y-15041012D01*
X14494406Y-15041012D02*
X14494406Y-14964822D01*
X14494406Y-14964822D02*
X14503930Y-14945774D01*
X14503930Y-14945774D02*
X14522977Y-14936250D01*
X14522977Y-14936250D02*
X14561072Y-14936250D01*
X14561072Y-14936250D02*
X14580120Y-14945774D01*
X14580120Y-14945774D02*
X14589644Y-14964822D01*
X14589644Y-14964822D02*
X14589644Y-14983869D01*
X14589644Y-14983869D02*
X14494406Y-15002917D01*
X14665834Y-15060060D02*
X14684882Y-15069584D01*
X14684882Y-15069584D02*
X14722977Y-15069584D01*
X14722977Y-15069584D02*
X14742025Y-15060060D01*
X14742025Y-15060060D02*
X14751549Y-15041012D01*
X14751549Y-15041012D02*
X14751549Y-15031488D01*
X14751549Y-15031488D02*
X14742025Y-15012441D01*
X14742025Y-15012441D02*
X14722977Y-15002917D01*
X14722977Y-15002917D02*
X14694406Y-15002917D01*
X14694406Y-15002917D02*
X14675358Y-14993393D01*
X14675358Y-14993393D02*
X14665834Y-14974346D01*
X14665834Y-14974346D02*
X14665834Y-14964822D01*
X14665834Y-14964822D02*
X14675358Y-14945774D01*
X14675358Y-14945774D02*
X14694406Y-14936250D01*
X14694406Y-14936250D02*
X14722977Y-14936250D01*
X14722977Y-14936250D02*
X14742025Y-14945774D01*
X14818215Y-15145774D02*
X14827739Y-15136250D01*
X14827739Y-15136250D02*
X14846787Y-15107679D01*
X14846787Y-15107679D02*
X14856311Y-15088631D01*
X14856311Y-15088631D02*
X14865834Y-15060060D01*
X14865834Y-15060060D02*
X14875358Y-15012441D01*
X14875358Y-15012441D02*
X14875358Y-14974346D01*
X14875358Y-14974346D02*
X14865834Y-14926727D01*
X14865834Y-14926727D02*
X14856311Y-14898155D01*
X14856311Y-14898155D02*
X14846787Y-14879108D01*
X14846787Y-14879108D02*
X14827739Y-14850536D01*
X14827739Y-14850536D02*
X14818215Y-14841012D01*
D12*
X9624700Y-15204600D02*
X9624700Y-15279600D01*
X9587200Y-15242100D02*
X9662200Y-15242100D01*
D11*
X9961072Y-15133584D02*
X9980120Y-15133584D01*
X9980120Y-15133584D02*
X9999167Y-15143108D01*
X9999167Y-15143108D02*
X10008691Y-15152631D01*
X10008691Y-15152631D02*
X10018215Y-15171679D01*
X10018215Y-15171679D02*
X10027739Y-15209774D01*
X10027739Y-15209774D02*
X10027739Y-15257393D01*
X10027739Y-15257393D02*
X10018215Y-15295488D01*
X10018215Y-15295488D02*
X10008691Y-15314536D01*
X10008691Y-15314536D02*
X9999167Y-15324060D01*
X9999167Y-15324060D02*
X9980120Y-15333584D01*
X9980120Y-15333584D02*
X9961072Y-15333584D01*
X9961072Y-15333584D02*
X9942024Y-15324060D01*
X9942024Y-15324060D02*
X9932501Y-15314536D01*
X9932501Y-15314536D02*
X9922977Y-15295488D01*
X9922977Y-15295488D02*
X9913453Y-15257393D01*
X9913453Y-15257393D02*
X9913453Y-15209774D01*
X9913453Y-15209774D02*
X9922977Y-15171679D01*
X9922977Y-15171679D02*
X9932501Y-15152631D01*
X9932501Y-15152631D02*
X9942024Y-15143108D01*
X9942024Y-15143108D02*
X9961072Y-15133584D01*
X10113453Y-15314536D02*
X10122977Y-15324060D01*
X10122977Y-15324060D02*
X10113453Y-15333584D01*
X10113453Y-15333584D02*
X10103929Y-15324060D01*
X10103929Y-15324060D02*
X10113453Y-15314536D01*
X10113453Y-15314536D02*
X10113453Y-15333584D01*
X10189644Y-15133584D02*
X10322977Y-15133584D01*
X10322977Y-15133584D02*
X10237263Y-15333584D01*
X10494405Y-15133584D02*
X10399167Y-15133584D01*
X10399167Y-15133584D02*
X10389644Y-15228822D01*
X10389644Y-15228822D02*
X10399167Y-15219298D01*
X10399167Y-15219298D02*
X10418215Y-15209774D01*
X10418215Y-15209774D02*
X10465834Y-15209774D01*
X10465834Y-15209774D02*
X10484882Y-15219298D01*
X10484882Y-15219298D02*
X10494405Y-15228822D01*
X10494405Y-15228822D02*
X10503929Y-15247869D01*
X10503929Y-15247869D02*
X10503929Y-15295488D01*
X10503929Y-15295488D02*
X10494405Y-15314536D01*
X10494405Y-15314536D02*
X10484882Y-15324060D01*
X10484882Y-15324060D02*
X10465834Y-15333584D01*
X10465834Y-15333584D02*
X10418215Y-15333584D01*
X10418215Y-15333584D02*
X10399167Y-15324060D01*
X10399167Y-15324060D02*
X10389644Y-15314536D01*
X10627739Y-15133584D02*
X10646786Y-15133584D01*
X10646786Y-15133584D02*
X10665834Y-15143108D01*
X10665834Y-15143108D02*
X10675358Y-15152631D01*
X10675358Y-15152631D02*
X10684882Y-15171679D01*
X10684882Y-15171679D02*
X10694405Y-15209774D01*
X10694405Y-15209774D02*
X10694405Y-15257393D01*
X10694405Y-15257393D02*
X10684882Y-15295488D01*
X10684882Y-15295488D02*
X10675358Y-15314536D01*
X10675358Y-15314536D02*
X10665834Y-15324060D01*
X10665834Y-15324060D02*
X10646786Y-15333584D01*
X10646786Y-15333584D02*
X10627739Y-15333584D01*
X10627739Y-15333584D02*
X10608691Y-15324060D01*
X10608691Y-15324060D02*
X10599167Y-15314536D01*
X10599167Y-15314536D02*
X10589644Y-15295488D01*
X10589644Y-15295488D02*
X10580120Y-15257393D01*
X10580120Y-15257393D02*
X10580120Y-15209774D01*
X10580120Y-15209774D02*
X10589644Y-15171679D01*
X10589644Y-15171679D02*
X10599167Y-15152631D01*
X10599167Y-15152631D02*
X10608691Y-15143108D01*
X10608691Y-15143108D02*
X10627739Y-15133584D01*
X10780120Y-15333584D02*
X10780120Y-15200250D01*
X10780120Y-15219298D02*
X10789644Y-15209774D01*
X10789644Y-15209774D02*
X10808691Y-15200250D01*
X10808691Y-15200250D02*
X10837263Y-15200250D01*
X10837263Y-15200250D02*
X10856310Y-15209774D01*
X10856310Y-15209774D02*
X10865834Y-15228822D01*
X10865834Y-15228822D02*
X10865834Y-15333584D01*
X10865834Y-15228822D02*
X10875358Y-15209774D01*
X10875358Y-15209774D02*
X10894405Y-15200250D01*
X10894405Y-15200250D02*
X10922977Y-15200250D01*
X10922977Y-15200250D02*
X10942025Y-15209774D01*
X10942025Y-15209774D02*
X10951548Y-15228822D01*
X10951548Y-15228822D02*
X10951548Y-15333584D01*
X11046786Y-15333584D02*
X11046786Y-15200250D01*
X11046786Y-15219298D02*
X11056310Y-15209774D01*
X11056310Y-15209774D02*
X11075358Y-15200250D01*
X11075358Y-15200250D02*
X11103929Y-15200250D01*
X11103929Y-15200250D02*
X11122977Y-15209774D01*
X11122977Y-15209774D02*
X11132501Y-15228822D01*
X11132501Y-15228822D02*
X11132501Y-15333584D01*
X11132501Y-15228822D02*
X11142025Y-15209774D01*
X11142025Y-15209774D02*
X11161072Y-15200250D01*
X11161072Y-15200250D02*
X11189643Y-15200250D01*
X11189643Y-15200250D02*
X11208691Y-15209774D01*
X11208691Y-15209774D02*
X11218215Y-15228822D01*
X11218215Y-15228822D02*
X11218215Y-15333584D01*
X11608691Y-15124060D02*
X11437263Y-15381203D01*
X11865834Y-15133584D02*
X11884882Y-15133584D01*
X11884882Y-15133584D02*
X11903929Y-15143108D01*
X11903929Y-15143108D02*
X11913453Y-15152631D01*
X11913453Y-15152631D02*
X11922977Y-15171679D01*
X11922977Y-15171679D02*
X11932501Y-15209774D01*
X11932501Y-15209774D02*
X11932501Y-15257393D01*
X11932501Y-15257393D02*
X11922977Y-15295488D01*
X11922977Y-15295488D02*
X11913453Y-15314536D01*
X11913453Y-15314536D02*
X11903929Y-15324060D01*
X11903929Y-15324060D02*
X11884882Y-15333584D01*
X11884882Y-15333584D02*
X11865834Y-15333584D01*
X11865834Y-15333584D02*
X11846786Y-15324060D01*
X11846786Y-15324060D02*
X11837263Y-15314536D01*
X11837263Y-15314536D02*
X11827739Y-15295488D01*
X11827739Y-15295488D02*
X11818215Y-15257393D01*
X11818215Y-15257393D02*
X11818215Y-15209774D01*
X11818215Y-15209774D02*
X11827739Y-15171679D01*
X11827739Y-15171679D02*
X11837263Y-15152631D01*
X11837263Y-15152631D02*
X11846786Y-15143108D01*
X11846786Y-15143108D02*
X11865834Y-15133584D01*
X12018215Y-15314536D02*
X12027739Y-15324060D01*
X12027739Y-15324060D02*
X12018215Y-15333584D01*
X12018215Y-15333584D02*
X12008691Y-15324060D01*
X12008691Y-15324060D02*
X12018215Y-15314536D01*
X12018215Y-15314536D02*
X12018215Y-15333584D01*
X12151548Y-15133584D02*
X12170596Y-15133584D01*
X12170596Y-15133584D02*
X12189644Y-15143108D01*
X12189644Y-15143108D02*
X12199167Y-15152631D01*
X12199167Y-15152631D02*
X12208691Y-15171679D01*
X12208691Y-15171679D02*
X12218215Y-15209774D01*
X12218215Y-15209774D02*
X12218215Y-15257393D01*
X12218215Y-15257393D02*
X12208691Y-15295488D01*
X12208691Y-15295488D02*
X12199167Y-15314536D01*
X12199167Y-15314536D02*
X12189644Y-15324060D01*
X12189644Y-15324060D02*
X12170596Y-15333584D01*
X12170596Y-15333584D02*
X12151548Y-15333584D01*
X12151548Y-15333584D02*
X12132501Y-15324060D01*
X12132501Y-15324060D02*
X12122977Y-15314536D01*
X12122977Y-15314536D02*
X12113453Y-15295488D01*
X12113453Y-15295488D02*
X12103929Y-15257393D01*
X12103929Y-15257393D02*
X12103929Y-15209774D01*
X12103929Y-15209774D02*
X12113453Y-15171679D01*
X12113453Y-15171679D02*
X12122977Y-15152631D01*
X12122977Y-15152631D02*
X12132501Y-15143108D01*
X12132501Y-15143108D02*
X12151548Y-15133584D01*
X12294406Y-15152631D02*
X12303929Y-15143108D01*
X12303929Y-15143108D02*
X12322977Y-15133584D01*
X12322977Y-15133584D02*
X12370596Y-15133584D01*
X12370596Y-15133584D02*
X12389644Y-15143108D01*
X12389644Y-15143108D02*
X12399167Y-15152631D01*
X12399167Y-15152631D02*
X12408691Y-15171679D01*
X12408691Y-15171679D02*
X12408691Y-15190727D01*
X12408691Y-15190727D02*
X12399167Y-15219298D01*
X12399167Y-15219298D02*
X12284882Y-15333584D01*
X12284882Y-15333584D02*
X12408691Y-15333584D01*
X12503929Y-15333584D02*
X12542025Y-15333584D01*
X12542025Y-15333584D02*
X12561072Y-15324060D01*
X12561072Y-15324060D02*
X12570596Y-15314536D01*
X12570596Y-15314536D02*
X12589644Y-15285965D01*
X12589644Y-15285965D02*
X12599167Y-15247869D01*
X12599167Y-15247869D02*
X12599167Y-15171679D01*
X12599167Y-15171679D02*
X12589644Y-15152631D01*
X12589644Y-15152631D02*
X12580120Y-15143108D01*
X12580120Y-15143108D02*
X12561072Y-15133584D01*
X12561072Y-15133584D02*
X12522977Y-15133584D01*
X12522977Y-15133584D02*
X12503929Y-15143108D01*
X12503929Y-15143108D02*
X12494406Y-15152631D01*
X12494406Y-15152631D02*
X12484882Y-15171679D01*
X12484882Y-15171679D02*
X12484882Y-15219298D01*
X12484882Y-15219298D02*
X12494406Y-15238346D01*
X12494406Y-15238346D02*
X12503929Y-15247869D01*
X12503929Y-15247869D02*
X12522977Y-15257393D01*
X12522977Y-15257393D02*
X12561072Y-15257393D01*
X12561072Y-15257393D02*
X12580120Y-15247869D01*
X12580120Y-15247869D02*
X12589644Y-15238346D01*
X12589644Y-15238346D02*
X12599167Y-15219298D01*
X12780120Y-15133584D02*
X12684882Y-15133584D01*
X12684882Y-15133584D02*
X12675358Y-15228822D01*
X12675358Y-15228822D02*
X12684882Y-15219298D01*
X12684882Y-15219298D02*
X12703929Y-15209774D01*
X12703929Y-15209774D02*
X12751548Y-15209774D01*
X12751548Y-15209774D02*
X12770596Y-15219298D01*
X12770596Y-15219298D02*
X12780120Y-15228822D01*
X12780120Y-15228822D02*
X12789644Y-15247869D01*
X12789644Y-15247869D02*
X12789644Y-15295488D01*
X12789644Y-15295488D02*
X12780120Y-15314536D01*
X12780120Y-15314536D02*
X12770596Y-15324060D01*
X12770596Y-15324060D02*
X12751548Y-15333584D01*
X12751548Y-15333584D02*
X12703929Y-15333584D01*
X12703929Y-15333584D02*
X12684882Y-15324060D01*
X12684882Y-15324060D02*
X12675358Y-15314536D01*
X12865834Y-15133584D02*
X12865834Y-15171679D01*
X12942025Y-15133584D02*
X12942025Y-15171679D01*
X13237263Y-15409774D02*
X13227739Y-15400250D01*
X13227739Y-15400250D02*
X13208691Y-15371679D01*
X13208691Y-15371679D02*
X13199168Y-15352631D01*
X13199168Y-15352631D02*
X13189644Y-15324060D01*
X13189644Y-15324060D02*
X13180120Y-15276441D01*
X13180120Y-15276441D02*
X13180120Y-15238346D01*
X13180120Y-15238346D02*
X13189644Y-15190727D01*
X13189644Y-15190727D02*
X13199168Y-15162155D01*
X13199168Y-15162155D02*
X13208691Y-15143108D01*
X13208691Y-15143108D02*
X13227739Y-15114536D01*
X13227739Y-15114536D02*
X13237263Y-15105012D01*
X13418215Y-15333584D02*
X13303929Y-15333584D01*
X13361072Y-15333584D02*
X13361072Y-15133584D01*
X13361072Y-15133584D02*
X13342025Y-15162155D01*
X13342025Y-15162155D02*
X13322977Y-15181203D01*
X13322977Y-15181203D02*
X13303929Y-15190727D01*
X13532501Y-15219298D02*
X13513453Y-15209774D01*
X13513453Y-15209774D02*
X13503929Y-15200250D01*
X13503929Y-15200250D02*
X13494406Y-15181203D01*
X13494406Y-15181203D02*
X13494406Y-15171679D01*
X13494406Y-15171679D02*
X13503929Y-15152631D01*
X13503929Y-15152631D02*
X13513453Y-15143108D01*
X13513453Y-15143108D02*
X13532501Y-15133584D01*
X13532501Y-15133584D02*
X13570596Y-15133584D01*
X13570596Y-15133584D02*
X13589644Y-15143108D01*
X13589644Y-15143108D02*
X13599168Y-15152631D01*
X13599168Y-15152631D02*
X13608691Y-15171679D01*
X13608691Y-15171679D02*
X13608691Y-15181203D01*
X13608691Y-15181203D02*
X13599168Y-15200250D01*
X13599168Y-15200250D02*
X13589644Y-15209774D01*
X13589644Y-15209774D02*
X13570596Y-15219298D01*
X13570596Y-15219298D02*
X13532501Y-15219298D01*
X13532501Y-15219298D02*
X13513453Y-15228822D01*
X13513453Y-15228822D02*
X13503929Y-15238346D01*
X13503929Y-15238346D02*
X13494406Y-15257393D01*
X13494406Y-15257393D02*
X13494406Y-15295488D01*
X13494406Y-15295488D02*
X13503929Y-15314536D01*
X13503929Y-15314536D02*
X13513453Y-15324060D01*
X13513453Y-15324060D02*
X13532501Y-15333584D01*
X13532501Y-15333584D02*
X13570596Y-15333584D01*
X13570596Y-15333584D02*
X13589644Y-15324060D01*
X13589644Y-15324060D02*
X13599168Y-15314536D01*
X13599168Y-15314536D02*
X13608691Y-15295488D01*
X13608691Y-15295488D02*
X13608691Y-15257393D01*
X13608691Y-15257393D02*
X13599168Y-15238346D01*
X13599168Y-15238346D02*
X13589644Y-15228822D01*
X13589644Y-15228822D02*
X13570596Y-15219298D01*
X13846787Y-15333584D02*
X13846787Y-15133584D01*
X13932501Y-15333584D02*
X13932501Y-15228822D01*
X13932501Y-15228822D02*
X13922977Y-15209774D01*
X13922977Y-15209774D02*
X13903930Y-15200250D01*
X13903930Y-15200250D02*
X13875358Y-15200250D01*
X13875358Y-15200250D02*
X13856310Y-15209774D01*
X13856310Y-15209774D02*
X13846787Y-15219298D01*
X14056310Y-15333584D02*
X14037263Y-15324060D01*
X14037263Y-15324060D02*
X14027739Y-15314536D01*
X14027739Y-15314536D02*
X14018215Y-15295488D01*
X14018215Y-15295488D02*
X14018215Y-15238346D01*
X14018215Y-15238346D02*
X14027739Y-15219298D01*
X14027739Y-15219298D02*
X14037263Y-15209774D01*
X14037263Y-15209774D02*
X14056310Y-15200250D01*
X14056310Y-15200250D02*
X14084882Y-15200250D01*
X14084882Y-15200250D02*
X14103930Y-15209774D01*
X14103930Y-15209774D02*
X14113453Y-15219298D01*
X14113453Y-15219298D02*
X14122977Y-15238346D01*
X14122977Y-15238346D02*
X14122977Y-15295488D01*
X14122977Y-15295488D02*
X14113453Y-15314536D01*
X14113453Y-15314536D02*
X14103930Y-15324060D01*
X14103930Y-15324060D02*
X14084882Y-15333584D01*
X14084882Y-15333584D02*
X14056310Y-15333584D01*
X14237263Y-15333584D02*
X14218215Y-15324060D01*
X14218215Y-15324060D02*
X14208691Y-15305012D01*
X14208691Y-15305012D02*
X14208691Y-15133584D01*
X14389644Y-15324060D02*
X14370596Y-15333584D01*
X14370596Y-15333584D02*
X14332501Y-15333584D01*
X14332501Y-15333584D02*
X14313453Y-15324060D01*
X14313453Y-15324060D02*
X14303930Y-15305012D01*
X14303930Y-15305012D02*
X14303930Y-15228822D01*
X14303930Y-15228822D02*
X14313453Y-15209774D01*
X14313453Y-15209774D02*
X14332501Y-15200250D01*
X14332501Y-15200250D02*
X14370596Y-15200250D01*
X14370596Y-15200250D02*
X14389644Y-15209774D01*
X14389644Y-15209774D02*
X14399168Y-15228822D01*
X14399168Y-15228822D02*
X14399168Y-15247869D01*
X14399168Y-15247869D02*
X14303930Y-15266917D01*
X14475358Y-15324060D02*
X14494406Y-15333584D01*
X14494406Y-15333584D02*
X14532501Y-15333584D01*
X14532501Y-15333584D02*
X14551549Y-15324060D01*
X14551549Y-15324060D02*
X14561072Y-15305012D01*
X14561072Y-15305012D02*
X14561072Y-15295488D01*
X14561072Y-15295488D02*
X14551549Y-15276441D01*
X14551549Y-15276441D02*
X14532501Y-15266917D01*
X14532501Y-15266917D02*
X14503930Y-15266917D01*
X14503930Y-15266917D02*
X14484882Y-15257393D01*
X14484882Y-15257393D02*
X14475358Y-15238346D01*
X14475358Y-15238346D02*
X14475358Y-15228822D01*
X14475358Y-15228822D02*
X14484882Y-15209774D01*
X14484882Y-15209774D02*
X14503930Y-15200250D01*
X14503930Y-15200250D02*
X14532501Y-15200250D01*
X14532501Y-15200250D02*
X14551549Y-15209774D01*
X14627739Y-15409774D02*
X14637263Y-15400250D01*
X14637263Y-15400250D02*
X14656311Y-15371679D01*
X14656311Y-15371679D02*
X14665834Y-15352631D01*
X14665834Y-15352631D02*
X14675358Y-15324060D01*
X14675358Y-15324060D02*
X14684882Y-15276441D01*
X14684882Y-15276441D02*
X14684882Y-15238346D01*
X14684882Y-15238346D02*
X14675358Y-15190727D01*
X14675358Y-15190727D02*
X14665834Y-15162155D01*
X14665834Y-15162155D02*
X14656311Y-15143108D01*
X14656311Y-15143108D02*
X14637263Y-15114536D01*
X14637263Y-15114536D02*
X14627739Y-15105012D01*
D12*
X9650485Y-15534384D02*
X9650485Y-15477815D01*
X9593916Y-15477815D01*
X9593916Y-15534384D01*
X9650485Y-15534384D01*
D11*
X9961072Y-15397584D02*
X9980120Y-15397584D01*
X9980120Y-15397584D02*
X9999167Y-15407108D01*
X9999167Y-15407108D02*
X10008691Y-15416631D01*
X10008691Y-15416631D02*
X10018215Y-15435679D01*
X10018215Y-15435679D02*
X10027739Y-15473774D01*
X10027739Y-15473774D02*
X10027739Y-15521393D01*
X10027739Y-15521393D02*
X10018215Y-15559488D01*
X10018215Y-15559488D02*
X10008691Y-15578536D01*
X10008691Y-15578536D02*
X9999167Y-15588060D01*
X9999167Y-15588060D02*
X9980120Y-15597584D01*
X9980120Y-15597584D02*
X9961072Y-15597584D01*
X9961072Y-15597584D02*
X9942024Y-15588060D01*
X9942024Y-15588060D02*
X9932501Y-15578536D01*
X9932501Y-15578536D02*
X9922977Y-15559488D01*
X9922977Y-15559488D02*
X9913453Y-15521393D01*
X9913453Y-15521393D02*
X9913453Y-15473774D01*
X9913453Y-15473774D02*
X9922977Y-15435679D01*
X9922977Y-15435679D02*
X9932501Y-15416631D01*
X9932501Y-15416631D02*
X9942024Y-15407108D01*
X9942024Y-15407108D02*
X9961072Y-15397584D01*
X10113453Y-15578536D02*
X10122977Y-15588060D01*
X10122977Y-15588060D02*
X10113453Y-15597584D01*
X10113453Y-15597584D02*
X10103929Y-15588060D01*
X10103929Y-15588060D02*
X10113453Y-15578536D01*
X10113453Y-15578536D02*
X10113453Y-15597584D01*
X10237263Y-15483298D02*
X10218215Y-15473774D01*
X10218215Y-15473774D02*
X10208691Y-15464250D01*
X10208691Y-15464250D02*
X10199167Y-15445203D01*
X10199167Y-15445203D02*
X10199167Y-15435679D01*
X10199167Y-15435679D02*
X10208691Y-15416631D01*
X10208691Y-15416631D02*
X10218215Y-15407108D01*
X10218215Y-15407108D02*
X10237263Y-15397584D01*
X10237263Y-15397584D02*
X10275358Y-15397584D01*
X10275358Y-15397584D02*
X10294405Y-15407108D01*
X10294405Y-15407108D02*
X10303929Y-15416631D01*
X10303929Y-15416631D02*
X10313453Y-15435679D01*
X10313453Y-15435679D02*
X10313453Y-15445203D01*
X10313453Y-15445203D02*
X10303929Y-15464250D01*
X10303929Y-15464250D02*
X10294405Y-15473774D01*
X10294405Y-15473774D02*
X10275358Y-15483298D01*
X10275358Y-15483298D02*
X10237263Y-15483298D01*
X10237263Y-15483298D02*
X10218215Y-15492822D01*
X10218215Y-15492822D02*
X10208691Y-15502346D01*
X10208691Y-15502346D02*
X10199167Y-15521393D01*
X10199167Y-15521393D02*
X10199167Y-15559488D01*
X10199167Y-15559488D02*
X10208691Y-15578536D01*
X10208691Y-15578536D02*
X10218215Y-15588060D01*
X10218215Y-15588060D02*
X10237263Y-15597584D01*
X10237263Y-15597584D02*
X10275358Y-15597584D01*
X10275358Y-15597584D02*
X10294405Y-15588060D01*
X10294405Y-15588060D02*
X10303929Y-15578536D01*
X10303929Y-15578536D02*
X10313453Y-15559488D01*
X10313453Y-15559488D02*
X10313453Y-15521393D01*
X10313453Y-15521393D02*
X10303929Y-15502346D01*
X10303929Y-15502346D02*
X10294405Y-15492822D01*
X10294405Y-15492822D02*
X10275358Y-15483298D01*
X10437263Y-15397584D02*
X10456310Y-15397584D01*
X10456310Y-15397584D02*
X10475358Y-15407108D01*
X10475358Y-15407108D02*
X10484882Y-15416631D01*
X10484882Y-15416631D02*
X10494405Y-15435679D01*
X10494405Y-15435679D02*
X10503929Y-15473774D01*
X10503929Y-15473774D02*
X10503929Y-15521393D01*
X10503929Y-15521393D02*
X10494405Y-15559488D01*
X10494405Y-15559488D02*
X10484882Y-15578536D01*
X10484882Y-15578536D02*
X10475358Y-15588060D01*
X10475358Y-15588060D02*
X10456310Y-15597584D01*
X10456310Y-15597584D02*
X10437263Y-15597584D01*
X10437263Y-15597584D02*
X10418215Y-15588060D01*
X10418215Y-15588060D02*
X10408691Y-15578536D01*
X10408691Y-15578536D02*
X10399167Y-15559488D01*
X10399167Y-15559488D02*
X10389644Y-15521393D01*
X10389644Y-15521393D02*
X10389644Y-15473774D01*
X10389644Y-15473774D02*
X10399167Y-15435679D01*
X10399167Y-15435679D02*
X10408691Y-15416631D01*
X10408691Y-15416631D02*
X10418215Y-15407108D01*
X10418215Y-15407108D02*
X10437263Y-15397584D01*
X10627739Y-15397584D02*
X10646786Y-15397584D01*
X10646786Y-15397584D02*
X10665834Y-15407108D01*
X10665834Y-15407108D02*
X10675358Y-15416631D01*
X10675358Y-15416631D02*
X10684882Y-15435679D01*
X10684882Y-15435679D02*
X10694405Y-15473774D01*
X10694405Y-15473774D02*
X10694405Y-15521393D01*
X10694405Y-15521393D02*
X10684882Y-15559488D01*
X10684882Y-15559488D02*
X10675358Y-15578536D01*
X10675358Y-15578536D02*
X10665834Y-15588060D01*
X10665834Y-15588060D02*
X10646786Y-15597584D01*
X10646786Y-15597584D02*
X10627739Y-15597584D01*
X10627739Y-15597584D02*
X10608691Y-15588060D01*
X10608691Y-15588060D02*
X10599167Y-15578536D01*
X10599167Y-15578536D02*
X10589644Y-15559488D01*
X10589644Y-15559488D02*
X10580120Y-15521393D01*
X10580120Y-15521393D02*
X10580120Y-15473774D01*
X10580120Y-15473774D02*
X10589644Y-15435679D01*
X10589644Y-15435679D02*
X10599167Y-15416631D01*
X10599167Y-15416631D02*
X10608691Y-15407108D01*
X10608691Y-15407108D02*
X10627739Y-15397584D01*
X10780120Y-15597584D02*
X10780120Y-15464250D01*
X10780120Y-15483298D02*
X10789644Y-15473774D01*
X10789644Y-15473774D02*
X10808691Y-15464250D01*
X10808691Y-15464250D02*
X10837263Y-15464250D01*
X10837263Y-15464250D02*
X10856310Y-15473774D01*
X10856310Y-15473774D02*
X10865834Y-15492822D01*
X10865834Y-15492822D02*
X10865834Y-15597584D01*
X10865834Y-15492822D02*
X10875358Y-15473774D01*
X10875358Y-15473774D02*
X10894405Y-15464250D01*
X10894405Y-15464250D02*
X10922977Y-15464250D01*
X10922977Y-15464250D02*
X10942025Y-15473774D01*
X10942025Y-15473774D02*
X10951548Y-15492822D01*
X10951548Y-15492822D02*
X10951548Y-15597584D01*
X11046786Y-15597584D02*
X11046786Y-15464250D01*
X11046786Y-15483298D02*
X11056310Y-15473774D01*
X11056310Y-15473774D02*
X11075358Y-15464250D01*
X11075358Y-15464250D02*
X11103929Y-15464250D01*
X11103929Y-15464250D02*
X11122977Y-15473774D01*
X11122977Y-15473774D02*
X11132501Y-15492822D01*
X11132501Y-15492822D02*
X11132501Y-15597584D01*
X11132501Y-15492822D02*
X11142025Y-15473774D01*
X11142025Y-15473774D02*
X11161072Y-15464250D01*
X11161072Y-15464250D02*
X11189643Y-15464250D01*
X11189643Y-15464250D02*
X11208691Y-15473774D01*
X11208691Y-15473774D02*
X11218215Y-15492822D01*
X11218215Y-15492822D02*
X11218215Y-15597584D01*
X11608691Y-15388060D02*
X11437263Y-15645203D01*
X11865834Y-15397584D02*
X11884882Y-15397584D01*
X11884882Y-15397584D02*
X11903929Y-15407108D01*
X11903929Y-15407108D02*
X11913453Y-15416631D01*
X11913453Y-15416631D02*
X11922977Y-15435679D01*
X11922977Y-15435679D02*
X11932501Y-15473774D01*
X11932501Y-15473774D02*
X11932501Y-15521393D01*
X11932501Y-15521393D02*
X11922977Y-15559488D01*
X11922977Y-15559488D02*
X11913453Y-15578536D01*
X11913453Y-15578536D02*
X11903929Y-15588060D01*
X11903929Y-15588060D02*
X11884882Y-15597584D01*
X11884882Y-15597584D02*
X11865834Y-15597584D01*
X11865834Y-15597584D02*
X11846786Y-15588060D01*
X11846786Y-15588060D02*
X11837263Y-15578536D01*
X11837263Y-15578536D02*
X11827739Y-15559488D01*
X11827739Y-15559488D02*
X11818215Y-15521393D01*
X11818215Y-15521393D02*
X11818215Y-15473774D01*
X11818215Y-15473774D02*
X11827739Y-15435679D01*
X11827739Y-15435679D02*
X11837263Y-15416631D01*
X11837263Y-15416631D02*
X11846786Y-15407108D01*
X11846786Y-15407108D02*
X11865834Y-15397584D01*
X12018215Y-15578536D02*
X12027739Y-15588060D01*
X12027739Y-15588060D02*
X12018215Y-15597584D01*
X12018215Y-15597584D02*
X12008691Y-15588060D01*
X12008691Y-15588060D02*
X12018215Y-15578536D01*
X12018215Y-15578536D02*
X12018215Y-15597584D01*
X12151548Y-15397584D02*
X12170596Y-15397584D01*
X12170596Y-15397584D02*
X12189644Y-15407108D01*
X12189644Y-15407108D02*
X12199167Y-15416631D01*
X12199167Y-15416631D02*
X12208691Y-15435679D01*
X12208691Y-15435679D02*
X12218215Y-15473774D01*
X12218215Y-15473774D02*
X12218215Y-15521393D01*
X12218215Y-15521393D02*
X12208691Y-15559488D01*
X12208691Y-15559488D02*
X12199167Y-15578536D01*
X12199167Y-15578536D02*
X12189644Y-15588060D01*
X12189644Y-15588060D02*
X12170596Y-15597584D01*
X12170596Y-15597584D02*
X12151548Y-15597584D01*
X12151548Y-15597584D02*
X12132501Y-15588060D01*
X12132501Y-15588060D02*
X12122977Y-15578536D01*
X12122977Y-15578536D02*
X12113453Y-15559488D01*
X12113453Y-15559488D02*
X12103929Y-15521393D01*
X12103929Y-15521393D02*
X12103929Y-15473774D01*
X12103929Y-15473774D02*
X12113453Y-15435679D01*
X12113453Y-15435679D02*
X12122977Y-15416631D01*
X12122977Y-15416631D02*
X12132501Y-15407108D01*
X12132501Y-15407108D02*
X12151548Y-15397584D01*
X12284882Y-15397584D02*
X12408691Y-15397584D01*
X12408691Y-15397584D02*
X12342025Y-15473774D01*
X12342025Y-15473774D02*
X12370596Y-15473774D01*
X12370596Y-15473774D02*
X12389644Y-15483298D01*
X12389644Y-15483298D02*
X12399167Y-15492822D01*
X12399167Y-15492822D02*
X12408691Y-15511869D01*
X12408691Y-15511869D02*
X12408691Y-15559488D01*
X12408691Y-15559488D02*
X12399167Y-15578536D01*
X12399167Y-15578536D02*
X12389644Y-15588060D01*
X12389644Y-15588060D02*
X12370596Y-15597584D01*
X12370596Y-15597584D02*
X12313453Y-15597584D01*
X12313453Y-15597584D02*
X12294406Y-15588060D01*
X12294406Y-15588060D02*
X12284882Y-15578536D01*
X12599167Y-15597584D02*
X12484882Y-15597584D01*
X12542025Y-15597584D02*
X12542025Y-15397584D01*
X12542025Y-15397584D02*
X12522977Y-15426155D01*
X12522977Y-15426155D02*
X12503929Y-15445203D01*
X12503929Y-15445203D02*
X12484882Y-15454727D01*
X12780120Y-15397584D02*
X12684882Y-15397584D01*
X12684882Y-15397584D02*
X12675358Y-15492822D01*
X12675358Y-15492822D02*
X12684882Y-15483298D01*
X12684882Y-15483298D02*
X12703929Y-15473774D01*
X12703929Y-15473774D02*
X12751548Y-15473774D01*
X12751548Y-15473774D02*
X12770596Y-15483298D01*
X12770596Y-15483298D02*
X12780120Y-15492822D01*
X12780120Y-15492822D02*
X12789644Y-15511869D01*
X12789644Y-15511869D02*
X12789644Y-15559488D01*
X12789644Y-15559488D02*
X12780120Y-15578536D01*
X12780120Y-15578536D02*
X12770596Y-15588060D01*
X12770596Y-15588060D02*
X12751548Y-15597584D01*
X12751548Y-15597584D02*
X12703929Y-15597584D01*
X12703929Y-15597584D02*
X12684882Y-15588060D01*
X12684882Y-15588060D02*
X12675358Y-15578536D01*
X12865834Y-15397584D02*
X12865834Y-15435679D01*
X12942025Y-15397584D02*
X12942025Y-15435679D01*
X13237263Y-15673774D02*
X13227739Y-15664250D01*
X13227739Y-15664250D02*
X13208691Y-15635679D01*
X13208691Y-15635679D02*
X13199168Y-15616631D01*
X13199168Y-15616631D02*
X13189644Y-15588060D01*
X13189644Y-15588060D02*
X13180120Y-15540441D01*
X13180120Y-15540441D02*
X13180120Y-15502346D01*
X13180120Y-15502346D02*
X13189644Y-15454727D01*
X13189644Y-15454727D02*
X13199168Y-15426155D01*
X13199168Y-15426155D02*
X13208691Y-15407108D01*
X13208691Y-15407108D02*
X13227739Y-15378536D01*
X13227739Y-15378536D02*
X13237263Y-15369012D01*
X13418215Y-15597584D02*
X13303929Y-15597584D01*
X13361072Y-15597584D02*
X13361072Y-15397584D01*
X13361072Y-15397584D02*
X13342025Y-15426155D01*
X13342025Y-15426155D02*
X13322977Y-15445203D01*
X13322977Y-15445203D02*
X13303929Y-15454727D01*
X13608691Y-15597584D02*
X13494406Y-15597584D01*
X13551548Y-15597584D02*
X13551548Y-15397584D01*
X13551548Y-15397584D02*
X13532501Y-15426155D01*
X13532501Y-15426155D02*
X13513453Y-15445203D01*
X13513453Y-15445203D02*
X13494406Y-15454727D01*
X13789644Y-15397584D02*
X13694406Y-15397584D01*
X13694406Y-15397584D02*
X13684882Y-15492822D01*
X13684882Y-15492822D02*
X13694406Y-15483298D01*
X13694406Y-15483298D02*
X13713453Y-15473774D01*
X13713453Y-15473774D02*
X13761072Y-15473774D01*
X13761072Y-15473774D02*
X13780120Y-15483298D01*
X13780120Y-15483298D02*
X13789644Y-15492822D01*
X13789644Y-15492822D02*
X13799168Y-15511869D01*
X13799168Y-15511869D02*
X13799168Y-15559488D01*
X13799168Y-15559488D02*
X13789644Y-15578536D01*
X13789644Y-15578536D02*
X13780120Y-15588060D01*
X13780120Y-15588060D02*
X13761072Y-15597584D01*
X13761072Y-15597584D02*
X13713453Y-15597584D01*
X13713453Y-15597584D02*
X13694406Y-15588060D01*
X13694406Y-15588060D02*
X13684882Y-15578536D01*
X14037263Y-15597584D02*
X14037263Y-15397584D01*
X14122977Y-15597584D02*
X14122977Y-15492822D01*
X14122977Y-15492822D02*
X14113453Y-15473774D01*
X14113453Y-15473774D02*
X14094406Y-15464250D01*
X14094406Y-15464250D02*
X14065834Y-15464250D01*
X14065834Y-15464250D02*
X14046787Y-15473774D01*
X14046787Y-15473774D02*
X14037263Y-15483298D01*
X14246787Y-15597584D02*
X14227739Y-15588060D01*
X14227739Y-15588060D02*
X14218215Y-15578536D01*
X14218215Y-15578536D02*
X14208691Y-15559488D01*
X14208691Y-15559488D02*
X14208691Y-15502346D01*
X14208691Y-15502346D02*
X14218215Y-15483298D01*
X14218215Y-15483298D02*
X14227739Y-15473774D01*
X14227739Y-15473774D02*
X14246787Y-15464250D01*
X14246787Y-15464250D02*
X14275358Y-15464250D01*
X14275358Y-15464250D02*
X14294406Y-15473774D01*
X14294406Y-15473774D02*
X14303930Y-15483298D01*
X14303930Y-15483298D02*
X14313453Y-15502346D01*
X14313453Y-15502346D02*
X14313453Y-15559488D01*
X14313453Y-15559488D02*
X14303930Y-15578536D01*
X14303930Y-15578536D02*
X14294406Y-15588060D01*
X14294406Y-15588060D02*
X14275358Y-15597584D01*
X14275358Y-15597584D02*
X14246787Y-15597584D01*
X14427739Y-15597584D02*
X14408691Y-15588060D01*
X14408691Y-15588060D02*
X14399168Y-15569012D01*
X14399168Y-15569012D02*
X14399168Y-15397584D01*
X14580120Y-15588060D02*
X14561072Y-15597584D01*
X14561072Y-15597584D02*
X14522977Y-15597584D01*
X14522977Y-15597584D02*
X14503930Y-15588060D01*
X14503930Y-15588060D02*
X14494406Y-15569012D01*
X14494406Y-15569012D02*
X14494406Y-15492822D01*
X14494406Y-15492822D02*
X14503930Y-15473774D01*
X14503930Y-15473774D02*
X14522977Y-15464250D01*
X14522977Y-15464250D02*
X14561072Y-15464250D01*
X14561072Y-15464250D02*
X14580120Y-15473774D01*
X14580120Y-15473774D02*
X14589644Y-15492822D01*
X14589644Y-15492822D02*
X14589644Y-15511869D01*
X14589644Y-15511869D02*
X14494406Y-15530917D01*
X14665834Y-15588060D02*
X14684882Y-15597584D01*
X14684882Y-15597584D02*
X14722977Y-15597584D01*
X14722977Y-15597584D02*
X14742025Y-15588060D01*
X14742025Y-15588060D02*
X14751549Y-15569012D01*
X14751549Y-15569012D02*
X14751549Y-15559488D01*
X14751549Y-15559488D02*
X14742025Y-15540441D01*
X14742025Y-15540441D02*
X14722977Y-15530917D01*
X14722977Y-15530917D02*
X14694406Y-15530917D01*
X14694406Y-15530917D02*
X14675358Y-15521393D01*
X14675358Y-15521393D02*
X14665834Y-15502346D01*
X14665834Y-15502346D02*
X14665834Y-15492822D01*
X14665834Y-15492822D02*
X14675358Y-15473774D01*
X14675358Y-15473774D02*
X14694406Y-15464250D01*
X14694406Y-15464250D02*
X14722977Y-15464250D01*
X14722977Y-15464250D02*
X14742025Y-15473774D01*
X14818215Y-15673774D02*
X14827739Y-15664250D01*
X14827739Y-15664250D02*
X14846787Y-15635679D01*
X14846787Y-15635679D02*
X14856311Y-15616631D01*
X14856311Y-15616631D02*
X14865834Y-15588060D01*
X14865834Y-15588060D02*
X14875358Y-15540441D01*
X14875358Y-15540441D02*
X14875358Y-15502346D01*
X14875358Y-15502346D02*
X14865834Y-15454727D01*
X14865834Y-15454727D02*
X14856311Y-15426155D01*
X14856311Y-15426155D02*
X14846787Y-15407108D01*
X14846787Y-15407108D02*
X14827739Y-15378536D01*
X14827739Y-15378536D02*
X14818215Y-15369012D01*
D12*
X9617200Y-15815100D02*
X9662200Y-15770100D01*
X9617200Y-15725100D01*
X9572200Y-15770100D01*
X9617200Y-15815100D01*
D11*
X9961072Y-15661584D02*
X9980120Y-15661584D01*
X9980120Y-15661584D02*
X9999167Y-15671108D01*
X9999167Y-15671108D02*
X10008691Y-15680631D01*
X10008691Y-15680631D02*
X10018215Y-15699679D01*
X10018215Y-15699679D02*
X10027739Y-15737774D01*
X10027739Y-15737774D02*
X10027739Y-15785393D01*
X10027739Y-15785393D02*
X10018215Y-15823488D01*
X10018215Y-15823488D02*
X10008691Y-15842536D01*
X10008691Y-15842536D02*
X9999167Y-15852060D01*
X9999167Y-15852060D02*
X9980120Y-15861584D01*
X9980120Y-15861584D02*
X9961072Y-15861584D01*
X9961072Y-15861584D02*
X9942024Y-15852060D01*
X9942024Y-15852060D02*
X9932501Y-15842536D01*
X9932501Y-15842536D02*
X9922977Y-15823488D01*
X9922977Y-15823488D02*
X9913453Y-15785393D01*
X9913453Y-15785393D02*
X9913453Y-15737774D01*
X9913453Y-15737774D02*
X9922977Y-15699679D01*
X9922977Y-15699679D02*
X9932501Y-15680631D01*
X9932501Y-15680631D02*
X9942024Y-15671108D01*
X9942024Y-15671108D02*
X9961072Y-15661584D01*
X10113453Y-15842536D02*
X10122977Y-15852060D01*
X10122977Y-15852060D02*
X10113453Y-15861584D01*
X10113453Y-15861584D02*
X10103929Y-15852060D01*
X10103929Y-15852060D02*
X10113453Y-15842536D01*
X10113453Y-15842536D02*
X10113453Y-15861584D01*
X10218215Y-15861584D02*
X10256310Y-15861584D01*
X10256310Y-15861584D02*
X10275358Y-15852060D01*
X10275358Y-15852060D02*
X10284882Y-15842536D01*
X10284882Y-15842536D02*
X10303929Y-15813965D01*
X10303929Y-15813965D02*
X10313453Y-15775869D01*
X10313453Y-15775869D02*
X10313453Y-15699679D01*
X10313453Y-15699679D02*
X10303929Y-15680631D01*
X10303929Y-15680631D02*
X10294405Y-15671108D01*
X10294405Y-15671108D02*
X10275358Y-15661584D01*
X10275358Y-15661584D02*
X10237263Y-15661584D01*
X10237263Y-15661584D02*
X10218215Y-15671108D01*
X10218215Y-15671108D02*
X10208691Y-15680631D01*
X10208691Y-15680631D02*
X10199167Y-15699679D01*
X10199167Y-15699679D02*
X10199167Y-15747298D01*
X10199167Y-15747298D02*
X10208691Y-15766346D01*
X10208691Y-15766346D02*
X10218215Y-15775869D01*
X10218215Y-15775869D02*
X10237263Y-15785393D01*
X10237263Y-15785393D02*
X10275358Y-15785393D01*
X10275358Y-15785393D02*
X10294405Y-15775869D01*
X10294405Y-15775869D02*
X10303929Y-15766346D01*
X10303929Y-15766346D02*
X10313453Y-15747298D01*
X10437263Y-15661584D02*
X10456310Y-15661584D01*
X10456310Y-15661584D02*
X10475358Y-15671108D01*
X10475358Y-15671108D02*
X10484882Y-15680631D01*
X10484882Y-15680631D02*
X10494405Y-15699679D01*
X10494405Y-15699679D02*
X10503929Y-15737774D01*
X10503929Y-15737774D02*
X10503929Y-15785393D01*
X10503929Y-15785393D02*
X10494405Y-15823488D01*
X10494405Y-15823488D02*
X10484882Y-15842536D01*
X10484882Y-15842536D02*
X10475358Y-15852060D01*
X10475358Y-15852060D02*
X10456310Y-15861584D01*
X10456310Y-15861584D02*
X10437263Y-15861584D01*
X10437263Y-15861584D02*
X10418215Y-15852060D01*
X10418215Y-15852060D02*
X10408691Y-15842536D01*
X10408691Y-15842536D02*
X10399167Y-15823488D01*
X10399167Y-15823488D02*
X10389644Y-15785393D01*
X10389644Y-15785393D02*
X10389644Y-15737774D01*
X10389644Y-15737774D02*
X10399167Y-15699679D01*
X10399167Y-15699679D02*
X10408691Y-15680631D01*
X10408691Y-15680631D02*
X10418215Y-15671108D01*
X10418215Y-15671108D02*
X10437263Y-15661584D01*
X10627739Y-15661584D02*
X10646786Y-15661584D01*
X10646786Y-15661584D02*
X10665834Y-15671108D01*
X10665834Y-15671108D02*
X10675358Y-15680631D01*
X10675358Y-15680631D02*
X10684882Y-15699679D01*
X10684882Y-15699679D02*
X10694405Y-15737774D01*
X10694405Y-15737774D02*
X10694405Y-15785393D01*
X10694405Y-15785393D02*
X10684882Y-15823488D01*
X10684882Y-15823488D02*
X10675358Y-15842536D01*
X10675358Y-15842536D02*
X10665834Y-15852060D01*
X10665834Y-15852060D02*
X10646786Y-15861584D01*
X10646786Y-15861584D02*
X10627739Y-15861584D01*
X10627739Y-15861584D02*
X10608691Y-15852060D01*
X10608691Y-15852060D02*
X10599167Y-15842536D01*
X10599167Y-15842536D02*
X10589644Y-15823488D01*
X10589644Y-15823488D02*
X10580120Y-15785393D01*
X10580120Y-15785393D02*
X10580120Y-15737774D01*
X10580120Y-15737774D02*
X10589644Y-15699679D01*
X10589644Y-15699679D02*
X10599167Y-15680631D01*
X10599167Y-15680631D02*
X10608691Y-15671108D01*
X10608691Y-15671108D02*
X10627739Y-15661584D01*
X10780120Y-15861584D02*
X10780120Y-15728250D01*
X10780120Y-15747298D02*
X10789644Y-15737774D01*
X10789644Y-15737774D02*
X10808691Y-15728250D01*
X10808691Y-15728250D02*
X10837263Y-15728250D01*
X10837263Y-15728250D02*
X10856310Y-15737774D01*
X10856310Y-15737774D02*
X10865834Y-15756822D01*
X10865834Y-15756822D02*
X10865834Y-15861584D01*
X10865834Y-15756822D02*
X10875358Y-15737774D01*
X10875358Y-15737774D02*
X10894405Y-15728250D01*
X10894405Y-15728250D02*
X10922977Y-15728250D01*
X10922977Y-15728250D02*
X10942025Y-15737774D01*
X10942025Y-15737774D02*
X10951548Y-15756822D01*
X10951548Y-15756822D02*
X10951548Y-15861584D01*
X11046786Y-15861584D02*
X11046786Y-15728250D01*
X11046786Y-15747298D02*
X11056310Y-15737774D01*
X11056310Y-15737774D02*
X11075358Y-15728250D01*
X11075358Y-15728250D02*
X11103929Y-15728250D01*
X11103929Y-15728250D02*
X11122977Y-15737774D01*
X11122977Y-15737774D02*
X11132501Y-15756822D01*
X11132501Y-15756822D02*
X11132501Y-15861584D01*
X11132501Y-15756822D02*
X11142025Y-15737774D01*
X11142025Y-15737774D02*
X11161072Y-15728250D01*
X11161072Y-15728250D02*
X11189643Y-15728250D01*
X11189643Y-15728250D02*
X11208691Y-15737774D01*
X11208691Y-15737774D02*
X11218215Y-15756822D01*
X11218215Y-15756822D02*
X11218215Y-15861584D01*
X11608691Y-15652060D02*
X11437263Y-15909203D01*
X11865834Y-15661584D02*
X11884882Y-15661584D01*
X11884882Y-15661584D02*
X11903929Y-15671108D01*
X11903929Y-15671108D02*
X11913453Y-15680631D01*
X11913453Y-15680631D02*
X11922977Y-15699679D01*
X11922977Y-15699679D02*
X11932501Y-15737774D01*
X11932501Y-15737774D02*
X11932501Y-15785393D01*
X11932501Y-15785393D02*
X11922977Y-15823488D01*
X11922977Y-15823488D02*
X11913453Y-15842536D01*
X11913453Y-15842536D02*
X11903929Y-15852060D01*
X11903929Y-15852060D02*
X11884882Y-15861584D01*
X11884882Y-15861584D02*
X11865834Y-15861584D01*
X11865834Y-15861584D02*
X11846786Y-15852060D01*
X11846786Y-15852060D02*
X11837263Y-15842536D01*
X11837263Y-15842536D02*
X11827739Y-15823488D01*
X11827739Y-15823488D02*
X11818215Y-15785393D01*
X11818215Y-15785393D02*
X11818215Y-15737774D01*
X11818215Y-15737774D02*
X11827739Y-15699679D01*
X11827739Y-15699679D02*
X11837263Y-15680631D01*
X11837263Y-15680631D02*
X11846786Y-15671108D01*
X11846786Y-15671108D02*
X11865834Y-15661584D01*
X12018215Y-15842536D02*
X12027739Y-15852060D01*
X12027739Y-15852060D02*
X12018215Y-15861584D01*
X12018215Y-15861584D02*
X12008691Y-15852060D01*
X12008691Y-15852060D02*
X12018215Y-15842536D01*
X12018215Y-15842536D02*
X12018215Y-15861584D01*
X12151548Y-15661584D02*
X12170596Y-15661584D01*
X12170596Y-15661584D02*
X12189644Y-15671108D01*
X12189644Y-15671108D02*
X12199167Y-15680631D01*
X12199167Y-15680631D02*
X12208691Y-15699679D01*
X12208691Y-15699679D02*
X12218215Y-15737774D01*
X12218215Y-15737774D02*
X12218215Y-15785393D01*
X12218215Y-15785393D02*
X12208691Y-15823488D01*
X12208691Y-15823488D02*
X12199167Y-15842536D01*
X12199167Y-15842536D02*
X12189644Y-15852060D01*
X12189644Y-15852060D02*
X12170596Y-15861584D01*
X12170596Y-15861584D02*
X12151548Y-15861584D01*
X12151548Y-15861584D02*
X12132501Y-15852060D01*
X12132501Y-15852060D02*
X12122977Y-15842536D01*
X12122977Y-15842536D02*
X12113453Y-15823488D01*
X12113453Y-15823488D02*
X12103929Y-15785393D01*
X12103929Y-15785393D02*
X12103929Y-15737774D01*
X12103929Y-15737774D02*
X12113453Y-15699679D01*
X12113453Y-15699679D02*
X12122977Y-15680631D01*
X12122977Y-15680631D02*
X12132501Y-15671108D01*
X12132501Y-15671108D02*
X12151548Y-15661584D01*
X12284882Y-15661584D02*
X12408691Y-15661584D01*
X12408691Y-15661584D02*
X12342025Y-15737774D01*
X12342025Y-15737774D02*
X12370596Y-15737774D01*
X12370596Y-15737774D02*
X12389644Y-15747298D01*
X12389644Y-15747298D02*
X12399167Y-15756822D01*
X12399167Y-15756822D02*
X12408691Y-15775869D01*
X12408691Y-15775869D02*
X12408691Y-15823488D01*
X12408691Y-15823488D02*
X12399167Y-15842536D01*
X12399167Y-15842536D02*
X12389644Y-15852060D01*
X12389644Y-15852060D02*
X12370596Y-15861584D01*
X12370596Y-15861584D02*
X12313453Y-15861584D01*
X12313453Y-15861584D02*
X12294406Y-15852060D01*
X12294406Y-15852060D02*
X12284882Y-15842536D01*
X12589644Y-15661584D02*
X12494406Y-15661584D01*
X12494406Y-15661584D02*
X12484882Y-15756822D01*
X12484882Y-15756822D02*
X12494406Y-15747298D01*
X12494406Y-15747298D02*
X12513453Y-15737774D01*
X12513453Y-15737774D02*
X12561072Y-15737774D01*
X12561072Y-15737774D02*
X12580120Y-15747298D01*
X12580120Y-15747298D02*
X12589644Y-15756822D01*
X12589644Y-15756822D02*
X12599167Y-15775869D01*
X12599167Y-15775869D02*
X12599167Y-15823488D01*
X12599167Y-15823488D02*
X12589644Y-15842536D01*
X12589644Y-15842536D02*
X12580120Y-15852060D01*
X12580120Y-15852060D02*
X12561072Y-15861584D01*
X12561072Y-15861584D02*
X12513453Y-15861584D01*
X12513453Y-15861584D02*
X12494406Y-15852060D01*
X12494406Y-15852060D02*
X12484882Y-15842536D01*
X12770596Y-15728250D02*
X12770596Y-15861584D01*
X12722977Y-15652060D02*
X12675358Y-15794917D01*
X12675358Y-15794917D02*
X12799167Y-15794917D01*
X12865834Y-15661584D02*
X12865834Y-15699679D01*
X12942025Y-15661584D02*
X12942025Y-15699679D01*
X13237263Y-15937774D02*
X13227739Y-15928250D01*
X13227739Y-15928250D02*
X13208691Y-15899679D01*
X13208691Y-15899679D02*
X13199168Y-15880631D01*
X13199168Y-15880631D02*
X13189644Y-15852060D01*
X13189644Y-15852060D02*
X13180120Y-15804441D01*
X13180120Y-15804441D02*
X13180120Y-15766346D01*
X13180120Y-15766346D02*
X13189644Y-15718727D01*
X13189644Y-15718727D02*
X13199168Y-15690155D01*
X13199168Y-15690155D02*
X13208691Y-15671108D01*
X13208691Y-15671108D02*
X13227739Y-15642536D01*
X13227739Y-15642536D02*
X13237263Y-15633012D01*
X13399168Y-15661584D02*
X13361072Y-15661584D01*
X13361072Y-15661584D02*
X13342025Y-15671108D01*
X13342025Y-15671108D02*
X13332501Y-15680631D01*
X13332501Y-15680631D02*
X13313453Y-15709203D01*
X13313453Y-15709203D02*
X13303929Y-15747298D01*
X13303929Y-15747298D02*
X13303929Y-15823488D01*
X13303929Y-15823488D02*
X13313453Y-15842536D01*
X13313453Y-15842536D02*
X13322977Y-15852060D01*
X13322977Y-15852060D02*
X13342025Y-15861584D01*
X13342025Y-15861584D02*
X13380120Y-15861584D01*
X13380120Y-15861584D02*
X13399168Y-15852060D01*
X13399168Y-15852060D02*
X13408691Y-15842536D01*
X13408691Y-15842536D02*
X13418215Y-15823488D01*
X13418215Y-15823488D02*
X13418215Y-15775869D01*
X13418215Y-15775869D02*
X13408691Y-15756822D01*
X13408691Y-15756822D02*
X13399168Y-15747298D01*
X13399168Y-15747298D02*
X13380120Y-15737774D01*
X13380120Y-15737774D02*
X13342025Y-15737774D01*
X13342025Y-15737774D02*
X13322977Y-15747298D01*
X13322977Y-15747298D02*
X13313453Y-15756822D01*
X13313453Y-15756822D02*
X13303929Y-15775869D01*
X13656310Y-15861584D02*
X13656310Y-15661584D01*
X13742025Y-15861584D02*
X13742025Y-15756822D01*
X13742025Y-15756822D02*
X13732501Y-15737774D01*
X13732501Y-15737774D02*
X13713453Y-15728250D01*
X13713453Y-15728250D02*
X13684882Y-15728250D01*
X13684882Y-15728250D02*
X13665834Y-15737774D01*
X13665834Y-15737774D02*
X13656310Y-15747298D01*
X13865834Y-15861584D02*
X13846787Y-15852060D01*
X13846787Y-15852060D02*
X13837263Y-15842536D01*
X13837263Y-15842536D02*
X13827739Y-15823488D01*
X13827739Y-15823488D02*
X13827739Y-15766346D01*
X13827739Y-15766346D02*
X13837263Y-15747298D01*
X13837263Y-15747298D02*
X13846787Y-15737774D01*
X13846787Y-15737774D02*
X13865834Y-15728250D01*
X13865834Y-15728250D02*
X13894406Y-15728250D01*
X13894406Y-15728250D02*
X13913453Y-15737774D01*
X13913453Y-15737774D02*
X13922977Y-15747298D01*
X13922977Y-15747298D02*
X13932501Y-15766346D01*
X13932501Y-15766346D02*
X13932501Y-15823488D01*
X13932501Y-15823488D02*
X13922977Y-15842536D01*
X13922977Y-15842536D02*
X13913453Y-15852060D01*
X13913453Y-15852060D02*
X13894406Y-15861584D01*
X13894406Y-15861584D02*
X13865834Y-15861584D01*
X14046787Y-15861584D02*
X14027739Y-15852060D01*
X14027739Y-15852060D02*
X14018215Y-15833012D01*
X14018215Y-15833012D02*
X14018215Y-15661584D01*
X14199168Y-15852060D02*
X14180120Y-15861584D01*
X14180120Y-15861584D02*
X14142025Y-15861584D01*
X14142025Y-15861584D02*
X14122977Y-15852060D01*
X14122977Y-15852060D02*
X14113453Y-15833012D01*
X14113453Y-15833012D02*
X14113453Y-15756822D01*
X14113453Y-15756822D02*
X14122977Y-15737774D01*
X14122977Y-15737774D02*
X14142025Y-15728250D01*
X14142025Y-15728250D02*
X14180120Y-15728250D01*
X14180120Y-15728250D02*
X14199168Y-15737774D01*
X14199168Y-15737774D02*
X14208691Y-15756822D01*
X14208691Y-15756822D02*
X14208691Y-15775869D01*
X14208691Y-15775869D02*
X14113453Y-15794917D01*
X14284882Y-15852060D02*
X14303930Y-15861584D01*
X14303930Y-15861584D02*
X14342025Y-15861584D01*
X14342025Y-15861584D02*
X14361072Y-15852060D01*
X14361072Y-15852060D02*
X14370596Y-15833012D01*
X14370596Y-15833012D02*
X14370596Y-15823488D01*
X14370596Y-15823488D02*
X14361072Y-15804441D01*
X14361072Y-15804441D02*
X14342025Y-15794917D01*
X14342025Y-15794917D02*
X14313453Y-15794917D01*
X14313453Y-15794917D02*
X14294406Y-15785393D01*
X14294406Y-15785393D02*
X14284882Y-15766346D01*
X14284882Y-15766346D02*
X14284882Y-15756822D01*
X14284882Y-15756822D02*
X14294406Y-15737774D01*
X14294406Y-15737774D02*
X14313453Y-15728250D01*
X14313453Y-15728250D02*
X14342025Y-15728250D01*
X14342025Y-15728250D02*
X14361072Y-15737774D01*
X14437263Y-15937774D02*
X14446787Y-15928250D01*
X14446787Y-15928250D02*
X14465834Y-15899679D01*
X14465834Y-15899679D02*
X14475358Y-15880631D01*
X14475358Y-15880631D02*
X14484882Y-15852060D01*
X14484882Y-15852060D02*
X14494406Y-15804441D01*
X14494406Y-15804441D02*
X14494406Y-15766346D01*
X14494406Y-15766346D02*
X14484882Y-15718727D01*
X14484882Y-15718727D02*
X14475358Y-15690155D01*
X14475358Y-15690155D02*
X14465834Y-15671108D01*
X14465834Y-15671108D02*
X14446787Y-15642536D01*
X14446787Y-15642536D02*
X14437263Y-15633012D01*
D12*
X9562200Y-15984100D02*
X9662200Y-16084100D01*
X9662200Y-15984100D02*
X9562200Y-16084100D01*
X9662200Y-16034100D02*
G75*
G03*
X9562200Y-16034100I-50000J0D01*
G01*
X9562200Y-16034100D02*
G75*
G03*
X9662200Y-16034100I50000J0D01*
G01*
D11*
X10027739Y-16125584D02*
X9913453Y-16125584D01*
X9970596Y-16125584D02*
X9970596Y-15925584D01*
X9970596Y-15925584D02*
X9951548Y-15954155D01*
X9951548Y-15954155D02*
X9932501Y-15973203D01*
X9932501Y-15973203D02*
X9913453Y-15982727D01*
X10113453Y-16106536D02*
X10122977Y-16116060D01*
X10122977Y-16116060D02*
X10113453Y-16125584D01*
X10113453Y-16125584D02*
X10103929Y-16116060D01*
X10103929Y-16116060D02*
X10113453Y-16106536D01*
X10113453Y-16106536D02*
X10113453Y-16125584D01*
X10246786Y-15925584D02*
X10265834Y-15925584D01*
X10265834Y-15925584D02*
X10284882Y-15935108D01*
X10284882Y-15935108D02*
X10294405Y-15944631D01*
X10294405Y-15944631D02*
X10303929Y-15963679D01*
X10303929Y-15963679D02*
X10313453Y-16001774D01*
X10313453Y-16001774D02*
X10313453Y-16049393D01*
X10313453Y-16049393D02*
X10303929Y-16087488D01*
X10303929Y-16087488D02*
X10294405Y-16106536D01*
X10294405Y-16106536D02*
X10284882Y-16116060D01*
X10284882Y-16116060D02*
X10265834Y-16125584D01*
X10265834Y-16125584D02*
X10246786Y-16125584D01*
X10246786Y-16125584D02*
X10227739Y-16116060D01*
X10227739Y-16116060D02*
X10218215Y-16106536D01*
X10218215Y-16106536D02*
X10208691Y-16087488D01*
X10208691Y-16087488D02*
X10199167Y-16049393D01*
X10199167Y-16049393D02*
X10199167Y-16001774D01*
X10199167Y-16001774D02*
X10208691Y-15963679D01*
X10208691Y-15963679D02*
X10218215Y-15944631D01*
X10218215Y-15944631D02*
X10227739Y-15935108D01*
X10227739Y-15935108D02*
X10246786Y-15925584D01*
X10437263Y-15925584D02*
X10456310Y-15925584D01*
X10456310Y-15925584D02*
X10475358Y-15935108D01*
X10475358Y-15935108D02*
X10484882Y-15944631D01*
X10484882Y-15944631D02*
X10494405Y-15963679D01*
X10494405Y-15963679D02*
X10503929Y-16001774D01*
X10503929Y-16001774D02*
X10503929Y-16049393D01*
X10503929Y-16049393D02*
X10494405Y-16087488D01*
X10494405Y-16087488D02*
X10484882Y-16106536D01*
X10484882Y-16106536D02*
X10475358Y-16116060D01*
X10475358Y-16116060D02*
X10456310Y-16125584D01*
X10456310Y-16125584D02*
X10437263Y-16125584D01*
X10437263Y-16125584D02*
X10418215Y-16116060D01*
X10418215Y-16116060D02*
X10408691Y-16106536D01*
X10408691Y-16106536D02*
X10399167Y-16087488D01*
X10399167Y-16087488D02*
X10389644Y-16049393D01*
X10389644Y-16049393D02*
X10389644Y-16001774D01*
X10389644Y-16001774D02*
X10399167Y-15963679D01*
X10399167Y-15963679D02*
X10408691Y-15944631D01*
X10408691Y-15944631D02*
X10418215Y-15935108D01*
X10418215Y-15935108D02*
X10437263Y-15925584D01*
X10627739Y-15925584D02*
X10646786Y-15925584D01*
X10646786Y-15925584D02*
X10665834Y-15935108D01*
X10665834Y-15935108D02*
X10675358Y-15944631D01*
X10675358Y-15944631D02*
X10684882Y-15963679D01*
X10684882Y-15963679D02*
X10694405Y-16001774D01*
X10694405Y-16001774D02*
X10694405Y-16049393D01*
X10694405Y-16049393D02*
X10684882Y-16087488D01*
X10684882Y-16087488D02*
X10675358Y-16106536D01*
X10675358Y-16106536D02*
X10665834Y-16116060D01*
X10665834Y-16116060D02*
X10646786Y-16125584D01*
X10646786Y-16125584D02*
X10627739Y-16125584D01*
X10627739Y-16125584D02*
X10608691Y-16116060D01*
X10608691Y-16116060D02*
X10599167Y-16106536D01*
X10599167Y-16106536D02*
X10589644Y-16087488D01*
X10589644Y-16087488D02*
X10580120Y-16049393D01*
X10580120Y-16049393D02*
X10580120Y-16001774D01*
X10580120Y-16001774D02*
X10589644Y-15963679D01*
X10589644Y-15963679D02*
X10599167Y-15944631D01*
X10599167Y-15944631D02*
X10608691Y-15935108D01*
X10608691Y-15935108D02*
X10627739Y-15925584D01*
X10780120Y-16125584D02*
X10780120Y-15992250D01*
X10780120Y-16011298D02*
X10789644Y-16001774D01*
X10789644Y-16001774D02*
X10808691Y-15992250D01*
X10808691Y-15992250D02*
X10837263Y-15992250D01*
X10837263Y-15992250D02*
X10856310Y-16001774D01*
X10856310Y-16001774D02*
X10865834Y-16020822D01*
X10865834Y-16020822D02*
X10865834Y-16125584D01*
X10865834Y-16020822D02*
X10875358Y-16001774D01*
X10875358Y-16001774D02*
X10894405Y-15992250D01*
X10894405Y-15992250D02*
X10922977Y-15992250D01*
X10922977Y-15992250D02*
X10942025Y-16001774D01*
X10942025Y-16001774D02*
X10951548Y-16020822D01*
X10951548Y-16020822D02*
X10951548Y-16125584D01*
X11046786Y-16125584D02*
X11046786Y-15992250D01*
X11046786Y-16011298D02*
X11056310Y-16001774D01*
X11056310Y-16001774D02*
X11075358Y-15992250D01*
X11075358Y-15992250D02*
X11103929Y-15992250D01*
X11103929Y-15992250D02*
X11122977Y-16001774D01*
X11122977Y-16001774D02*
X11132501Y-16020822D01*
X11132501Y-16020822D02*
X11132501Y-16125584D01*
X11132501Y-16020822D02*
X11142025Y-16001774D01*
X11142025Y-16001774D02*
X11161072Y-15992250D01*
X11161072Y-15992250D02*
X11189643Y-15992250D01*
X11189643Y-15992250D02*
X11208691Y-16001774D01*
X11208691Y-16001774D02*
X11218215Y-16020822D01*
X11218215Y-16020822D02*
X11218215Y-16125584D01*
X11608691Y-15916060D02*
X11437263Y-16173203D01*
X11865834Y-15925584D02*
X11884882Y-15925584D01*
X11884882Y-15925584D02*
X11903929Y-15935108D01*
X11903929Y-15935108D02*
X11913453Y-15944631D01*
X11913453Y-15944631D02*
X11922977Y-15963679D01*
X11922977Y-15963679D02*
X11932501Y-16001774D01*
X11932501Y-16001774D02*
X11932501Y-16049393D01*
X11932501Y-16049393D02*
X11922977Y-16087488D01*
X11922977Y-16087488D02*
X11913453Y-16106536D01*
X11913453Y-16106536D02*
X11903929Y-16116060D01*
X11903929Y-16116060D02*
X11884882Y-16125584D01*
X11884882Y-16125584D02*
X11865834Y-16125584D01*
X11865834Y-16125584D02*
X11846786Y-16116060D01*
X11846786Y-16116060D02*
X11837263Y-16106536D01*
X11837263Y-16106536D02*
X11827739Y-16087488D01*
X11827739Y-16087488D02*
X11818215Y-16049393D01*
X11818215Y-16049393D02*
X11818215Y-16001774D01*
X11818215Y-16001774D02*
X11827739Y-15963679D01*
X11827739Y-15963679D02*
X11837263Y-15944631D01*
X11837263Y-15944631D02*
X11846786Y-15935108D01*
X11846786Y-15935108D02*
X11865834Y-15925584D01*
X12018215Y-16106536D02*
X12027739Y-16116060D01*
X12027739Y-16116060D02*
X12018215Y-16125584D01*
X12018215Y-16125584D02*
X12008691Y-16116060D01*
X12008691Y-16116060D02*
X12018215Y-16106536D01*
X12018215Y-16106536D02*
X12018215Y-16125584D01*
X12151548Y-15925584D02*
X12170596Y-15925584D01*
X12170596Y-15925584D02*
X12189644Y-15935108D01*
X12189644Y-15935108D02*
X12199167Y-15944631D01*
X12199167Y-15944631D02*
X12208691Y-15963679D01*
X12208691Y-15963679D02*
X12218215Y-16001774D01*
X12218215Y-16001774D02*
X12218215Y-16049393D01*
X12218215Y-16049393D02*
X12208691Y-16087488D01*
X12208691Y-16087488D02*
X12199167Y-16106536D01*
X12199167Y-16106536D02*
X12189644Y-16116060D01*
X12189644Y-16116060D02*
X12170596Y-16125584D01*
X12170596Y-16125584D02*
X12151548Y-16125584D01*
X12151548Y-16125584D02*
X12132501Y-16116060D01*
X12132501Y-16116060D02*
X12122977Y-16106536D01*
X12122977Y-16106536D02*
X12113453Y-16087488D01*
X12113453Y-16087488D02*
X12103929Y-16049393D01*
X12103929Y-16049393D02*
X12103929Y-16001774D01*
X12103929Y-16001774D02*
X12113453Y-15963679D01*
X12113453Y-15963679D02*
X12122977Y-15944631D01*
X12122977Y-15944631D02*
X12132501Y-15935108D01*
X12132501Y-15935108D02*
X12151548Y-15925584D01*
X12284882Y-15925584D02*
X12408691Y-15925584D01*
X12408691Y-15925584D02*
X12342025Y-16001774D01*
X12342025Y-16001774D02*
X12370596Y-16001774D01*
X12370596Y-16001774D02*
X12389644Y-16011298D01*
X12389644Y-16011298D02*
X12399167Y-16020822D01*
X12399167Y-16020822D02*
X12408691Y-16039869D01*
X12408691Y-16039869D02*
X12408691Y-16087488D01*
X12408691Y-16087488D02*
X12399167Y-16106536D01*
X12399167Y-16106536D02*
X12389644Y-16116060D01*
X12389644Y-16116060D02*
X12370596Y-16125584D01*
X12370596Y-16125584D02*
X12313453Y-16125584D01*
X12313453Y-16125584D02*
X12294406Y-16116060D01*
X12294406Y-16116060D02*
X12284882Y-16106536D01*
X12503929Y-16125584D02*
X12542025Y-16125584D01*
X12542025Y-16125584D02*
X12561072Y-16116060D01*
X12561072Y-16116060D02*
X12570596Y-16106536D01*
X12570596Y-16106536D02*
X12589644Y-16077965D01*
X12589644Y-16077965D02*
X12599167Y-16039869D01*
X12599167Y-16039869D02*
X12599167Y-15963679D01*
X12599167Y-15963679D02*
X12589644Y-15944631D01*
X12589644Y-15944631D02*
X12580120Y-15935108D01*
X12580120Y-15935108D02*
X12561072Y-15925584D01*
X12561072Y-15925584D02*
X12522977Y-15925584D01*
X12522977Y-15925584D02*
X12503929Y-15935108D01*
X12503929Y-15935108D02*
X12494406Y-15944631D01*
X12494406Y-15944631D02*
X12484882Y-15963679D01*
X12484882Y-15963679D02*
X12484882Y-16011298D01*
X12484882Y-16011298D02*
X12494406Y-16030346D01*
X12494406Y-16030346D02*
X12503929Y-16039869D01*
X12503929Y-16039869D02*
X12522977Y-16049393D01*
X12522977Y-16049393D02*
X12561072Y-16049393D01*
X12561072Y-16049393D02*
X12580120Y-16039869D01*
X12580120Y-16039869D02*
X12589644Y-16030346D01*
X12589644Y-16030346D02*
X12599167Y-16011298D01*
X12770596Y-15992250D02*
X12770596Y-16125584D01*
X12722977Y-15916060D02*
X12675358Y-16058917D01*
X12675358Y-16058917D02*
X12799167Y-16058917D01*
X12865834Y-15925584D02*
X12865834Y-15963679D01*
X12942025Y-15925584D02*
X12942025Y-15963679D01*
X13237263Y-16201774D02*
X13227739Y-16192250D01*
X13227739Y-16192250D02*
X13208691Y-16163679D01*
X13208691Y-16163679D02*
X13199168Y-16144631D01*
X13199168Y-16144631D02*
X13189644Y-16116060D01*
X13189644Y-16116060D02*
X13180120Y-16068441D01*
X13180120Y-16068441D02*
X13180120Y-16030346D01*
X13180120Y-16030346D02*
X13189644Y-15982727D01*
X13189644Y-15982727D02*
X13199168Y-15954155D01*
X13199168Y-15954155D02*
X13208691Y-15935108D01*
X13208691Y-15935108D02*
X13227739Y-15906536D01*
X13227739Y-15906536D02*
X13237263Y-15897012D01*
X13342025Y-16011298D02*
X13322977Y-16001774D01*
X13322977Y-16001774D02*
X13313453Y-15992250D01*
X13313453Y-15992250D02*
X13303929Y-15973203D01*
X13303929Y-15973203D02*
X13303929Y-15963679D01*
X13303929Y-15963679D02*
X13313453Y-15944631D01*
X13313453Y-15944631D02*
X13322977Y-15935108D01*
X13322977Y-15935108D02*
X13342025Y-15925584D01*
X13342025Y-15925584D02*
X13380120Y-15925584D01*
X13380120Y-15925584D02*
X13399168Y-15935108D01*
X13399168Y-15935108D02*
X13408691Y-15944631D01*
X13408691Y-15944631D02*
X13418215Y-15963679D01*
X13418215Y-15963679D02*
X13418215Y-15973203D01*
X13418215Y-15973203D02*
X13408691Y-15992250D01*
X13408691Y-15992250D02*
X13399168Y-16001774D01*
X13399168Y-16001774D02*
X13380120Y-16011298D01*
X13380120Y-16011298D02*
X13342025Y-16011298D01*
X13342025Y-16011298D02*
X13322977Y-16020822D01*
X13322977Y-16020822D02*
X13313453Y-16030346D01*
X13313453Y-16030346D02*
X13303929Y-16049393D01*
X13303929Y-16049393D02*
X13303929Y-16087488D01*
X13303929Y-16087488D02*
X13313453Y-16106536D01*
X13313453Y-16106536D02*
X13322977Y-16116060D01*
X13322977Y-16116060D02*
X13342025Y-16125584D01*
X13342025Y-16125584D02*
X13380120Y-16125584D01*
X13380120Y-16125584D02*
X13399168Y-16116060D01*
X13399168Y-16116060D02*
X13408691Y-16106536D01*
X13408691Y-16106536D02*
X13418215Y-16087488D01*
X13418215Y-16087488D02*
X13418215Y-16049393D01*
X13418215Y-16049393D02*
X13408691Y-16030346D01*
X13408691Y-16030346D02*
X13399168Y-16020822D01*
X13399168Y-16020822D02*
X13380120Y-16011298D01*
X13608691Y-16125584D02*
X13494406Y-16125584D01*
X13551548Y-16125584D02*
X13551548Y-15925584D01*
X13551548Y-15925584D02*
X13532501Y-15954155D01*
X13532501Y-15954155D02*
X13513453Y-15973203D01*
X13513453Y-15973203D02*
X13494406Y-15982727D01*
X13846787Y-16125584D02*
X13846787Y-15925584D01*
X13932501Y-16125584D02*
X13932501Y-16020822D01*
X13932501Y-16020822D02*
X13922977Y-16001774D01*
X13922977Y-16001774D02*
X13903930Y-15992250D01*
X13903930Y-15992250D02*
X13875358Y-15992250D01*
X13875358Y-15992250D02*
X13856310Y-16001774D01*
X13856310Y-16001774D02*
X13846787Y-16011298D01*
X14056310Y-16125584D02*
X14037263Y-16116060D01*
X14037263Y-16116060D02*
X14027739Y-16106536D01*
X14027739Y-16106536D02*
X14018215Y-16087488D01*
X14018215Y-16087488D02*
X14018215Y-16030346D01*
X14018215Y-16030346D02*
X14027739Y-16011298D01*
X14027739Y-16011298D02*
X14037263Y-16001774D01*
X14037263Y-16001774D02*
X14056310Y-15992250D01*
X14056310Y-15992250D02*
X14084882Y-15992250D01*
X14084882Y-15992250D02*
X14103930Y-16001774D01*
X14103930Y-16001774D02*
X14113453Y-16011298D01*
X14113453Y-16011298D02*
X14122977Y-16030346D01*
X14122977Y-16030346D02*
X14122977Y-16087488D01*
X14122977Y-16087488D02*
X14113453Y-16106536D01*
X14113453Y-16106536D02*
X14103930Y-16116060D01*
X14103930Y-16116060D02*
X14084882Y-16125584D01*
X14084882Y-16125584D02*
X14056310Y-16125584D01*
X14237263Y-16125584D02*
X14218215Y-16116060D01*
X14218215Y-16116060D02*
X14208691Y-16097012D01*
X14208691Y-16097012D02*
X14208691Y-15925584D01*
X14389644Y-16116060D02*
X14370596Y-16125584D01*
X14370596Y-16125584D02*
X14332501Y-16125584D01*
X14332501Y-16125584D02*
X14313453Y-16116060D01*
X14313453Y-16116060D02*
X14303930Y-16097012D01*
X14303930Y-16097012D02*
X14303930Y-16020822D01*
X14303930Y-16020822D02*
X14313453Y-16001774D01*
X14313453Y-16001774D02*
X14332501Y-15992250D01*
X14332501Y-15992250D02*
X14370596Y-15992250D01*
X14370596Y-15992250D02*
X14389644Y-16001774D01*
X14389644Y-16001774D02*
X14399168Y-16020822D01*
X14399168Y-16020822D02*
X14399168Y-16039869D01*
X14399168Y-16039869D02*
X14303930Y-16058917D01*
X14475358Y-16116060D02*
X14494406Y-16125584D01*
X14494406Y-16125584D02*
X14532501Y-16125584D01*
X14532501Y-16125584D02*
X14551549Y-16116060D01*
X14551549Y-16116060D02*
X14561072Y-16097012D01*
X14561072Y-16097012D02*
X14561072Y-16087488D01*
X14561072Y-16087488D02*
X14551549Y-16068441D01*
X14551549Y-16068441D02*
X14532501Y-16058917D01*
X14532501Y-16058917D02*
X14503930Y-16058917D01*
X14503930Y-16058917D02*
X14484882Y-16049393D01*
X14484882Y-16049393D02*
X14475358Y-16030346D01*
X14475358Y-16030346D02*
X14475358Y-16020822D01*
X14475358Y-16020822D02*
X14484882Y-16001774D01*
X14484882Y-16001774D02*
X14503930Y-15992250D01*
X14503930Y-15992250D02*
X14532501Y-15992250D01*
X14532501Y-15992250D02*
X14551549Y-16001774D01*
X14627739Y-16201774D02*
X14637263Y-16192250D01*
X14637263Y-16192250D02*
X14656311Y-16163679D01*
X14656311Y-16163679D02*
X14665834Y-16144631D01*
X14665834Y-16144631D02*
X14675358Y-16116060D01*
X14675358Y-16116060D02*
X14684882Y-16068441D01*
X14684882Y-16068441D02*
X14684882Y-16030346D01*
X14684882Y-16030346D02*
X14675358Y-15982727D01*
X14675358Y-15982727D02*
X14665834Y-15954155D01*
X14665834Y-15954155D02*
X14656311Y-15935108D01*
X14656311Y-15935108D02*
X14637263Y-15906536D01*
X14637263Y-15906536D02*
X14627739Y-15897012D01*
X9462200Y-16198100D02*
X9662200Y-16398100D01*
X9662200Y-16198100D02*
X9462200Y-16398100D01*
X9562200Y-16198100D02*
X9562200Y-16398100D01*
X9462200Y-16298100D02*
X9662200Y-16298100D01*
X9903929Y-16189584D02*
X10027739Y-16189584D01*
X10027739Y-16189584D02*
X9961072Y-16265774D01*
X9961072Y-16265774D02*
X9989644Y-16265774D01*
X9989644Y-16265774D02*
X10008691Y-16275298D01*
X10008691Y-16275298D02*
X10018215Y-16284822D01*
X10018215Y-16284822D02*
X10027739Y-16303869D01*
X10027739Y-16303869D02*
X10027739Y-16351488D01*
X10027739Y-16351488D02*
X10018215Y-16370536D01*
X10018215Y-16370536D02*
X10008691Y-16380060D01*
X10008691Y-16380060D02*
X9989644Y-16389584D01*
X9989644Y-16389584D02*
X9932501Y-16389584D01*
X9932501Y-16389584D02*
X9913453Y-16380060D01*
X9913453Y-16380060D02*
X9903929Y-16370536D01*
X10113453Y-16370536D02*
X10122977Y-16380060D01*
X10122977Y-16380060D02*
X10113453Y-16389584D01*
X10113453Y-16389584D02*
X10103929Y-16380060D01*
X10103929Y-16380060D02*
X10113453Y-16370536D01*
X10113453Y-16370536D02*
X10113453Y-16389584D01*
X10199167Y-16208631D02*
X10208691Y-16199108D01*
X10208691Y-16199108D02*
X10227739Y-16189584D01*
X10227739Y-16189584D02*
X10275358Y-16189584D01*
X10275358Y-16189584D02*
X10294405Y-16199108D01*
X10294405Y-16199108D02*
X10303929Y-16208631D01*
X10303929Y-16208631D02*
X10313453Y-16227679D01*
X10313453Y-16227679D02*
X10313453Y-16246727D01*
X10313453Y-16246727D02*
X10303929Y-16275298D01*
X10303929Y-16275298D02*
X10189644Y-16389584D01*
X10189644Y-16389584D02*
X10313453Y-16389584D01*
X10437263Y-16189584D02*
X10456310Y-16189584D01*
X10456310Y-16189584D02*
X10475358Y-16199108D01*
X10475358Y-16199108D02*
X10484882Y-16208631D01*
X10484882Y-16208631D02*
X10494405Y-16227679D01*
X10494405Y-16227679D02*
X10503929Y-16265774D01*
X10503929Y-16265774D02*
X10503929Y-16313393D01*
X10503929Y-16313393D02*
X10494405Y-16351488D01*
X10494405Y-16351488D02*
X10484882Y-16370536D01*
X10484882Y-16370536D02*
X10475358Y-16380060D01*
X10475358Y-16380060D02*
X10456310Y-16389584D01*
X10456310Y-16389584D02*
X10437263Y-16389584D01*
X10437263Y-16389584D02*
X10418215Y-16380060D01*
X10418215Y-16380060D02*
X10408691Y-16370536D01*
X10408691Y-16370536D02*
X10399167Y-16351488D01*
X10399167Y-16351488D02*
X10389644Y-16313393D01*
X10389644Y-16313393D02*
X10389644Y-16265774D01*
X10389644Y-16265774D02*
X10399167Y-16227679D01*
X10399167Y-16227679D02*
X10408691Y-16208631D01*
X10408691Y-16208631D02*
X10418215Y-16199108D01*
X10418215Y-16199108D02*
X10437263Y-16189584D01*
X10627739Y-16189584D02*
X10646786Y-16189584D01*
X10646786Y-16189584D02*
X10665834Y-16199108D01*
X10665834Y-16199108D02*
X10675358Y-16208631D01*
X10675358Y-16208631D02*
X10684882Y-16227679D01*
X10684882Y-16227679D02*
X10694405Y-16265774D01*
X10694405Y-16265774D02*
X10694405Y-16313393D01*
X10694405Y-16313393D02*
X10684882Y-16351488D01*
X10684882Y-16351488D02*
X10675358Y-16370536D01*
X10675358Y-16370536D02*
X10665834Y-16380060D01*
X10665834Y-16380060D02*
X10646786Y-16389584D01*
X10646786Y-16389584D02*
X10627739Y-16389584D01*
X10627739Y-16389584D02*
X10608691Y-16380060D01*
X10608691Y-16380060D02*
X10599167Y-16370536D01*
X10599167Y-16370536D02*
X10589644Y-16351488D01*
X10589644Y-16351488D02*
X10580120Y-16313393D01*
X10580120Y-16313393D02*
X10580120Y-16265774D01*
X10580120Y-16265774D02*
X10589644Y-16227679D01*
X10589644Y-16227679D02*
X10599167Y-16208631D01*
X10599167Y-16208631D02*
X10608691Y-16199108D01*
X10608691Y-16199108D02*
X10627739Y-16189584D01*
X10780120Y-16389584D02*
X10780120Y-16256250D01*
X10780120Y-16275298D02*
X10789644Y-16265774D01*
X10789644Y-16265774D02*
X10808691Y-16256250D01*
X10808691Y-16256250D02*
X10837263Y-16256250D01*
X10837263Y-16256250D02*
X10856310Y-16265774D01*
X10856310Y-16265774D02*
X10865834Y-16284822D01*
X10865834Y-16284822D02*
X10865834Y-16389584D01*
X10865834Y-16284822D02*
X10875358Y-16265774D01*
X10875358Y-16265774D02*
X10894405Y-16256250D01*
X10894405Y-16256250D02*
X10922977Y-16256250D01*
X10922977Y-16256250D02*
X10942025Y-16265774D01*
X10942025Y-16265774D02*
X10951548Y-16284822D01*
X10951548Y-16284822D02*
X10951548Y-16389584D01*
X11046786Y-16389584D02*
X11046786Y-16256250D01*
X11046786Y-16275298D02*
X11056310Y-16265774D01*
X11056310Y-16265774D02*
X11075358Y-16256250D01*
X11075358Y-16256250D02*
X11103929Y-16256250D01*
X11103929Y-16256250D02*
X11122977Y-16265774D01*
X11122977Y-16265774D02*
X11132501Y-16284822D01*
X11132501Y-16284822D02*
X11132501Y-16389584D01*
X11132501Y-16284822D02*
X11142025Y-16265774D01*
X11142025Y-16265774D02*
X11161072Y-16256250D01*
X11161072Y-16256250D02*
X11189643Y-16256250D01*
X11189643Y-16256250D02*
X11208691Y-16265774D01*
X11208691Y-16265774D02*
X11218215Y-16284822D01*
X11218215Y-16284822D02*
X11218215Y-16389584D01*
X11608691Y-16180060D02*
X11437263Y-16437203D01*
X11865834Y-16189584D02*
X11884882Y-16189584D01*
X11884882Y-16189584D02*
X11903929Y-16199108D01*
X11903929Y-16199108D02*
X11913453Y-16208631D01*
X11913453Y-16208631D02*
X11922977Y-16227679D01*
X11922977Y-16227679D02*
X11932501Y-16265774D01*
X11932501Y-16265774D02*
X11932501Y-16313393D01*
X11932501Y-16313393D02*
X11922977Y-16351488D01*
X11922977Y-16351488D02*
X11913453Y-16370536D01*
X11913453Y-16370536D02*
X11903929Y-16380060D01*
X11903929Y-16380060D02*
X11884882Y-16389584D01*
X11884882Y-16389584D02*
X11865834Y-16389584D01*
X11865834Y-16389584D02*
X11846786Y-16380060D01*
X11846786Y-16380060D02*
X11837263Y-16370536D01*
X11837263Y-16370536D02*
X11827739Y-16351488D01*
X11827739Y-16351488D02*
X11818215Y-16313393D01*
X11818215Y-16313393D02*
X11818215Y-16265774D01*
X11818215Y-16265774D02*
X11827739Y-16227679D01*
X11827739Y-16227679D02*
X11837263Y-16208631D01*
X11837263Y-16208631D02*
X11846786Y-16199108D01*
X11846786Y-16199108D02*
X11865834Y-16189584D01*
X12018215Y-16370536D02*
X12027739Y-16380060D01*
X12027739Y-16380060D02*
X12018215Y-16389584D01*
X12018215Y-16389584D02*
X12008691Y-16380060D01*
X12008691Y-16380060D02*
X12018215Y-16370536D01*
X12018215Y-16370536D02*
X12018215Y-16389584D01*
X12218215Y-16389584D02*
X12103929Y-16389584D01*
X12161072Y-16389584D02*
X12161072Y-16189584D01*
X12161072Y-16189584D02*
X12142025Y-16218155D01*
X12142025Y-16218155D02*
X12122977Y-16237203D01*
X12122977Y-16237203D02*
X12103929Y-16246727D01*
X12294406Y-16208631D02*
X12303929Y-16199108D01*
X12303929Y-16199108D02*
X12322977Y-16189584D01*
X12322977Y-16189584D02*
X12370596Y-16189584D01*
X12370596Y-16189584D02*
X12389644Y-16199108D01*
X12389644Y-16199108D02*
X12399167Y-16208631D01*
X12399167Y-16208631D02*
X12408691Y-16227679D01*
X12408691Y-16227679D02*
X12408691Y-16246727D01*
X12408691Y-16246727D02*
X12399167Y-16275298D01*
X12399167Y-16275298D02*
X12284882Y-16389584D01*
X12284882Y-16389584D02*
X12408691Y-16389584D01*
X12580120Y-16189584D02*
X12542025Y-16189584D01*
X12542025Y-16189584D02*
X12522977Y-16199108D01*
X12522977Y-16199108D02*
X12513453Y-16208631D01*
X12513453Y-16208631D02*
X12494406Y-16237203D01*
X12494406Y-16237203D02*
X12484882Y-16275298D01*
X12484882Y-16275298D02*
X12484882Y-16351488D01*
X12484882Y-16351488D02*
X12494406Y-16370536D01*
X12494406Y-16370536D02*
X12503929Y-16380060D01*
X12503929Y-16380060D02*
X12522977Y-16389584D01*
X12522977Y-16389584D02*
X12561072Y-16389584D01*
X12561072Y-16389584D02*
X12580120Y-16380060D01*
X12580120Y-16380060D02*
X12589644Y-16370536D01*
X12589644Y-16370536D02*
X12599167Y-16351488D01*
X12599167Y-16351488D02*
X12599167Y-16303869D01*
X12599167Y-16303869D02*
X12589644Y-16284822D01*
X12589644Y-16284822D02*
X12580120Y-16275298D01*
X12580120Y-16275298D02*
X12561072Y-16265774D01*
X12561072Y-16265774D02*
X12522977Y-16265774D01*
X12522977Y-16265774D02*
X12503929Y-16275298D01*
X12503929Y-16275298D02*
X12494406Y-16284822D01*
X12494406Y-16284822D02*
X12484882Y-16303869D01*
X12722977Y-16189584D02*
X12742025Y-16189584D01*
X12742025Y-16189584D02*
X12761072Y-16199108D01*
X12761072Y-16199108D02*
X12770596Y-16208631D01*
X12770596Y-16208631D02*
X12780120Y-16227679D01*
X12780120Y-16227679D02*
X12789644Y-16265774D01*
X12789644Y-16265774D02*
X12789644Y-16313393D01*
X12789644Y-16313393D02*
X12780120Y-16351488D01*
X12780120Y-16351488D02*
X12770596Y-16370536D01*
X12770596Y-16370536D02*
X12761072Y-16380060D01*
X12761072Y-16380060D02*
X12742025Y-16389584D01*
X12742025Y-16389584D02*
X12722977Y-16389584D01*
X12722977Y-16389584D02*
X12703929Y-16380060D01*
X12703929Y-16380060D02*
X12694406Y-16370536D01*
X12694406Y-16370536D02*
X12684882Y-16351488D01*
X12684882Y-16351488D02*
X12675358Y-16313393D01*
X12675358Y-16313393D02*
X12675358Y-16265774D01*
X12675358Y-16265774D02*
X12684882Y-16227679D01*
X12684882Y-16227679D02*
X12694406Y-16208631D01*
X12694406Y-16208631D02*
X12703929Y-16199108D01*
X12703929Y-16199108D02*
X12722977Y-16189584D01*
X12865834Y-16189584D02*
X12865834Y-16227679D01*
X12942025Y-16189584D02*
X12942025Y-16227679D01*
X13237263Y-16465774D02*
X13227739Y-16456250D01*
X13227739Y-16456250D02*
X13208691Y-16427679D01*
X13208691Y-16427679D02*
X13199168Y-16408631D01*
X13199168Y-16408631D02*
X13189644Y-16380060D01*
X13189644Y-16380060D02*
X13180120Y-16332441D01*
X13180120Y-16332441D02*
X13180120Y-16294346D01*
X13180120Y-16294346D02*
X13189644Y-16246727D01*
X13189644Y-16246727D02*
X13199168Y-16218155D01*
X13199168Y-16218155D02*
X13208691Y-16199108D01*
X13208691Y-16199108D02*
X13227739Y-16170536D01*
X13227739Y-16170536D02*
X13237263Y-16161012D01*
X13303929Y-16208631D02*
X13313453Y-16199108D01*
X13313453Y-16199108D02*
X13332501Y-16189584D01*
X13332501Y-16189584D02*
X13380120Y-16189584D01*
X13380120Y-16189584D02*
X13399168Y-16199108D01*
X13399168Y-16199108D02*
X13408691Y-16208631D01*
X13408691Y-16208631D02*
X13418215Y-16227679D01*
X13418215Y-16227679D02*
X13418215Y-16246727D01*
X13418215Y-16246727D02*
X13408691Y-16275298D01*
X13408691Y-16275298D02*
X13294406Y-16389584D01*
X13294406Y-16389584D02*
X13418215Y-16389584D01*
X13656310Y-16389584D02*
X13656310Y-16189584D01*
X13742025Y-16389584D02*
X13742025Y-16284822D01*
X13742025Y-16284822D02*
X13732501Y-16265774D01*
X13732501Y-16265774D02*
X13713453Y-16256250D01*
X13713453Y-16256250D02*
X13684882Y-16256250D01*
X13684882Y-16256250D02*
X13665834Y-16265774D01*
X13665834Y-16265774D02*
X13656310Y-16275298D01*
X13865834Y-16389584D02*
X13846787Y-16380060D01*
X13846787Y-16380060D02*
X13837263Y-16370536D01*
X13837263Y-16370536D02*
X13827739Y-16351488D01*
X13827739Y-16351488D02*
X13827739Y-16294346D01*
X13827739Y-16294346D02*
X13837263Y-16275298D01*
X13837263Y-16275298D02*
X13846787Y-16265774D01*
X13846787Y-16265774D02*
X13865834Y-16256250D01*
X13865834Y-16256250D02*
X13894406Y-16256250D01*
X13894406Y-16256250D02*
X13913453Y-16265774D01*
X13913453Y-16265774D02*
X13922977Y-16275298D01*
X13922977Y-16275298D02*
X13932501Y-16294346D01*
X13932501Y-16294346D02*
X13932501Y-16351488D01*
X13932501Y-16351488D02*
X13922977Y-16370536D01*
X13922977Y-16370536D02*
X13913453Y-16380060D01*
X13913453Y-16380060D02*
X13894406Y-16389584D01*
X13894406Y-16389584D02*
X13865834Y-16389584D01*
X14046787Y-16389584D02*
X14027739Y-16380060D01*
X14027739Y-16380060D02*
X14018215Y-16361012D01*
X14018215Y-16361012D02*
X14018215Y-16189584D01*
X14199168Y-16380060D02*
X14180120Y-16389584D01*
X14180120Y-16389584D02*
X14142025Y-16389584D01*
X14142025Y-16389584D02*
X14122977Y-16380060D01*
X14122977Y-16380060D02*
X14113453Y-16361012D01*
X14113453Y-16361012D02*
X14113453Y-16284822D01*
X14113453Y-16284822D02*
X14122977Y-16265774D01*
X14122977Y-16265774D02*
X14142025Y-16256250D01*
X14142025Y-16256250D02*
X14180120Y-16256250D01*
X14180120Y-16256250D02*
X14199168Y-16265774D01*
X14199168Y-16265774D02*
X14208691Y-16284822D01*
X14208691Y-16284822D02*
X14208691Y-16303869D01*
X14208691Y-16303869D02*
X14113453Y-16322917D01*
X14284882Y-16380060D02*
X14303930Y-16389584D01*
X14303930Y-16389584D02*
X14342025Y-16389584D01*
X14342025Y-16389584D02*
X14361072Y-16380060D01*
X14361072Y-16380060D02*
X14370596Y-16361012D01*
X14370596Y-16361012D02*
X14370596Y-16351488D01*
X14370596Y-16351488D02*
X14361072Y-16332441D01*
X14361072Y-16332441D02*
X14342025Y-16322917D01*
X14342025Y-16322917D02*
X14313453Y-16322917D01*
X14313453Y-16322917D02*
X14294406Y-16313393D01*
X14294406Y-16313393D02*
X14284882Y-16294346D01*
X14284882Y-16294346D02*
X14284882Y-16284822D01*
X14284882Y-16284822D02*
X14294406Y-16265774D01*
X14294406Y-16265774D02*
X14313453Y-16256250D01*
X14313453Y-16256250D02*
X14342025Y-16256250D01*
X14342025Y-16256250D02*
X14361072Y-16265774D01*
X14437263Y-16465774D02*
X14446787Y-16456250D01*
X14446787Y-16456250D02*
X14465834Y-16427679D01*
X14465834Y-16427679D02*
X14475358Y-16408631D01*
X14475358Y-16408631D02*
X14484882Y-16380060D01*
X14484882Y-16380060D02*
X14494406Y-16332441D01*
X14494406Y-16332441D02*
X14494406Y-16294346D01*
X14494406Y-16294346D02*
X14484882Y-16246727D01*
X14484882Y-16246727D02*
X14475358Y-16218155D01*
X14475358Y-16218155D02*
X14465834Y-16199108D01*
X14465834Y-16199108D02*
X14446787Y-16170536D01*
X14446787Y-16170536D02*
X14437263Y-16161012D01*
X14799168Y-16465774D02*
X14789644Y-16456250D01*
X14789644Y-16456250D02*
X14770596Y-16427679D01*
X14770596Y-16427679D02*
X14761072Y-16408631D01*
X14761072Y-16408631D02*
X14751549Y-16380060D01*
X14751549Y-16380060D02*
X14742025Y-16332441D01*
X14742025Y-16332441D02*
X14742025Y-16294346D01*
X14742025Y-16294346D02*
X14751549Y-16246727D01*
X14751549Y-16246727D02*
X14761072Y-16218155D01*
X14761072Y-16218155D02*
X14770596Y-16199108D01*
X14770596Y-16199108D02*
X14789644Y-16170536D01*
X14789644Y-16170536D02*
X14799168Y-16161012D01*
X14875358Y-16256250D02*
X14875358Y-16389584D01*
X14875358Y-16275298D02*
X14884882Y-16265774D01*
X14884882Y-16265774D02*
X14903930Y-16256250D01*
X14903930Y-16256250D02*
X14932501Y-16256250D01*
X14932501Y-16256250D02*
X14951549Y-16265774D01*
X14951549Y-16265774D02*
X14961072Y-16284822D01*
X14961072Y-16284822D02*
X14961072Y-16389584D01*
X15084882Y-16389584D02*
X15065834Y-16380060D01*
X15065834Y-16380060D02*
X15056311Y-16370536D01*
X15056311Y-16370536D02*
X15046787Y-16351488D01*
X15046787Y-16351488D02*
X15046787Y-16294346D01*
X15046787Y-16294346D02*
X15056311Y-16275298D01*
X15056311Y-16275298D02*
X15065834Y-16265774D01*
X15065834Y-16265774D02*
X15084882Y-16256250D01*
X15084882Y-16256250D02*
X15113453Y-16256250D01*
X15113453Y-16256250D02*
X15132501Y-16265774D01*
X15132501Y-16265774D02*
X15142025Y-16275298D01*
X15142025Y-16275298D02*
X15151549Y-16294346D01*
X15151549Y-16294346D02*
X15151549Y-16351488D01*
X15151549Y-16351488D02*
X15142025Y-16370536D01*
X15142025Y-16370536D02*
X15132501Y-16380060D01*
X15132501Y-16380060D02*
X15113453Y-16389584D01*
X15113453Y-16389584D02*
X15084882Y-16389584D01*
X15208692Y-16256250D02*
X15284882Y-16256250D01*
X15237263Y-16189584D02*
X15237263Y-16361012D01*
X15237263Y-16361012D02*
X15246787Y-16380060D01*
X15246787Y-16380060D02*
X15265834Y-16389584D01*
X15265834Y-16389584D02*
X15284882Y-16389584D01*
X15503930Y-16256250D02*
X15503930Y-16456250D01*
X15503930Y-16265774D02*
X15522977Y-16256250D01*
X15522977Y-16256250D02*
X15561073Y-16256250D01*
X15561073Y-16256250D02*
X15580120Y-16265774D01*
X15580120Y-16265774D02*
X15589644Y-16275298D01*
X15589644Y-16275298D02*
X15599168Y-16294346D01*
X15599168Y-16294346D02*
X15599168Y-16351488D01*
X15599168Y-16351488D02*
X15589644Y-16370536D01*
X15589644Y-16370536D02*
X15580120Y-16380060D01*
X15580120Y-16380060D02*
X15561073Y-16389584D01*
X15561073Y-16389584D02*
X15522977Y-16389584D01*
X15522977Y-16389584D02*
X15503930Y-16380060D01*
X15713453Y-16389584D02*
X15694406Y-16380060D01*
X15694406Y-16380060D02*
X15684882Y-16361012D01*
X15684882Y-16361012D02*
X15684882Y-16189584D01*
X15875358Y-16389584D02*
X15875358Y-16284822D01*
X15875358Y-16284822D02*
X15865834Y-16265774D01*
X15865834Y-16265774D02*
X15846787Y-16256250D01*
X15846787Y-16256250D02*
X15808692Y-16256250D01*
X15808692Y-16256250D02*
X15789644Y-16265774D01*
X15875358Y-16380060D02*
X15856311Y-16389584D01*
X15856311Y-16389584D02*
X15808692Y-16389584D01*
X15808692Y-16389584D02*
X15789644Y-16380060D01*
X15789644Y-16380060D02*
X15780120Y-16361012D01*
X15780120Y-16361012D02*
X15780120Y-16341965D01*
X15780120Y-16341965D02*
X15789644Y-16322917D01*
X15789644Y-16322917D02*
X15808692Y-16313393D01*
X15808692Y-16313393D02*
X15856311Y-16313393D01*
X15856311Y-16313393D02*
X15875358Y-16303869D01*
X15942025Y-16256250D02*
X16018215Y-16256250D01*
X15970596Y-16189584D02*
X15970596Y-16361012D01*
X15970596Y-16361012D02*
X15980120Y-16380060D01*
X15980120Y-16380060D02*
X15999168Y-16389584D01*
X15999168Y-16389584D02*
X16018215Y-16389584D01*
X16161073Y-16380060D02*
X16142025Y-16389584D01*
X16142025Y-16389584D02*
X16103930Y-16389584D01*
X16103930Y-16389584D02*
X16084882Y-16380060D01*
X16084882Y-16380060D02*
X16075358Y-16361012D01*
X16075358Y-16361012D02*
X16075358Y-16284822D01*
X16075358Y-16284822D02*
X16084882Y-16265774D01*
X16084882Y-16265774D02*
X16103930Y-16256250D01*
X16103930Y-16256250D02*
X16142025Y-16256250D01*
X16142025Y-16256250D02*
X16161073Y-16265774D01*
X16161073Y-16265774D02*
X16170596Y-16284822D01*
X16170596Y-16284822D02*
X16170596Y-16303869D01*
X16170596Y-16303869D02*
X16075358Y-16322917D01*
X16342025Y-16389584D02*
X16342025Y-16189584D01*
X16342025Y-16380060D02*
X16322977Y-16389584D01*
X16322977Y-16389584D02*
X16284882Y-16389584D01*
X16284882Y-16389584D02*
X16265834Y-16380060D01*
X16265834Y-16380060D02*
X16256311Y-16370536D01*
X16256311Y-16370536D02*
X16246787Y-16351488D01*
X16246787Y-16351488D02*
X16246787Y-16294346D01*
X16246787Y-16294346D02*
X16256311Y-16275298D01*
X16256311Y-16275298D02*
X16265834Y-16265774D01*
X16265834Y-16265774D02*
X16284882Y-16256250D01*
X16284882Y-16256250D02*
X16322977Y-16256250D01*
X16322977Y-16256250D02*
X16342025Y-16265774D01*
X16418215Y-16465774D02*
X16427739Y-16456250D01*
X16427739Y-16456250D02*
X16446787Y-16427679D01*
X16446787Y-16427679D02*
X16456311Y-16408631D01*
X16456311Y-16408631D02*
X16465834Y-16380060D01*
X16465834Y-16380060D02*
X16475358Y-16332441D01*
X16475358Y-16332441D02*
X16475358Y-16294346D01*
X16475358Y-16294346D02*
X16465834Y-16246727D01*
X16465834Y-16246727D02*
X16456311Y-16218155D01*
X16456311Y-16218155D02*
X16446787Y-16199108D01*
X16446787Y-16199108D02*
X16427739Y-16170536D01*
X16427739Y-16170536D02*
X16418215Y-16161012D01*
M02*
